{"glyphs":{"0":{"ha":850,"x_min":71,"x_max":779,"o":"m 425 -17 q 263 26 329 -17 q 153 138 196 69 q 90 292 110 207 q 71 463 71 378 q 90 633 71 547 q 153 786 110 718 q 263 897 196 854 q 425 940 329 940 q 587 897 519 940 q 697 786 654 854 q 759 633 739 718 q 779 463 779 547 q 759 292 779 378 q 697 138 739 207 q 587 26 654 69 q 425 -17 519 -17 m 425 86 q 537 119 492 86 q 610 205 582 151 q 649 326 638 258 q 661 463 661 393 q 649 599 661 532 q 610 719 638 667 q 537 805 582 772 q 425 838 492 838 q 313 805 358 838 q 240 719 268 772 q 201 599 213 667 q 189 463 189 532 q 201 326 189 393 q 240 205 213 258 q 313 119 268 151 q 425 86 358 86 z "},"1":{"ha":471,"x_min":29,"x_max":363,"o":"m 247 0 l 247 774 l 99 617 l 29 688 l 261 926 l 363 926 l 363 0 l 247 0 z "},"2":{"ha":817,"x_min":74,"x_max":711,"o":"m 75 0 l 75 92 q 296 270 200 190 q 457 419 392 350 q 556 548 522 488 q 589 668 589 608 q 572 744 589 713 q 528 797 556 776 q 467 828 501 818 q 396 838 432 838 q 249 806 313 838 q 144 721 185 774 l 74 794 q 212 903 126 865 q 396 940 297 940 q 510 924 454 940 q 609 874 565 907 q 680 789 653 840 q 707 668 707 738 q 673 528 707 597 q 578 391 639 460 q 436 251 518 322 q 257 103 354 179 l 711 103 l 711 0 l 75 0 z "},"3":{"ha":774,"x_min":40,"x_max":697,"o":"m 369 -17 q 167 28 251 -17 q 40 136 83 74 l 108 208 q 216 120 149 154 q 367 86 283 86 q 526 133 468 86 q 583 260 583 179 q 567 334 583 303 q 519 385 550 365 q 447 414 489 404 q 353 424 404 424 q 296 424 324 424 q 257 422 268 424 l 257 528 q 297 526 268 526 q 353 526 325 526 q 435 535 396 526 q 504 563 475 544 q 551 610 533 582 q 568 679 568 639 q 551 747 568 718 q 507 797 535 776 q 441 827 479 817 q 361 838 403 838 q 226 809 285 838 q 117 725 168 781 l 53 797 q 182 899 103 858 q 369 940 261 940 q 494 924 436 940 q 593 876 551 907 q 659 798 635 844 q 683 693 683 751 q 665 606 683 643 q 617 542 646 568 q 552 499 588 515 q 483 478 517 483 q 553 460 515 475 q 622 417 590 444 q 676 347 654 389 q 697 250 697 306 q 675 143 697 192 q 610 59 653 94 q 507 3 568 24 q 369 -17 446 -17 z "},"4":{"ha":775,"x_min":44,"x_max":731,"o":"m 485 0 l 485 235 l 44 235 l 44 331 l 442 926 l 600 926 l 600 336 l 731 336 l 731 235 l 600 235 l 600 0 l 485 0 m 485 819 l 160 336 l 485 336 l 485 819 z "},"5":{"ha":819,"x_min":92,"x_max":747,"o":"m 418 -17 q 222 23 300 -17 q 92 132 144 63 l 163 208 q 270 118 208 150 q 418 86 332 86 q 505 101 465 86 q 572 143 544 117 q 616 206 600 169 q 632 285 632 243 q 616 367 632 331 q 572 431 600 404 q 506 471 544 457 q 419 485 467 485 q 305 464 357 485 q 206 397 253 443 l 121 426 l 121 926 l 688 926 l 688 824 l 236 824 l 236 501 q 326 560 269 535 q 453 585 382 585 q 564 565 511 585 q 658 508 617 546 q 723 415 699 471 q 747 289 747 360 q 722 161 747 218 q 653 65 697 104 q 548 4 608 25 q 418 -17 488 -17 z "},"6":{"ha":821,"x_min":71,"x_max":753,"o":"m 428 -17 q 263 23 331 -17 q 152 128 194 63 q 90 281 110 194 q 71 461 71 367 q 93 642 71 556 q 162 795 115 729 q 279 901 208 861 q 447 940 350 940 q 599 909 538 940 q 704 829 661 878 l 646 743 q 565 811 610 785 q 447 838 521 838 q 331 806 381 838 q 249 724 282 775 q 201 607 217 672 q 186 474 186 542 q 186 456 186 464 q 188 438 186 447 q 228 487 203 461 q 289 533 254 513 q 365 568 324 554 q 450 582 406 582 q 567 563 513 582 q 664 508 622 544 q 729 415 706 471 q 753 286 753 360 q 731 170 753 225 q 667 74 708 115 q 565 8 625 32 q 428 -17 504 -17 m 424 86 q 517 104 478 86 q 583 151 557 122 q 623 214 610 179 q 636 282 636 249 q 619 371 636 333 q 574 433 603 408 q 506 470 544 458 q 422 482 467 482 q 291 444 353 482 q 190 343 229 406 q 209 254 194 300 q 251 171 224 208 q 320 110 278 133 q 424 86 363 86 z "},"7":{"ha":715,"x_min":43,"x_max":675,"o":"m 168 0 l 542 824 l 43 824 l 43 926 l 675 926 l 675 847 l 296 0 l 168 0 z "},"8":{"ha":807,"x_min":72,"x_max":736,"o":"m 404 -17 q 274 0 335 -17 q 169 49 214 17 q 99 128 125 82 q 72 235 72 175 q 90 319 72 281 q 139 390 108 358 q 210 443 169 421 q 293 478 250 465 q 216 508 253 489 q 151 555 179 528 q 105 618 122 582 q 88 700 88 654 q 115 808 88 763 q 188 883 143 853 q 290 926 233 913 q 404 940 346 940 q 518 926 461 940 q 620 883 575 913 q 694 808 665 853 q 722 700 722 763 q 705 618 722 654 q 659 555 688 582 q 593 508 631 528 q 515 478 556 489 q 599 443 558 465 q 669 390 639 421 q 718 319 700 358 q 736 235 736 281 q 710 129 736 176 q 638 50 683 82 q 533 1 593 18 q 404 -17 472 -17 m 404 525 q 460 538 425 529 q 526 566 494 547 q 582 614 558 585 q 606 685 606 643 q 590 749 606 721 q 547 797 574 778 q 483 827 519 817 q 404 838 446 838 q 326 827 363 838 q 262 797 289 817 q 219 749 235 778 q 203 685 203 721 q 226 614 203 643 q 283 566 250 585 q 349 538 315 547 q 404 525 383 529 m 404 86 q 486 97 447 86 q 555 129 525 108 q 602 180 585 150 q 619 247 619 210 q 594 326 619 293 q 533 380 568 358 q 462 413 499 401 q 404 426 425 424 q 347 413 383 424 q 274 380 310 401 q 213 326 239 358 q 188 247 188 293 q 205 180 188 210 q 252 129 222 150 q 322 97 282 108 q 404 86 361 86 z "},"9":{"ha":821,"x_min":68,"x_max":750,"o":"m 374 -15 q 223 15 285 -15 q 117 96 161 46 l 175 182 q 256 114 211 140 q 374 88 301 88 q 494 119 444 88 q 574 203 543 151 q 620 319 606 254 q 635 450 635 385 q 635 469 635 460 q 633 488 635 478 q 592 438 618 464 q 532 392 567 413 q 457 357 497 371 q 372 343 417 343 q 254 362 310 343 q 158 417 199 381 q 92 510 117 454 q 68 639 68 565 q 90 753 68 699 q 154 850 113 808 q 256 917 196 892 q 392 942 317 942 q 557 902 489 942 q 668 797 625 863 q 731 644 711 731 q 750 463 750 557 q 728 282 750 368 q 659 130 706 196 q 542 24 613 64 q 374 -15 471 -15 m 399 443 q 531 481 468 443 q 629 581 593 518 q 611 669 625 624 q 570 753 597 715 q 500 815 543 790 q 397 839 457 839 q 304 821 344 839 q 238 774 264 803 q 198 711 211 746 q 185 643 185 676 q 201 554 185 592 q 247 492 218 517 q 315 455 276 467 q 399 443 354 443 z "},"\u0000":{"ha":0,"x_min":0,"x_max":0,"o":""},"\r":{"ha":0,"x_min":0,"x_max":0,"o":""}," ":{"ha":358,"x_min":0,"x_max":0,"o":""},"!":{"ha":319,"x_min":83,"x_max":236,"o":"m 117 260 l 94 926 l 225 926 l 203 260 l 117 260 m 160 -14 q 106 9 128 -14 q 83 63 83 32 q 106 117 83 94 q 160 139 128 139 q 214 117 192 139 q 236 63 236 94 q 214 9 236 32 q 160 -14 192 -14 z "},"\"":{"ha":476,"x_min":75,"x_max":403,"o":"m 113 572 q 93 717 101 651 q 86 772 89 744 q 81 821 83 799 q 76 858 78 843 q 75 876 75 872 q 93 922 75 903 q 138 940 111 940 q 183 922 165 940 q 201 876 201 903 q 200 858 201 872 q 196 821 199 843 q 190 772 193 799 q 182 717 186 744 q 164 572 174 651 l 113 572 m 314 572 q 294 717 303 651 q 288 772 290 744 q 282 821 285 799 q 278 858 279 843 q 276 876 276 872 q 294 922 276 903 q 340 940 313 940 q 385 922 367 940 q 403 876 403 903 q 401 858 403 872 q 397 821 400 843 q 391 772 394 799 q 383 717 388 744 q 365 572 375 651 l 314 572 z "},"#":{"ha":819,"x_min":31,"x_max":790,"o":"m 332 0 l 417 251 l 263 251 l 179 0 l 93 0 l 178 251 l 31 251 l 54 325 l 203 325 l 294 601 l 144 601 l 167 674 l 319 674 l 403 926 l 489 926 l 406 674 l 558 674 l 642 926 l 726 926 l 642 674 l 790 674 l 769 601 l 618 601 l 525 325 l 679 325 l 657 251 l 500 251 l 417 0 l 332 0 m 532 601 l 379 601 l 288 325 l 440 325 l 532 601 z "},"$":{"ha":824,"x_min":58,"x_max":756,"o":"m 376 -15 q 190 31 269 -8 q 58 131 111 71 l 126 218 q 230 135 167 172 q 376 88 293 97 l 376 426 q 272 458 324 440 q 178 505 219 476 q 113 576 138 533 q 88 683 88 619 q 109 783 88 738 q 169 861 131 828 q 260 915 207 894 q 376 939 314 935 l 376 1067 l 461 1067 l 461 938 q 616 897 549 929 q 735 811 683 864 l 665 726 q 572 797 624 771 q 461 832 519 824 l 461 531 q 568 496 515 515 q 663 446 621 476 q 730 369 704 415 q 756 256 756 324 q 740 163 756 208 q 688 79 724 117 q 597 16 653 42 q 461 -15 542 -10 l 461 -139 l 376 -139 l 376 -15 m 636 246 q 622 304 636 279 q 585 347 608 329 q 529 378 561 365 q 461 403 497 392 l 461 88 q 544 109 511 93 q 598 147 578 125 q 627 195 618 169 q 636 246 636 221 m 207 690 q 220 640 207 661 q 256 603 233 618 q 310 575 279 588 q 376 553 340 563 l 376 836 q 254 792 301 831 q 207 690 207 753 z "},"%":{"ha":1015,"x_min":43,"x_max":972,"o":"m 265 483 q 174 501 215 483 q 104 548 133 518 q 59 619 75 578 q 43 710 43 661 q 59 801 43 758 q 104 874 75 843 q 174 923 133 906 q 265 940 215 940 q 357 923 315 940 q 428 874 399 906 q 474 801 457 843 q 490 710 490 758 q 474 619 490 661 q 428 548 457 578 q 357 501 399 518 q 265 483 315 483 m 178 0 l 769 926 l 846 926 l 253 0 l 178 0 m 749 -17 q 658 1 699 -17 q 588 48 617 18 q 542 119 558 78 q 526 210 526 161 q 542 301 526 258 q 588 374 558 343 q 658 423 617 406 q 749 440 699 440 q 840 423 799 440 q 910 374 881 406 q 956 301 939 343 q 972 210 972 258 q 956 119 972 161 q 910 48 939 78 q 840 1 881 18 q 749 -17 799 -17 m 265 553 q 322 565 296 553 q 367 599 349 578 q 397 648 386 619 q 407 710 407 676 q 367 824 407 779 q 265 869 328 869 q 165 824 203 869 q 126 710 126 779 q 165 598 126 643 q 265 553 203 553 m 749 53 q 806 65 779 53 q 851 99 832 78 q 880 148 869 119 q 890 210 890 176 q 851 324 890 279 q 749 369 811 369 q 647 324 686 369 q 608 210 608 279 q 619 148 608 176 q 647 99 629 119 q 691 65 665 78 q 749 53 717 53 z "},"&":{"ha":890,"x_min":50,"x_max":851,"o":"m 707 0 q 660 43 686 18 q 606 97 633 68 q 489 15 554 46 q 339 -17 424 -17 q 226 -1 279 -17 q 135 48 174 15 q 73 128 96 81 q 50 242 50 176 q 67 338 50 296 q 112 412 83 379 q 177 470 140 444 q 254 517 214 496 q 203 623 222 569 q 183 725 183 676 q 201 810 183 771 q 251 879 219 850 q 325 924 282 908 q 417 940 368 940 q 501 928 463 940 q 567 893 539 917 q 610 835 594 869 q 626 758 626 801 q 606 667 626 706 q 553 599 586 629 q 477 544 519 568 q 390 497 435 519 q 446 425 418 458 q 497 365 474 392 q 552 301 525 332 q 607 242 579 271 q 670 357 646 300 q 707 453 694 414 l 797 414 q 743 296 774 358 q 671 175 713 233 q 756 90 711 132 q 851 0 800 47 l 707 0 m 349 69 q 455 95 407 69 q 543 161 503 121 q 469 240 503 203 q 415 301 435 278 q 356 372 386 335 q 299 449 326 408 q 201 367 240 413 q 163 249 163 321 q 178 172 163 206 q 219 116 193 139 q 278 81 244 93 q 349 69 313 69 m 292 724 q 308 646 292 688 q 347 564 324 604 q 418 601 385 582 q 476 643 451 621 q 516 692 501 665 q 531 754 531 719 q 499 832 531 806 q 421 858 468 858 q 371 849 394 858 q 330 821 347 839 q 302 778 313 803 q 292 724 292 753 z "},"'":{"ha":276,"x_min":75,"x_max":201,"o":"m 113 572 q 93 717 101 651 q 86 772 89 744 q 81 821 83 799 q 76 858 78 843 q 75 876 75 872 q 93 922 75 903 q 138 940 111 940 q 183 922 165 940 q 201 876 201 903 q 200 858 201 872 q 196 821 199 843 q 190 772 193 799 q 182 717 186 744 q 164 572 174 651 l 113 572 z "},"(":{"ha":344,"x_min":61,"x_max":319,"o":"m 257 -276 q 112 11 163 -147 q 61 338 61 169 q 112 663 61 506 q 257 951 163 821 l 319 904 q 259 774 286 838 q 213 642 232 710 q 185 499 194 574 q 175 338 175 425 q 185 176 175 251 q 213 34 194 101 q 259 -98 232 -33 q 319 -228 286 -162 l 257 -276 z "},")":{"ha":344,"x_min":24,"x_max":283,"o":"m 24 -228 q 84 -98 57 -162 q 130 34 111 -33 q 159 176 149 101 q 169 338 169 251 q 159 499 169 425 q 130 642 149 574 q 84 774 111 710 q 24 904 57 838 l 86 951 q 233 663 182 821 q 283 338 283 506 q 233 11 283 169 q 86 -276 182 -147 l 24 -228 z "},"*":{"ha":472,"x_min":47,"x_max":425,"o":"m 204 540 l 211 700 l 78 613 l 47 668 l 189 740 l 47 813 l 78 867 l 211 781 l 204 940 l 268 940 l 260 781 l 393 867 l 425 813 l 283 740 l 425 668 l 393 613 l 260 700 l 268 540 l 204 540 z "},"+":{"ha":693,"x_min":40,"x_max":653,"o":"m 386 432 l 386 136 l 307 136 l 307 432 l 40 432 l 40 504 l 307 504 l 307 792 l 386 792 l 386 504 l 653 504 l 653 432 l 386 432 z "},",":{"ha":319,"x_min":79,"x_max":244,"o":"m 244 33 q 212 -86 244 -31 q 131 -176 179 -142 l 79 -133 q 139 -75 113 -111 q 169 -4 165 -39 q 150 -7 164 -7 q 102 13 121 -7 q 83 64 83 32 q 104 117 83 94 q 157 139 125 139 q 218 111 192 139 q 244 33 244 83 z "},"-":{"ha":417,"x_min":42,"x_max":375,"o":"m 42 290 l 42 382 l 375 382 l 375 290 l 42 290 z "},".":{"ha":319,"x_min":83,"x_max":236,"o":"m 160 -14 q 106 8 128 -14 q 83 63 83 31 q 106 117 83 94 q 160 139 128 139 q 214 117 192 139 q 236 63 236 94 q 214 8 236 31 q 160 -14 192 -14 z "},"/":{"ha":411,"x_min":0,"x_max":411,"o":"m 0 -28 l 329 954 l 411 954 l 82 -28 l 0 -28 z "},":":{"ha":319,"x_min":83,"x_max":236,"o":"m 160 528 q 106 550 128 528 q 83 604 83 572 q 106 658 83 636 q 160 681 128 681 q 214 658 192 681 q 236 604 236 636 q 214 550 236 572 q 160 528 192 528 m 160 -14 q 106 8 128 -14 q 83 63 83 31 q 106 117 83 94 q 160 139 128 139 q 214 117 192 139 q 236 63 236 94 q 214 8 236 31 q 160 -14 192 -14 z "},";":{"ha":319,"x_min":79,"x_max":244,"o":"m 160 528 q 106 551 128 528 q 83 604 83 574 q 106 658 83 636 q 160 681 128 681 q 214 658 192 681 q 236 604 236 636 q 214 551 236 574 q 160 528 192 528 m 244 36 q 212 -85 244 -29 q 131 -174 179 -140 l 79 -132 q 139 -73 113 -110 q 169 -1 165 -36 q 161 -4 167 -3 q 150 -6 156 -6 q 102 15 121 -6 q 83 65 83 35 q 104 119 83 97 q 157 142 125 142 q 218 114 192 142 q 244 36 244 86 z "},"<":{"ha":693,"x_min":40,"x_max":653,"o":"m 40 428 l 40 501 l 653 806 l 653 718 l 129 464 l 653 211 l 653 125 l 40 428 z "},"=":{"ha":693,"x_min":40,"x_max":653,"o":"m 40 561 l 40 635 l 653 635 l 653 561 l 40 561 m 40 293 l 40 365 l 653 365 l 653 293 l 40 293 z "},">":{"ha":693,"x_min":40,"x_max":653,"o":"m 40 125 l 40 211 l 563 464 l 40 718 l 40 806 l 653 501 l 653 428 l 40 125 z "},"?":{"ha":642,"x_min":25,"x_max":599,"o":"m 282 257 q 241 309 254 281 q 228 369 228 338 q 247 446 228 414 q 293 503 265 478 q 353 549 321 528 q 414 594 386 571 q 460 644 442 617 q 479 708 479 671 q 439 799 479 761 q 315 838 399 838 q 185 806 236 838 q 94 724 133 775 l 25 799 q 151 902 75 864 q 326 940 226 940 q 440 924 390 940 q 526 878 490 907 q 580 809 561 849 q 599 725 599 769 q 578 635 599 672 q 528 568 558 597 q 464 515 499 539 q 399 469 429 492 q 349 420 369 446 q 329 361 329 394 q 339 326 329 344 q 367 293 349 307 l 282 257 m 311 -14 q 257 8 279 -14 q 235 63 235 31 q 257 117 235 94 q 311 139 279 139 q 365 117 343 139 q 388 63 388 94 q 365 8 388 31 q 311 -14 343 -14 z "},"@":{"ha":1088,"x_min":49,"x_max":1038,"o":"m 489 -97 q 314 -64 394 -97 q 174 28 233 -31 q 82 167 115 88 q 49 339 49 247 q 94 551 49 451 q 216 725 140 650 q 392 843 292 800 q 600 886 492 886 q 779 851 699 886 q 917 757 860 817 q 1006 617 975 697 q 1038 446 1038 538 q 1017 303 1038 364 q 961 201 996 242 q 883 139 926 160 q 797 118 840 118 q 706 152 739 118 q 671 231 674 186 l 669 239 q 575 153 633 188 q 450 118 517 118 q 295 181 353 118 q 238 344 238 243 q 265 481 238 417 q 339 592 293 544 q 444 666 385 639 q 564 693 503 693 q 677 661 632 693 q 742 585 722 629 l 760 671 l 854 671 l 775 294 q 773 280 774 288 q 772 265 772 272 q 791 211 772 229 q 838 193 810 193 q 884 206 858 193 q 933 247 910 218 q 972 325 956 276 q 988 446 988 374 q 959 603 988 531 q 879 728 931 675 q 756 810 828 781 q 594 839 683 839 q 403 798 494 839 q 244 688 313 757 q 136 529 176 619 q 96 342 96 439 q 126 186 96 258 q 208 61 156 114 q 335 -22 261 8 q 494 -51 408 -51 q 633 -31 569 -51 q 753 26 696 -10 l 778 -10 q 640 -74 713 -51 q 489 -97 567 -97 m 478 196 q 545 207 514 196 q 602 236 576 218 q 649 276 628 254 q 685 321 669 299 l 725 513 q 708 547 719 529 q 678 581 696 565 q 637 606 661 596 q 582 615 613 615 q 485 592 529 615 q 407 533 440 569 q 355 448 374 496 q 336 350 336 400 q 374 240 336 283 q 478 196 411 196 z "},"A":{"ha":914,"x_min":13,"x_max":901,"o":"m 769 0 l 688 206 l 226 206 l 144 0 l 13 0 l 385 926 l 528 926 l 901 0 l 769 0 m 457 807 l 260 308 l 653 308 l 457 807 z "},"B":{"ha":874,"x_min":108,"x_max":799,"o":"m 108 0 l 108 926 l 521 926 q 629 909 581 926 q 711 860 678 892 q 763 785 744 829 q 781 690 781 742 q 767 610 781 646 q 731 547 754 574 q 679 502 708 519 q 618 478 650 485 q 688 451 656 472 q 745 400 721 431 q 784 331 769 369 q 799 250 799 292 q 781 149 799 194 q 728 69 763 103 q 644 18 693 36 q 531 0 594 0 l 108 0 m 501 525 q 621 567 581 525 q 661 674 661 610 q 621 780 661 736 q 501 824 581 824 l 224 824 l 224 525 l 501 525 m 507 103 q 634 145 589 103 q 679 263 679 188 q 668 324 679 294 q 635 374 657 353 q 582 409 614 396 q 507 422 550 422 l 224 422 l 224 103 l 507 103 z "},"C":{"ha":939,"x_min":71,"x_max":900,"o":"m 547 -17 q 360 18 447 -17 q 209 116 274 53 q 108 267 144 179 q 71 463 71 356 q 108 658 71 569 q 209 809 144 746 q 360 907 274 872 q 547 942 447 942 q 660 928 608 942 q 756 889 713 914 q 835 831 800 864 q 899 758 871 797 l 801 704 q 694 801 761 763 q 547 839 626 839 q 406 811 471 839 q 292 733 340 783 q 217 615 244 683 q 190 463 190 546 q 217 311 190 381 q 292 192 244 242 q 406 114 340 142 q 547 86 471 86 q 694 124 626 86 q 801 221 761 161 l 900 167 q 756 35 842 88 q 547 -17 671 -17 z "},"D":{"ha":972,"x_min":108,"x_max":900,"o":"m 108 0 l 108 926 l 425 926 q 621 891 533 926 q 770 793 708 856 q 866 646 832 731 q 900 463 900 561 q 866 279 900 364 q 770 133 832 194 q 621 35 708 71 q 425 0 533 0 l 108 0 m 425 103 q 576 131 510 103 q 688 208 642 160 q 757 322 733 257 q 781 463 781 388 q 757 603 781 538 q 688 718 733 669 q 577 795 643 767 q 425 824 511 824 l 224 824 l 224 103 l 425 103 z "},"E":{"ha":790,"x_min":108,"x_max":715,"o":"m 108 0 l 108 926 l 715 926 l 715 824 l 224 824 l 224 525 l 706 525 l 706 422 l 224 422 l 224 103 l 715 103 l 715 0 l 108 0 z "},"F":{"ha":764,"x_min":108,"x_max":715,"o":"m 108 0 l 108 926 l 715 926 l 715 824 l 224 824 l 224 525 l 706 525 l 706 422 l 224 422 l 224 0 l 108 0 z "},"G":{"ha":990,"x_min":71,"x_max":911,"o":"m 547 -18 q 362 17 449 -18 q 210 115 275 51 q 108 266 146 178 q 71 463 71 354 q 108 659 71 571 q 210 810 146 747 q 362 907 275 872 q 547 942 449 942 q 758 893 671 942 q 907 768 844 844 l 815 711 q 701 803 771 768 q 547 839 631 839 q 406 811 471 839 q 292 733 340 783 q 217 615 244 683 q 190 463 190 546 q 217 311 190 381 q 292 192 244 242 q 406 113 340 142 q 547 85 471 85 q 626 94 589 85 q 696 117 664 103 q 753 150 728 132 q 796 185 779 168 l 796 374 l 478 374 l 478 476 l 911 476 l 911 142 q 753 26 846 69 q 547 -18 661 -18 z "},"H":{"ha":989,"x_min":108,"x_max":881,"o":"m 765 0 l 765 425 l 224 425 l 224 0 l 108 0 l 108 926 l 224 926 l 224 528 l 765 528 l 765 926 l 881 926 l 881 0 l 765 0 z "},"I":{"ha":332,"x_min":108,"x_max":224,"o":"m 108 0 l 108 926 l 224 926 l 224 0 l 108 0 z "},"J":{"ha":660,"x_min":15,"x_max":551,"o":"m 257 -17 q 123 8 182 -17 q 15 90 64 33 l 75 178 q 147 114 106 142 q 250 86 189 86 q 386 140 336 86 q 436 281 436 193 l 436 926 l 551 926 l 551 279 q 528 148 551 204 q 466 56 506 92 q 373 1 426 19 q 257 -17 319 -17 z "},"K":{"ha":835,"x_min":108,"x_max":811,"o":"m 668 0 l 317 417 l 224 311 l 224 0 l 108 0 l 108 926 l 224 926 l 224 447 l 633 926 l 778 926 l 392 486 l 811 0 l 668 0 z "},"L":{"ha":708,"x_min":108,"x_max":654,"o":"m 108 0 l 108 926 l 224 926 l 224 103 l 654 103 l 654 0 l 108 0 z "},"M":{"ha":1124,"x_min":108,"x_max":1015,"o":"m 900 0 l 900 763 l 585 0 l 538 0 l 224 763 l 224 0 l 108 0 l 108 926 l 274 926 l 561 229 l 850 926 l 1015 926 l 1015 0 l 900 0 z "},"N":{"ha":983,"x_min":108,"x_max":875,"o":"m 764 0 l 224 739 l 224 0 l 108 0 l 108 926 l 226 926 l 760 203 l 760 926 l 875 926 l 875 0 l 764 0 z "},"O":{"ha":1063,"x_min":71,"x_max":990,"o":"m 531 -17 q 343 19 428 -17 q 198 120 258 56 q 104 272 138 185 q 71 463 71 360 q 104 653 71 565 q 198 805 138 740 q 343 906 258 869 q 531 942 428 942 q 718 906 633 942 q 863 805 803 869 q 957 653 924 740 q 990 463 990 565 q 957 272 990 360 q 863 120 924 185 q 718 19 803 56 q 531 -17 633 -17 m 531 86 q 671 115 608 86 q 778 194 733 143 q 847 313 822 244 q 871 463 871 382 q 847 613 871 543 q 778 732 822 682 q 671 810 733 782 q 531 839 608 839 q 390 810 453 839 q 282 732 326 782 q 214 613 238 682 q 190 463 190 543 q 214 313 190 382 q 282 194 238 244 q 390 115 326 143 q 531 86 453 86 z "},"P":{"ha":815,"x_min":108,"x_max":771,"o":"m 108 0 l 108 926 l 481 926 q 604 904 550 926 q 695 844 658 882 q 751 755 732 806 q 771 647 771 704 q 751 540 771 590 q 694 451 732 489 q 603 390 657 413 q 481 368 549 368 l 224 368 l 224 0 l 108 0 m 467 471 q 601 519 550 471 q 651 647 651 568 q 601 775 651 726 q 467 824 550 824 l 224 824 l 224 471 l 467 471 z "},"Q":{"ha":1063,"x_min":71,"x_max":990,"o":"m 531 -17 q 343 19 428 -17 q 198 120 258 56 q 104 272 138 185 q 71 463 71 360 q 104 653 71 565 q 198 805 138 740 q 343 906 258 869 q 531 942 428 942 q 718 906 633 942 q 863 805 803 869 q 957 653 924 740 q 990 463 990 565 q 957 272 990 358 q 863 121 924 185 l 951 26 l 871 -43 l 781 53 q 665 1 728 19 q 531 -17 603 -17 m 531 86 q 707 133 629 86 l 575 276 l 656 344 l 786 203 q 849 319 826 253 q 871 463 871 385 q 847 613 871 543 q 778 732 822 682 q 671 810 733 782 q 531 839 608 839 q 390 810 453 839 q 282 732 326 782 q 214 613 238 682 q 190 463 190 543 q 214 313 190 382 q 282 194 238 244 q 390 115 326 143 q 531 86 453 86 z "},"R":{"ha":844,"x_min":108,"x_max":781,"o":"m 644 0 l 408 368 l 224 368 l 224 0 l 108 0 l 108 926 l 481 926 q 597 907 544 926 q 689 851 650 888 q 749 763 728 814 q 771 647 771 711 q 751 536 771 585 q 699 454 732 488 q 622 401 665 421 q 531 378 578 382 l 781 0 l 644 0 m 467 469 q 601 519 550 469 q 651 647 651 568 q 601 775 651 726 q 467 824 550 824 l 224 824 l 224 469 l 467 469 z "},"S":{"ha":814,"x_min":53,"x_max":750,"o":"m 408 -17 q 199 24 286 -17 q 53 131 111 65 l 121 218 q 174 169 143 193 q 241 126 204 144 q 321 97 278 108 q 413 86 364 86 q 517 101 475 86 q 583 140 558 117 q 619 191 608 163 q 631 246 631 219 q 607 319 631 290 q 545 369 583 349 q 458 402 507 389 q 356 430 408 415 q 255 463 304 444 q 167 509 206 481 q 106 579 129 538 q 82 683 82 621 q 106 788 82 740 q 173 869 131 835 q 274 922 215 903 q 400 940 332 940 q 589 907 507 940 q 729 811 671 874 l 660 726 q 538 811 607 785 q 392 838 468 838 q 255 797 308 838 q 201 690 201 757 q 225 626 201 651 q 287 583 249 601 q 374 552 325 565 q 476 524 424 539 q 577 490 528 510 q 665 440 626 471 q 726 365 703 410 q 750 256 750 321 q 732 156 750 206 q 673 69 714 107 q 567 7 632 31 q 408 -17 501 -17 z "},"T":{"ha":792,"x_min":44,"x_max":747,"o":"m 338 0 l 338 824 l 44 824 l 44 926 l 747 926 l 747 824 l 453 824 l 453 0 l 338 0 z "},"U":{"ha":972,"x_min":108,"x_max":864,"o":"m 486 -17 q 321 10 392 -17 q 203 86 250 38 q 132 204 156 135 q 108 360 108 274 l 108 926 l 224 926 l 224 363 q 290 160 224 235 q 486 86 357 86 q 682 160 615 86 q 749 363 749 235 l 749 926 l 864 926 l 864 361 q 840 205 864 275 q 769 85 817 135 q 651 10 722 36 q 486 -17 581 -17 z "},"V":{"ha":914,"x_min":13,"x_max":901,"o":"m 385 0 l 13 926 l 144 926 l 457 126 l 769 926 l 901 926 l 528 0 l 385 0 z "},"W":{"ha":1226,"x_min":19,"x_max":1206,"o":"m 817 0 l 613 747 l 408 0 l 283 0 l 19 926 l 147 926 l 353 154 l 565 926 l 661 926 l 874 154 l 1078 926 l 1206 926 l 942 0 l 817 0 z "},"X":{"ha":906,"x_min":17,"x_max":888,"o":"m 749 0 l 453 394 l 157 0 l 17 0 l 378 475 l 38 926 l 178 926 l 453 556 l 726 926 l 867 926 l 528 476 l 888 0 l 749 0 z "},"Y":{"ha":869,"x_min":13,"x_max":857,"o":"m 378 0 l 378 392 l 13 926 l 147 926 l 435 496 l 722 926 l 857 926 l 493 392 l 493 0 l 378 0 z "},"Z":{"ha":813,"x_min":67,"x_max":744,"o":"m 67 0 l 67 96 l 588 824 l 67 824 l 67 926 l 735 926 l 735 831 l 214 103 l 744 103 l 744 0 l 67 0 z "},"[":{"ha":338,"x_min":56,"x_max":314,"o":"m 56 -264 l 56 942 l 314 942 l 314 865 l 136 865 l 136 -187 l 314 -187 l 314 -264 l 56 -264 z "},"\\":{"ha":411,"x_min":0,"x_max":411,"o":"m 0 954 l 82 954 l 411 -28 l 329 -28 l 0 954 z "},"]":{"ha":338,"x_min":24,"x_max":282,"o":"m 24 -264 l 24 -187 l 201 -187 l 201 865 l 24 865 l 24 942 l 282 942 l 282 -264 l 24 -264 z "},"^":{"ha":600,"x_min":26,"x_max":574,"o":"m 488 463 l 300 850 l 113 463 l 26 463 l 261 926 l 340 926 l 574 463 l 488 463 z "},"_":{"ha":783,"x_min":-4,"x_max":788,"o":"m -4 -132 l -4 -56 l 788 -56 l 788 -132 l -4 -132 z "},"`":{"ha":314,"x_min":0,"x_max":314,"o":"m 235 772 l 0 972 l 108 972 l 314 772 l 235 772 z "},"a":{"ha":732,"x_min":67,"x_max":628,"o":"m 524 0 l 524 76 q 301 -17 439 -17 q 217 -3 258 -17 q 142 40 175 11 q 88 110 108 68 q 67 206 67 151 q 88 303 67 261 q 142 372 108 344 q 217 413 175 400 q 301 426 258 426 q 427 404 371 426 q 524 335 483 382 l 524 456 q 476 560 524 524 q 354 597 428 597 q 149 504 236 597 l 100 576 q 368 688 207 688 q 468 675 421 688 q 551 635 515 663 q 607 565 586 608 q 628 461 628 522 l 628 0 l 524 0 m 339 58 q 444 79 394 58 q 524 142 493 100 l 524 268 q 444 331 493 310 q 339 351 394 351 q 219 310 265 351 q 174 204 174 269 q 219 99 174 140 q 339 58 265 58 z "},"b":{"ha":799,"x_min":104,"x_max":733,"o":"m 208 182 q 291 107 236 138 q 408 76 346 76 q 500 96 460 76 q 568 150 540 115 q 610 232 596 185 q 625 335 625 279 q 610 438 625 390 q 568 521 596 486 q 500 575 540 556 q 408 594 460 594 q 291 563 346 594 q 208 486 236 531 l 208 182 m 104 0 l 104 926 l 208 926 l 208 569 q 307 656 249 625 q 435 688 365 688 q 555 663 500 688 q 649 592 610 638 q 711 481 689 546 q 733 335 733 415 q 711 188 733 253 q 649 77 689 122 q 555 8 610 32 q 435 -17 500 -17 q 305 16 364 -17 q 208 100 246 49 l 208 0 l 104 0 z "},"c":{"ha":688,"x_min":65,"x_max":646,"o":"m 400 -17 q 263 10 325 -17 q 158 85 201 38 q 90 197 114 132 q 65 336 65 261 q 90 475 65 411 q 158 586 114 539 q 263 660 201 633 q 400 688 325 688 q 549 654 492 688 q 646 571 607 621 l 576 507 q 501 574 543 553 q 406 594 458 594 q 309 575 351 594 q 236 521 267 556 q 190 439 206 486 q 174 336 174 392 q 190 233 174 281 q 236 150 206 185 q 309 96 267 115 q 406 76 351 76 q 576 164 511 76 l 646 100 q 549 17 607 50 q 400 -17 492 -17 z "},"d":{"ha":799,"x_min":65,"x_max":694,"o":"m 590 0 l 590 100 q 494 16 553 49 q 364 -17 435 -17 q 244 8 299 -17 q 149 77 189 32 q 88 188 110 122 q 65 335 65 253 q 87 481 65 415 q 148 592 108 546 q 242 663 188 638 q 364 688 297 688 q 491 656 432 688 q 590 569 550 625 l 590 926 l 694 926 l 694 0 l 590 0 m 389 76 q 507 107 451 76 q 590 182 563 138 l 590 486 q 507 563 563 531 q 389 594 451 594 q 299 575 339 594 q 231 521 258 556 q 188 438 203 486 q 174 335 174 390 q 188 232 174 279 q 231 150 203 185 q 299 96 258 115 q 389 76 339 76 z "},"e":{"ha":782,"x_min":65,"x_max":718,"o":"m 407 -17 q 269 9 332 -17 q 162 81 207 35 q 91 192 117 128 q 65 336 65 257 q 90 473 65 408 q 159 585 115 538 q 263 660 203 632 q 396 688 324 688 q 532 660 472 688 q 633 583 592 632 q 697 469 675 535 q 718 328 718 403 l 718 301 l 175 301 q 196 212 178 254 q 245 138 214 169 q 319 88 276 107 q 417 69 363 69 q 529 92 475 69 q 624 154 583 114 l 674 86 q 557 10 624 36 q 407 -17 490 -17 m 615 378 q 602 455 615 415 q 562 527 589 494 q 493 581 535 560 q 394 601 451 601 q 300 581 340 601 q 233 528 260 560 q 191 456 206 496 q 175 378 176 417 l 615 378 z "},"f":{"ha":393,"x_min":22,"x_max":469,"o":"m 133 0 l 133 579 l 22 579 l 22 671 l 133 671 l 133 722 q 185 883 133 826 q 328 940 238 940 q 403 929 368 940 q 469 889 438 918 l 426 821 q 390 845 410 836 q 343 854 369 854 q 265 820 292 854 q 238 722 238 786 l 238 671 l 374 671 l 374 579 l 238 579 l 238 0 l 133 0 z "},"g":{"ha":797,"x_min":65,"x_max":693,"o":"m 374 -272 q 225 -251 288 -272 q 103 -172 163 -231 l 156 -94 q 249 -165 197 -144 q 374 -186 301 -186 q 454 -176 415 -186 q 523 -141 493 -165 q 571 -78 553 -117 q 589 15 589 -40 l 589 111 q 494 26 553 60 q 364 -8 435 -8 q 244 15 299 -8 q 149 84 189 39 q 88 193 110 129 q 65 339 65 257 q 87 484 65 419 q 148 594 108 549 q 242 663 188 639 q 364 688 297 688 q 490 656 432 688 q 589 569 549 625 l 589 671 l 693 671 l 693 19 q 666 -120 693 -64 q 594 -210 639 -176 q 492 -258 550 -243 q 374 -272 435 -272 m 389 83 q 450 92 419 83 q 507 117 481 101 q 554 151 533 132 q 589 193 575 171 l 589 486 q 554 528 575 508 q 507 562 533 547 q 450 585 481 576 q 389 594 419 594 q 299 576 339 594 q 231 523 258 557 q 188 442 203 489 q 174 339 174 394 q 188 237 174 283 q 231 156 203 190 q 299 103 258 122 q 389 83 339 83 z "},"h":{"ha":767,"x_min":104,"x_max":663,"o":"m 558 0 l 558 442 q 547 515 558 486 q 517 563 536 544 q 469 588 497 581 q 407 594 440 594 q 347 586 376 594 q 292 563 318 578 q 245 530 267 549 q 208 490 224 511 l 208 0 l 104 0 l 104 926 l 208 926 l 208 574 q 251 615 226 594 q 308 651 276 635 q 375 678 339 668 q 449 688 411 688 q 608 635 554 688 q 663 474 663 583 l 663 0 l 558 0 z "},"i":{"ha":313,"x_min":86,"x_max":226,"o":"m 156 767 q 107 787 128 767 q 86 836 86 807 q 107 886 86 865 q 156 907 128 907 q 206 886 185 907 q 226 836 226 865 q 206 787 226 807 q 156 767 185 767 m 104 0 l 104 671 l 208 671 l 208 0 l 104 0 z "},"j":{"ha":313,"x_min":-137,"x_max":226,"o":"m 156 767 q 107 787 128 767 q 86 836 86 807 q 107 886 86 865 q 156 907 128 907 q 206 886 185 907 q 226 836 226 865 q 206 787 226 807 q 156 767 185 767 m 10 -272 q -74 -260 -42 -272 q -137 -222 -106 -247 l -100 -143 q -59 -174 -82 -161 q -4 -186 -36 -186 q 74 -158 43 -186 q 104 -65 104 -129 l 104 671 l 208 671 l 208 -65 q 157 -219 208 -165 q 10 -272 106 -272 z "},"k":{"ha":714,"x_min":104,"x_max":694,"o":"m 561 0 l 319 301 l 208 192 l 208 0 l 104 0 l 104 926 l 208 926 l 208 314 l 561 671 l 693 671 l 396 367 l 694 0 l 561 0 z "},"l":{"ha":313,"x_min":104,"x_max":208,"o":"m 104 0 l 104 926 l 208 926 l 208 0 l 104 0 z "},"m":{"ha":1122,"x_min":104,"x_max":1018,"o":"m 914 0 l 914 456 q 885 557 914 519 q 790 594 856 594 q 688 563 738 594 q 613 492 639 532 l 613 0 l 508 0 l 508 456 q 480 557 508 519 q 385 594 451 594 q 285 563 333 594 q 208 490 236 531 l 208 0 l 104 0 l 104 671 l 208 671 l 208 574 q 240 610 218 590 q 290 647 261 629 q 353 676 319 664 q 425 688 388 688 q 547 651 503 688 q 606 563 590 615 q 643 608 619 585 q 696 648 667 631 q 760 676 725 665 q 831 688 794 688 q 970 637 922 688 q 1018 485 1018 586 l 1018 0 l 914 0 z "},"n":{"ha":765,"x_min":104,"x_max":661,"o":"m 557 0 l 557 439 q 516 561 557 528 q 407 594 475 594 q 347 586 376 594 q 292 563 318 578 q 244 530 265 549 q 208 490 222 511 l 208 0 l 104 0 l 104 671 l 208 671 l 208 574 q 251 615 226 594 q 308 651 276 635 q 374 678 339 668 q 447 688 410 688 q 661 471 661 688 l 661 0 l 557 0 z "},"o":{"ha":794,"x_min":65,"x_max":729,"o":"m 397 -17 q 259 11 321 -17 q 154 87 197 39 q 88 199 111 135 q 65 336 65 263 q 88 473 65 408 q 154 585 111 538 q 259 660 197 632 q 397 688 321 688 q 535 660 474 688 q 640 585 597 632 q 706 473 683 538 q 729 336 729 408 q 706 199 729 263 q 640 87 683 135 q 535 11 597 39 q 397 -17 474 -17 m 397 76 q 492 98 451 76 q 562 155 533 119 q 605 238 590 190 q 619 336 619 285 q 605 434 619 388 q 562 516 590 481 q 492 573 533 551 q 397 594 451 594 q 301 573 343 594 q 231 516 260 551 q 188 434 203 481 q 174 336 174 388 q 188 238 174 285 q 231 155 203 190 q 301 98 260 119 q 397 76 343 76 z "},"p":{"ha":794,"x_min":104,"x_max":733,"o":"m 435 -17 q 307 14 365 -17 q 208 101 249 44 l 208 -256 l 104 -256 l 104 671 l 208 671 l 208 571 q 304 655 244 622 q 435 688 364 688 q 556 663 501 688 q 651 594 611 639 q 712 483 690 549 q 733 336 733 418 q 712 189 733 254 q 651 78 690 124 q 556 8 611 32 q 435 -17 501 -17 m 408 76 q 499 96 458 76 q 567 150 539 115 q 609 233 594 185 q 624 336 624 281 q 609 439 624 392 q 567 521 594 486 q 499 575 539 556 q 408 594 458 594 q 291 563 346 594 q 208 488 236 532 l 208 185 q 291 108 236 140 q 408 76 346 76 z "},"q":{"ha":794,"x_min":61,"x_max":689,"o":"m 385 76 q 446 85 415 76 q 503 109 476 94 q 551 143 529 124 q 585 185 572 163 l 585 488 q 551 529 572 510 q 503 563 529 549 q 446 586 476 578 q 385 594 415 594 q 294 575 335 594 q 227 521 254 556 q 185 439 200 486 q 171 336 171 392 q 185 233 171 281 q 227 150 200 185 q 294 96 254 115 q 385 76 335 76 m 360 -17 q 238 8 293 -17 q 144 78 183 32 q 83 189 104 124 q 61 336 61 254 q 83 483 61 418 q 144 594 104 549 q 238 663 183 639 q 360 688 293 688 q 490 655 431 688 q 585 571 549 622 l 585 671 l 689 671 l 689 -256 l 585 -256 l 585 101 q 486 14 544 44 q 360 -17 428 -17 z "},"r":{"ha":458,"x_min":104,"x_max":432,"o":"m 104 0 l 104 671 l 208 671 l 208 563 q 306 650 249 615 q 432 685 363 685 l 432 578 q 390 582 413 582 q 340 573 367 582 q 287 549 313 564 q 240 515 261 533 q 208 475 219 496 l 208 0 l 104 0 z "},"s":{"ha":646,"x_min":46,"x_max":581,"o":"m 317 -17 q 165 9 233 -17 q 46 89 97 35 l 100 164 q 192 97 133 125 q 321 68 251 68 q 439 101 399 68 q 479 183 479 133 q 449 245 479 224 q 372 281 418 267 q 272 306 325 294 q 172 340 218 318 q 94 397 125 361 q 64 494 64 432 q 81 569 64 533 q 129 631 97 604 q 208 672 161 657 q 314 688 254 688 q 461 659 400 688 q 563 590 522 631 l 514 518 q 431 578 483 554 q 314 603 379 603 q 205 572 244 603 q 165 497 165 542 q 196 442 165 461 q 273 409 226 422 q 373 384 319 396 q 473 350 426 372 q 550 290 519 328 q 581 186 581 251 q 564 107 581 144 q 514 42 547 69 q 431 -1 481 15 q 317 -17 382 -17 z "},"t":{"ha":408,"x_min":14,"x_max":399,"o":"m 274 -17 q 162 24 199 -17 q 125 140 125 65 l 125 579 l 14 579 l 14 671 l 125 671 l 125 854 l 229 854 l 229 671 l 365 671 l 365 579 l 229 579 l 229 163 q 246 101 229 125 q 297 76 263 76 q 338 85 319 76 q 368 104 357 93 l 399 26 q 349 -5 379 7 q 274 -17 319 -17 z "},"u":{"ha":765,"x_min":104,"x_max":661,"o":"m 557 0 l 557 94 q 456 17 518 50 q 318 -17 393 -17 q 158 35 213 -17 q 104 197 104 88 l 104 671 l 208 671 l 208 229 q 219 156 208 185 q 249 108 229 126 q 297 83 269 90 q 358 76 325 76 q 474 107 419 76 q 557 178 528 138 l 557 671 l 661 671 l 661 0 l 557 0 z "},"v":{"ha":681,"x_min":4,"x_max":676,"o":"m 283 0 l 4 671 l 117 671 l 340 121 l 563 671 l 676 671 l 397 0 l 283 0 z "},"w":{"ha":1019,"x_min":17,"x_max":1003,"o":"m 685 0 l 510 539 l 335 0 l 231 0 l 17 671 l 125 671 l 289 136 l 465 671 l 554 671 l 731 136 l 894 671 l 1003 671 l 789 0 l 685 0 z "},"x":{"ha":675,"x_min":17,"x_max":660,"o":"m 539 0 l 338 275 l 136 0 l 17 0 l 274 344 l 31 671 l 151 671 l 338 415 l 524 671 l 644 671 l 401 344 l 660 0 l 539 0 z "},"y":{"ha":681,"x_min":4,"x_max":676,"o":"m 83 -168 q 111 -176 94 -174 q 140 -179 128 -179 q 199 -165 175 -179 q 240 -108 222 -150 l 285 -7 l 4 671 l 117 671 l 340 121 l 563 671 l 676 671 l 340 -136 q 260 -240 310 -210 q 143 -272 210 -271 q 104 -269 126 -272 q 67 -262 82 -267 l 83 -168 z "},"z":{"ha":656,"x_min":72,"x_max":583,"o":"m 72 0 l 72 81 l 442 579 l 72 579 l 72 671 l 578 671 l 578 592 l 206 90 l 583 90 l 583 0 l 72 0 z "},"{":{"ha":361,"x_min":7,"x_max":338,"o":"m 253 -264 q 188 -251 219 -264 q 133 -213 157 -237 q 94 -155 108 -189 q 79 -78 79 -121 l 79 208 q 61 276 79 247 q 7 304 43 304 l 7 374 q 61 402 43 374 q 79 469 79 431 l 79 754 q 94 832 79 797 q 133 891 108 867 q 188 928 157 915 q 253 942 219 942 l 338 942 l 338 865 l 253 865 q 188 834 215 865 q 161 754 161 803 l 161 461 q 147 385 161 417 q 97 339 132 354 q 147 292 132 324 q 161 217 161 261 l 161 -76 q 188 -156 161 -125 q 253 -187 215 -187 l 338 -187 l 338 -264 l 253 -264 z "},"|":{"ha":293,"x_min":108,"x_max":185,"o":"m 108 -28 l 108 954 l 185 954 l 185 -28 l 108 -28 z "},"}":{"ha":361,"x_min":24,"x_max":354,"o":"m 24 -187 l 108 -187 q 173 -156 146 -187 q 200 -76 200 -125 l 200 217 q 215 292 200 261 q 264 339 229 324 q 215 385 229 354 q 200 461 200 417 l 200 754 q 173 834 200 803 q 108 865 146 865 l 24 865 l 24 942 l 108 942 q 173 928 142 942 q 228 891 204 915 q 267 832 253 867 q 282 754 282 797 l 282 469 q 300 402 282 431 q 354 374 318 374 l 354 304 q 300 276 318 304 q 282 208 282 247 l 282 -78 q 267 -155 282 -121 q 228 -213 253 -189 q 173 -251 204 -237 q 108 -264 142 -264 l 24 -264 l 24 -187 z "},"~":{"ha":699,"x_min":38,"x_max":660,"o":"m 660 917 q 643 795 654 854 q 610 690 632 736 q 554 615 589 643 q 468 588 519 588 q 398 607 425 588 q 353 656 371 626 q 324 719 335 685 q 300 783 313 754 q 272 832 288 813 q 229 851 256 851 q 185 832 204 851 q 152 777 165 813 q 130 693 139 742 q 115 586 121 644 l 38 596 q 55 718 43 658 q 88 824 67 778 q 144 897 110 869 q 229 925 178 925 q 300 906 272 925 q 345 856 328 886 q 374 792 363 826 q 398 728 386 758 q 426 679 410 699 q 468 660 442 660 q 513 679 493 660 q 545 734 532 699 q 567 818 558 769 q 582 926 576 867 l 660 917 z "}," ":{"ha":358,"x_min":0,"x_max":0,"o":""},"¡":{"ha":319,"x_min":83,"x_max":236,"o":"m 117 411 l 203 411 l 225 -256 l 96 -256 l 117 411 m 83 608 q 106 662 83 639 q 160 685 128 685 q 214 662 192 685 q 236 608 236 639 q 214 554 236 576 q 160 532 192 532 q 106 554 128 532 q 83 608 83 576 z "},"¢":{"ha":688,"x_min":65,"x_max":646,"o":"m 350 -12 q 233 26 285 -4 q 143 101 181 56 q 85 207 106 147 q 65 336 65 267 q 85 463 65 404 q 143 568 106 522 q 233 644 181 614 q 350 683 285 675 l 350 785 l 432 785 l 432 686 q 560 647 510 679 q 646 571 610 615 l 576 507 q 511 567 547 547 q 432 593 475 588 l 432 78 q 576 164 519 86 l 646 100 q 560 23 610 54 q 432 -15 510 -8 l 432 -139 l 350 -139 l 350 -12 m 174 336 q 220 170 174 239 q 350 82 267 101 l 350 588 q 220 500 267 568 q 174 336 174 432 z "},"£":{"ha":719,"x_min":26,"x_max":706,"o":"m 26 447 l 174 447 q 135 492 154 469 q 101 541 117 515 q 76 598 86 567 q 67 667 67 629 q 92 774 67 724 q 159 860 117 824 q 258 919 201 897 q 378 940 314 940 q 547 900 474 940 q 658 785 619 860 l 565 729 q 500 808 547 774 q 389 843 453 843 q 313 831 349 843 q 250 795 278 818 q 206 740 222 772 q 190 665 190 707 q 201 598 190 628 q 229 542 213 568 q 265 494 246 517 q 303 447 285 471 l 511 447 l 511 372 l 342 372 q 349 344 346 358 q 351 313 351 329 q 320 204 351 249 q 246 129 289 160 q 280 138 261 135 q 318 142 299 142 q 376 133 351 142 q 424 113 401 124 q 471 94 447 103 q 524 85 494 85 q 605 103 569 85 q 656 140 640 121 l 706 47 q 631 1 676 19 q 518 -18 585 -18 q 441 -8 471 -18 q 386 14 411 1 q 335 36 361 26 q 269 46 308 46 q 192 30 233 46 q 106 -10 150 14 l 64 76 q 201 172 153 117 q 249 289 249 226 q 243 333 249 313 q 228 372 238 353 l 26 372 l 26 447 z "},"¤":{"ha":831,"x_min":38,"x_max":790,"o":"m 415 129 q 301 147 353 129 q 208 194 249 164 l 104 89 l 39 151 l 146 258 q 99 353 115 301 q 83 463 83 404 q 99 573 83 521 q 147 667 115 625 l 38 776 l 103 840 l 211 731 q 302 778 251 761 q 415 794 353 794 q 527 778 476 794 q 618 731 578 761 l 726 839 l 790 775 l 682 667 q 731 573 714 625 q 747 463 747 521 q 731 352 747 404 q 683 257 714 300 l 790 151 l 726 89 l 619 193 q 528 146 579 163 q 415 129 478 129 m 415 224 q 512 243 469 224 q 583 296 554 263 q 626 372 611 329 q 640 463 640 415 q 626 551 640 508 q 583 627 611 594 q 512 679 554 660 q 415 699 469 699 q 319 679 361 699 q 249 627 278 660 q 205 551 219 594 q 190 463 190 508 q 205 372 190 415 q 249 296 219 329 q 319 243 278 263 q 415 224 361 224 z "},"¥":{"ha":869,"x_min":13,"x_max":857,"o":"m 378 0 l 378 169 l 31 169 l 31 243 l 378 243 l 378 392 l 31 392 l 31 464 l 328 464 l 13 926 l 147 926 l 435 496 l 722 926 l 857 926 l 542 464 l 840 464 l 840 392 l 493 392 l 493 243 l 840 243 l 840 169 l 493 169 l 493 0 l 378 0 z "},"¦":{"ha":293,"x_min":108,"x_max":185,"o":"m 108 -28 l 108 411 l 185 411 l 185 -28 l 108 -28 m 108 515 l 108 954 l 185 954 l 185 515 l 108 515 z "},"§":{"ha":650,"x_min":47,"x_max":581,"o":"m 581 438 q 549 333 581 379 q 453 260 517 288 q 546 199 511 238 q 581 92 581 160 q 561 5 581 43 q 507 -59 542 -33 q 424 -99 472 -85 q 317 -112 375 -112 q 225 -103 265 -112 q 153 -80 185 -94 q 95 -45 121 -65 q 47 -4 69 -25 l 100 64 q 187 -5 132 26 q 317 -36 242 -36 q 434 -5 389 -36 q 479 85 479 26 q 449 151 479 128 q 372 188 418 174 q 272 215 325 203 q 172 249 218 228 q 94 306 125 269 q 64 403 64 342 q 77 469 64 440 q 113 520 90 499 q 163 557 135 542 q 224 581 192 572 q 107 643 150 604 q 64 751 64 682 q 81 824 64 790 q 129 884 97 858 q 208 925 161 910 q 314 940 254 940 q 468 910 408 940 q 561 842 528 881 l 514 779 q 424 842 478 822 q 317 863 371 863 q 208 833 250 863 q 165 751 165 803 q 196 692 165 713 q 273 658 226 671 q 373 634 319 646 q 473 600 426 622 q 550 540 519 578 q 581 438 581 503 m 478 424 q 464 475 478 454 q 428 510 450 496 q 378 535 406 525 q 321 551 350 544 q 198 493 231 528 q 165 414 165 458 q 182 363 165 383 q 226 329 199 343 q 290 306 254 315 q 363 288 325 297 q 448 343 418 311 q 478 424 478 375 z "},"¨":{"ha":378,"x_min":-19,"x_max":397,"o":"m 397 839 q 378 792 397 811 q 332 774 358 774 q 286 792 306 774 q 267 839 267 811 q 286 884 267 865 q 332 903 306 903 q 378 884 358 903 q 397 839 397 865 m 110 839 q 91 792 110 811 q 46 774 72 774 q -1 792 18 774 q -19 839 -19 811 q -1 884 -19 865 q 46 903 18 903 q 91 884 72 903 q 110 839 110 865 z "},"©":{"ha":1081,"x_min":61,"x_max":1019,"o":"m 1019 464 q 982 278 1019 365 q 879 125 944 190 q 727 22 814 60 q 540 -15 640 -15 q 354 22 442 -15 q 201 125 267 60 q 99 278 136 190 q 61 464 61 365 q 99 651 61 564 q 201 803 136 738 q 354 906 267 868 q 540 943 442 943 q 727 906 640 943 q 879 803 814 868 q 982 651 944 738 q 1019 464 1019 564 m 976 464 q 942 633 976 554 q 849 772 908 713 q 710 866 789 832 q 540 900 631 900 q 371 866 450 900 q 232 772 292 832 q 138 633 172 713 q 104 464 104 554 q 138 294 104 374 q 232 156 172 215 q 371 62 292 96 q 540 28 450 28 q 710 62 631 28 q 849 156 789 96 q 942 294 908 215 q 976 464 976 374 m 747 260 q 659 192 710 215 q 543 168 608 168 q 431 191 483 168 q 339 253 378 214 q 277 347 300 293 q 254 465 254 401 q 277 583 254 529 q 339 677 300 638 q 431 739 378 717 q 543 761 483 761 q 659 737 608 761 q 746 669 710 713 l 711 636 q 638 694 683 672 q 543 715 592 715 q 453 697 496 715 q 377 647 410 679 q 325 567 344 614 q 306 465 306 521 q 325 365 306 411 q 377 285 344 318 q 453 233 410 251 q 543 214 496 214 q 638 236 593 214 q 711 294 683 258 l 747 260 z "},"ª":{"ha":525,"x_min":57,"x_max":440,"o":"m 361 453 l 361 501 q 299 458 336 474 q 213 442 263 442 q 156 451 183 442 q 106 479 128 461 q 71 524 85 497 q 57 586 57 551 q 71 649 57 622 q 106 694 85 676 q 156 720 128 711 q 213 729 183 729 q 299 713 263 729 q 361 671 336 697 l 361 747 q 328 814 361 790 q 251 838 296 838 q 179 822 215 838 q 114 774 143 807 l 79 825 q 261 900 151 900 q 330 892 297 900 q 387 865 363 883 q 426 817 411 847 q 440 746 440 788 l 440 453 l 361 453 m 243 494 q 310 508 279 494 q 361 547 342 522 l 361 625 q 310 664 342 650 q 243 678 279 678 q 167 652 197 678 q 138 586 138 626 q 167 519 138 544 q 243 494 197 494 z "},"«":{"ha":610,"x_min":42,"x_max":568,"o":"m 464 88 l 242 338 l 464 583 l 568 583 l 346 338 l 568 88 l 464 88 m 264 88 l 42 338 l 264 583 l 368 583 l 146 338 l 368 88 l 264 88 z "},"¬":{"ha":700,"x_min":40,"x_max":653,"o":"m 653 293 l 576 293 l 576 561 l 40 561 l 40 635 l 653 635 l 653 293 z "},"­":{"ha":417,"x_min":42,"x_max":375,"o":"m 42 290 l 42 382 l 375 382 l 375 290 l 42 290 z "},"®":{"ha":686,"x_min":49,"x_max":638,"o":"m 638 646 q 615 531 638 585 q 552 438 592 478 q 458 374 513 397 q 343 351 404 351 q 228 374 282 351 q 135 438 175 397 q 72 531 94 478 q 49 646 49 585 q 72 761 49 707 q 135 855 94 815 q 228 917 175 894 q 343 940 282 940 q 458 917 404 940 q 552 855 513 894 q 615 761 592 815 q 638 646 638 707 m 597 646 q 577 745 597 699 q 523 826 557 792 q 442 880 489 860 q 343 900 396 900 q 244 880 290 900 q 163 826 197 860 q 108 745 128 792 q 88 646 88 699 q 108 547 88 593 q 163 465 128 500 q 244 410 197 431 q 343 390 290 390 q 442 410 396 390 q 523 465 489 431 q 577 547 557 500 q 597 646 597 593 m 424 476 l 336 610 l 275 610 l 275 476 l 231 476 l 231 814 l 368 814 q 443 786 411 814 q 475 711 475 758 q 465 664 475 683 q 440 633 454 644 q 410 616 425 621 q 389 611 396 611 l 479 476 l 424 476 m 429 711 q 410 757 429 739 q 368 775 390 775 l 275 775 l 275 650 l 368 650 q 410 667 390 650 q 429 711 429 685 z "},"¯":{"ha":504,"x_min":0,"x_max":504,"o":"m 0 794 l 0 861 l 504 861 l 504 794 l 0 794 z "},"°":{"ha":403,"x_min":32,"x_max":371,"o":"m 371 771 q 358 704 371 735 q 321 651 344 674 q 266 615 297 628 q 200 601 235 601 q 135 615 165 601 q 81 651 104 628 q 45 704 58 674 q 32 771 32 735 q 45 837 32 806 q 81 891 58 868 q 135 927 104 914 q 200 940 165 940 q 266 927 235 940 q 321 891 297 914 q 358 837 344 868 q 371 771 371 806 m 304 771 q 274 843 304 813 q 200 874 243 874 q 129 843 158 874 q 100 771 100 813 q 129 698 100 728 q 200 668 158 668 q 274 698 243 668 q 304 771 304 728 z "},"±":{"ha":693,"x_min":40,"x_max":653,"o":"m 386 450 l 386 153 l 307 153 l 307 450 l 40 450 l 40 522 l 307 522 l 307 810 l 386 810 l 386 522 l 653 522 l 653 450 l 386 450 m 40 0 l 40 72 l 653 72 l 653 0 l 40 0 z "},"²":{"ha":539,"x_min":68,"x_max":474,"o":"m 69 585 l 69 647 q 208 750 149 704 q 308 835 268 796 q 367 910 347 875 q 388 979 388 946 q 378 1025 388 1006 q 351 1057 368 1044 q 313 1075 335 1069 q 269 1081 292 1081 q 176 1059 217 1081 q 114 1008 136 1038 l 68 1061 q 158 1127 103 1106 q 272 1149 213 1149 q 346 1139 310 1149 q 410 1109 382 1129 q 454 1058 438 1089 q 471 985 471 1026 q 450 902 471 943 q 392 821 429 861 q 304 739 356 781 q 192 653 253 697 l 474 653 l 474 585 l 69 585 z "},"³":{"ha":539,"x_min":58,"x_max":476,"o":"m 476 736 q 420 620 476 665 q 267 575 364 575 q 139 601 192 575 q 58 665 86 628 l 103 718 q 173 663 131 683 q 264 643 215 643 q 359 669 325 643 q 393 740 393 696 q 351 815 393 793 q 249 836 310 836 q 215 836 229 836 q 193 835 200 836 l 193 904 q 215 903 200 903 q 247 903 231 903 q 344 923 306 903 q 383 992 383 943 q 347 1058 383 1035 q 260 1081 311 1081 q 108 1013 171 1081 l 65 1063 q 147 1124 97 1099 q 267 1149 197 1149 q 411 1109 356 1149 q 467 1000 467 1069 q 455 947 467 969 q 425 909 443 925 q 385 884 407 893 q 343 871 364 875 q 386 860 363 869 q 430 835 410 851 q 463 794 450 818 q 476 736 476 769 z "},"´":{"ha":314,"x_min":0,"x_max":314,"o":"m 79 772 l 0 772 l 206 972 l 314 972 l 79 772 z "},"µ":{"ha":785,"x_min":104,"x_max":761,"o":"m 208 -256 l 104 -256 l 104 671 l 208 671 l 208 229 q 249 110 208 146 q 361 74 290 74 q 419 82 390 74 q 474 105 449 90 q 521 138 500 119 q 557 178 542 157 l 557 671 l 661 671 l 661 157 q 678 99 661 121 q 726 76 694 76 q 753 79 742 76 l 761 -11 q 735 -15 750 -14 q 706 -17 721 -17 q 606 15 639 -17 q 561 103 572 47 q 469 19 525 54 q 349 -17 414 -17 q 256 3 289 -17 q 208 50 224 22 l 208 -256 z "},"¶":{"ha":624,"x_min":38,"x_max":525,"o":"m 463 -139 l 463 864 l 339 864 l 339 -139 l 276 -139 l 276 449 q 183 467 226 449 q 108 519 140 486 q 56 594 75 551 q 38 688 38 638 q 56 781 38 738 q 108 856 75 824 q 183 908 140 889 q 276 926 226 926 l 525 926 l 525 -139 l 463 -139 z "},"·":{"ha":319,"x_min":83,"x_max":236,"o":"m 236 339 q 214 286 236 308 q 160 264 192 264 q 106 286 128 264 q 83 339 83 308 q 106 393 83 371 q 160 415 128 415 q 214 393 192 415 q 236 339 236 371 z "},"¸":{"ha":285,"x_min":0,"x_max":285,"o":"m 140 -265 q 58 -253 96 -265 q 0 -224 21 -240 l 26 -171 q 81 -201 51 -192 q 138 -211 110 -211 q 197 -196 171 -211 q 222 -153 222 -181 q 210 -117 222 -131 q 171 -104 197 -104 q 118 -128 139 -104 l 72 -101 l 115 15 l 178 15 l 142 -76 q 193 -61 164 -61 q 259 -86 233 -61 q 285 -154 285 -111 q 242 -235 285 -206 q 140 -265 200 -265 z "},"¹":{"ha":326,"x_min":19,"x_max":243,"o":"m 160 585 l 160 1032 l 68 936 l 19 988 l 169 1140 l 243 1140 l 243 585 l 160 585 z "},"º":{"ha":563,"x_min":56,"x_max":507,"o":"m 281 442 q 188 460 229 442 q 117 509 146 478 q 72 582 88 540 q 56 671 56 624 q 72 760 56 718 q 117 833 88 801 q 188 882 146 864 q 281 900 229 900 q 375 882 333 900 q 446 833 417 864 q 491 760 475 801 q 507 671 507 718 q 491 582 507 624 q 446 509 475 540 q 375 460 417 478 q 281 442 333 442 m 281 508 q 388 555 350 508 q 425 671 425 601 q 388 785 425 739 q 281 831 350 831 q 176 785 213 831 q 139 671 139 739 q 176 555 139 601 q 281 508 213 508 z "},"»":{"ha":610,"x_min":42,"x_max":568,"o":"m 146 88 l 42 88 l 264 338 l 42 583 l 146 583 l 368 338 l 146 88 m 346 88 l 242 88 l 464 338 l 242 583 l 346 583 l 568 338 l 346 88 z "},"¼":{"ha":1069,"x_min":19,"x_max":1018,"o":"m 160 371 l 160 818 l 68 722 l 19 774 l 169 926 l 243 926 l 243 371 l 160 371 m 938 139 l 938 0 l 856 0 l 856 139 l 583 139 l 583 200 l 822 556 l 938 556 l 938 207 l 1018 207 l 1018 139 l 938 139 m 856 482 l 667 207 l 856 207 l 856 482 m 226 0 l 150 0 l 742 926 l 819 926 l 226 0 z "},"½":{"ha":1121,"x_min":19,"x_max":1054,"o":"m 160 371 l 160 818 l 68 722 l 19 774 l 169 926 l 243 926 l 243 371 l 160 371 m 650 0 l 650 63 q 789 165 729 119 q 888 251 849 211 q 948 326 928 290 q 968 394 968 361 q 958 440 968 421 q 932 472 949 460 q 894 490 915 485 q 850 496 872 496 q 757 474 797 496 q 694 424 717 453 l 649 476 q 738 542 683 521 q 853 564 793 564 q 926 554 890 564 q 990 524 963 544 q 1035 473 1018 504 q 1051 400 1051 442 q 1031 317 1051 358 q 973 236 1010 276 q 885 154 936 196 q 772 68 833 113 l 1054 68 l 1054 0 l 650 0 m 226 0 l 150 0 l 742 926 l 819 926 l 226 0 z "},"¾":{"ha":1219,"x_min":58,"x_max":1169,"o":"m 1089 139 l 1089 0 l 1007 0 l 1007 139 l 735 139 l 735 200 l 974 556 l 1089 556 l 1089 207 l 1169 207 l 1169 139 l 1089 139 m 1007 482 l 818 207 l 1007 207 l 1007 482 m 376 0 l 300 0 l 892 926 l 969 926 l 376 0 m 476 522 q 420 406 476 451 q 267 361 364 361 q 139 388 192 361 q 58 451 86 414 l 103 504 q 173 449 131 469 q 264 429 215 429 q 359 456 325 429 q 393 526 393 482 q 351 601 393 579 q 249 622 310 622 q 215 622 229 622 q 193 621 200 622 l 193 690 q 215 689 200 689 q 247 689 231 689 q 344 709 306 689 q 383 778 383 729 q 347 844 383 821 q 260 867 311 867 q 108 799 171 867 l 65 849 q 147 910 97 885 q 267 935 197 935 q 411 895 356 935 q 467 786 467 856 q 455 733 467 756 q 425 695 443 711 q 385 670 407 679 q 343 657 364 661 q 386 647 363 656 q 430 621 410 638 q 463 580 450 604 q 476 522 476 556 z "},"¿":{"ha":547,"x_min":43,"x_max":615,"o":"m 358 411 q 413 297 413 363 q 394 221 413 253 q 347 164 375 189 q 288 117 319 139 q 228 73 256 96 q 181 23 200 50 q 163 -42 163 -4 q 203 -131 163 -93 q 325 -169 243 -169 q 456 -139 404 -169 q 547 -57 508 -108 l 615 -131 q 490 -235 565 -197 q 315 -272 415 -272 q 201 -256 251 -272 q 116 -210 151 -239 q 62 -141 81 -181 q 43 -57 43 -101 q 63 33 43 -4 q 113 100 83 71 q 177 153 142 129 q 242 199 213 176 q 291 247 271 222 q 311 307 311 272 q 301 342 311 324 q 275 374 292 361 l 358 411 m 331 685 q 385 662 363 685 q 407 607 407 639 q 385 554 407 576 q 331 532 363 532 q 276 554 299 532 q 254 607 254 576 q 276 662 254 639 q 331 685 299 685 z "},"À":{"ha":914,"x_min":13,"x_max":901,"o":"m 769 0 l 688 206 l 226 206 l 144 0 l 13 0 l 385 926 l 528 926 l 901 0 l 769 0 m 457 807 l 260 308 l 653 308 l 457 807 m 457 1004 l 222 1204 l 331 1204 l 536 1004 l 457 1004 z "},"Á":{"ha":914,"x_min":13,"x_max":901,"o":"m 769 0 l 688 206 l 226 206 l 144 0 l 13 0 l 385 926 l 528 926 l 901 0 l 769 0 m 457 807 l 260 308 l 653 308 l 457 807 m 457 1004 l 378 1004 l 583 1204 l 692 1204 l 457 1004 z "},"Â":{"ha":914,"x_min":13,"x_max":901,"o":"m 572 1004 l 457 1151 l 346 1004 l 275 1004 l 407 1204 l 507 1204 l 643 1004 l 572 1004 m 769 0 l 688 206 l 226 206 l 144 0 l 13 0 l 385 926 l 528 926 l 901 0 l 769 0 m 457 807 l 260 308 l 653 308 l 457 807 z "},"Ã":{"ha":914,"x_min":13,"x_max":901,"o":"m 769 0 l 688 206 l 226 206 l 144 0 l 13 0 l 385 926 l 528 926 l 901 0 l 769 0 m 457 807 l 260 308 l 653 308 l 457 807 m 540 1001 q 481 1022 503 1001 q 442 1065 458 1042 q 410 1109 425 1089 q 369 1129 394 1129 q 322 1101 342 1129 q 303 1010 303 1072 l 240 1010 q 274 1144 240 1092 q 375 1196 308 1196 q 435 1176 413 1196 q 473 1132 457 1156 q 505 1088 489 1108 q 546 1068 521 1068 q 593 1097 574 1068 q 613 1188 613 1125 l 675 1188 q 641 1053 675 1106 q 540 1001 607 1001 z "},"Ä":{"ha":914,"x_min":13,"x_max":901,"o":"m 667 1071 q 647 1024 667 1043 q 601 1006 628 1006 q 556 1024 575 1006 q 536 1071 536 1043 q 556 1116 536 1097 q 601 1135 575 1135 q 647 1116 628 1135 q 667 1071 667 1097 m 379 1071 q 360 1024 379 1043 q 315 1006 342 1006 q 269 1024 288 1006 q 250 1071 250 1043 q 269 1116 250 1097 q 315 1135 288 1135 q 360 1116 342 1135 q 379 1071 379 1097 m 769 0 l 688 206 l 226 206 l 144 0 l 13 0 l 385 926 l 528 926 l 901 0 l 769 0 m 457 807 l 260 308 l 653 308 l 457 807 z "},"Å":{"ha":914,"x_min":13,"x_max":901,"o":"m 769 0 l 688 206 l 226 206 l 144 0 l 13 0 l 385 926 l 528 926 l 901 0 l 769 0 m 457 807 l 260 308 l 653 308 l 457 807 m 457 958 q 360 998 400 958 q 321 1094 321 1038 q 331 1147 321 1122 q 360 1191 342 1172 q 404 1221 379 1210 q 457 1232 429 1232 q 510 1221 485 1232 q 553 1191 535 1210 q 583 1147 572 1172 q 593 1094 593 1122 q 553 998 593 1038 q 457 958 514 958 m 457 1013 q 515 1037 492 1013 q 538 1094 538 1061 q 515 1153 538 1129 q 457 1176 492 1176 q 400 1153 424 1176 q 376 1094 376 1129 q 400 1037 376 1061 q 457 1013 424 1013 z "},"Æ":{"ha":1315,"x_min":10,"x_max":1240,"o":"m 633 0 l 633 206 l 268 206 l 142 0 l 10 0 l 588 926 l 1240 926 l 1240 824 l 749 824 l 749 525 l 1231 525 l 1231 422 l 749 422 l 749 103 l 1240 103 l 1240 0 l 633 0 m 633 807 l 325 308 l 633 308 l 633 807 z "},"Ç":{"ha":939,"x_min":71,"x_max":900,"o":"m 539 -260 q 457 -247 494 -260 q 399 -218 419 -235 l 425 -165 q 479 -196 450 -186 q 536 -206 508 -206 q 595 -190 569 -206 q 621 -147 621 -175 q 608 -112 621 -125 q 569 -99 596 -99 q 517 -122 538 -99 l 471 -96 l 500 -14 q 330 32 408 -6 q 194 132 251 69 q 103 278 136 194 q 71 463 71 363 q 108 658 71 569 q 209 809 144 746 q 360 907 274 872 q 547 942 447 942 q 660 928 608 942 q 756 889 713 914 q 835 831 800 864 q 899 758 871 797 l 801 704 q 694 801 761 763 q 547 839 626 839 q 406 811 471 839 q 292 733 340 783 q 217 615 244 683 q 190 463 190 546 q 217 311 190 381 q 292 192 244 242 q 406 114 340 142 q 547 86 471 86 q 694 124 626 86 q 801 221 761 161 l 900 167 q 837 95 871 128 q 761 38 803 63 q 669 -1 719 14 q 561 -17 619 -15 l 540 -71 q 592 -56 563 -56 q 658 -81 632 -56 q 683 -149 683 -106 q 641 -230 683 -200 q 539 -260 599 -260 z "},"È":{"ha":790,"x_min":108,"x_max":715,"o":"m 108 0 l 108 926 l 715 926 l 715 824 l 224 824 l 224 525 l 706 525 l 706 422 l 224 422 l 224 103 l 715 103 l 715 0 l 108 0 m 411 1004 l 176 1204 l 285 1204 l 490 1004 l 411 1004 z "},"É":{"ha":790,"x_min":108,"x_max":715,"o":"m 411 1004 l 332 1004 l 538 1204 l 646 1204 l 411 1004 m 108 0 l 108 926 l 715 926 l 715 824 l 224 824 l 224 525 l 706 525 l 706 422 l 224 422 l 224 103 l 715 103 l 715 0 l 108 0 z "},"Ê":{"ha":790,"x_min":108,"x_max":715,"o":"m 524 1004 l 408 1151 l 297 1004 l 226 1004 l 358 1204 l 458 1204 l 594 1004 l 524 1004 m 108 0 l 108 926 l 715 926 l 715 824 l 224 824 l 224 525 l 706 525 l 706 422 l 224 422 l 224 103 l 715 103 l 715 0 l 108 0 z "},"Ë":{"ha":790,"x_min":108,"x_max":715,"o":"m 619 1071 q 600 1024 619 1043 q 554 1006 581 1006 q 508 1024 528 1006 q 489 1071 489 1043 q 508 1116 489 1097 q 554 1135 528 1135 q 600 1116 581 1135 q 619 1071 619 1097 m 332 1071 q 313 1024 332 1043 q 268 1006 294 1006 q 222 1024 240 1006 q 203 1071 203 1043 q 222 1116 203 1097 q 268 1135 240 1135 q 313 1116 294 1135 q 332 1071 332 1097 m 108 0 l 108 926 l 715 926 l 715 824 l 224 824 l 224 525 l 706 525 l 706 422 l 224 422 l 224 103 l 715 103 l 715 0 l 108 0 z "},"Ì":{"ha":332,"x_min":-68,"x_max":246,"o":"m 108 0 l 108 926 l 224 926 l 224 0 l 108 0 m 167 1004 l -68 1204 l 40 1204 l 246 1004 l 167 1004 z "},"Í":{"ha":332,"x_min":88,"x_max":401,"o":"m 108 0 l 108 926 l 224 926 l 224 0 l 108 0 m 167 1004 l 88 1004 l 293 1204 l 401 1204 l 167 1004 z "},"Î":{"ha":332,"x_min":-15,"x_max":353,"o":"m 282 1004 l 167 1151 l 56 1004 l -15 1004 l 117 1204 l 217 1204 l 353 1004 l 282 1004 m 108 0 l 108 926 l 224 926 l 224 0 l 108 0 z "},"Ï":{"ha":332,"x_min":-40,"x_max":376,"o":"m 376 1071 q 357 1024 376 1043 q 311 1006 338 1006 q 265 1024 285 1006 q 246 1071 246 1043 q 265 1116 246 1097 q 311 1135 285 1135 q 357 1116 338 1135 q 376 1071 376 1097 m 89 1071 q 70 1024 89 1043 q 25 1006 51 1006 q -22 1024 -3 1006 q -40 1071 -40 1043 q -22 1116 -40 1097 q 25 1135 -3 1135 q 70 1116 51 1135 q 89 1071 89 1097 m 108 0 l 108 926 l 224 926 l 224 0 l 108 0 z "},"Ð":{"ha":1011,"x_min":14,"x_max":939,"o":"m 147 0 l 147 415 l 14 415 l 14 500 l 147 500 l 147 926 l 464 926 q 660 891 572 926 q 809 793 747 856 q 905 646 871 731 q 939 463 939 561 q 905 279 939 364 q 809 133 871 194 q 660 35 747 71 q 464 0 572 0 l 147 0 m 464 103 q 615 131 549 103 q 726 208 681 160 q 796 322 772 257 q 819 463 819 388 q 796 603 819 538 q 727 718 772 669 q 616 795 682 767 q 464 824 550 824 l 263 824 l 263 500 l 497 500 l 497 415 l 263 415 l 263 103 l 464 103 z "},"Ñ":{"ha":983,"x_min":108,"x_max":875,"o":"m 572 1001 q 513 1022 535 1001 q 474 1065 490 1042 q 442 1109 457 1089 q 401 1129 426 1129 q 354 1101 374 1129 q 335 1010 335 1072 l 272 1010 q 306 1144 272 1092 q 407 1196 340 1196 q 467 1176 444 1196 q 505 1132 489 1156 q 537 1088 521 1108 q 578 1068 553 1068 q 625 1097 606 1068 q 644 1188 644 1125 l 707 1188 q 673 1053 707 1106 q 572 1001 639 1001 m 764 0 l 224 739 l 224 0 l 108 0 l 108 926 l 226 926 l 760 203 l 760 926 l 875 926 l 875 0 l 764 0 z "},"Ò":{"ha":1063,"x_min":71,"x_max":990,"o":"m 532 1004 l 297 1204 l 406 1204 l 611 1004 l 532 1004 m 531 -17 q 343 19 428 -17 q 198 120 258 56 q 104 272 138 185 q 71 463 71 360 q 104 653 71 565 q 198 805 138 740 q 343 906 258 869 q 531 942 428 942 q 718 906 633 942 q 863 805 803 869 q 957 653 924 740 q 990 463 990 565 q 957 272 990 360 q 863 120 924 185 q 718 19 803 56 q 531 -17 633 -17 m 531 86 q 671 115 608 86 q 778 194 733 143 q 847 313 822 244 q 871 463 871 382 q 847 613 871 543 q 778 732 822 682 q 671 810 733 782 q 531 839 608 839 q 390 810 453 839 q 282 732 326 782 q 214 613 238 682 q 190 463 190 543 q 214 313 190 382 q 282 194 238 244 q 390 115 326 143 q 531 86 453 86 z "},"Ó":{"ha":1063,"x_min":71,"x_max":990,"o":"m 532 1004 l 453 1004 l 658 1204 l 767 1204 l 532 1004 m 531 -17 q 343 19 428 -17 q 198 120 258 56 q 104 272 138 185 q 71 463 71 360 q 104 653 71 565 q 198 805 138 740 q 343 906 258 869 q 531 942 428 942 q 718 906 633 942 q 863 805 803 869 q 957 653 924 740 q 990 463 990 565 q 957 272 990 360 q 863 120 924 185 q 718 19 803 56 q 531 -17 633 -17 m 531 86 q 671 115 608 86 q 778 194 733 143 q 847 313 822 244 q 871 463 871 382 q 847 613 871 543 q 778 732 822 682 q 671 810 733 782 q 531 839 608 839 q 390 810 453 839 q 282 732 326 782 q 214 613 238 682 q 190 463 190 543 q 214 313 190 382 q 282 194 238 244 q 390 115 326 143 q 531 86 453 86 z "},"Ô":{"ha":1063,"x_min":71,"x_max":990,"o":"m 647 1004 l 532 1151 l 421 1004 l 350 1004 l 482 1204 l 582 1204 l 718 1004 l 647 1004 m 531 -17 q 343 19 428 -17 q 198 120 258 56 q 104 272 138 185 q 71 463 71 360 q 104 653 71 565 q 198 805 138 740 q 343 906 258 869 q 531 942 428 942 q 718 906 633 942 q 863 805 803 869 q 957 653 924 740 q 990 463 990 565 q 957 272 990 360 q 863 120 924 185 q 718 19 803 56 q 531 -17 633 -17 m 531 86 q 671 115 608 86 q 778 194 733 143 q 847 313 822 244 q 871 463 871 382 q 847 613 871 543 q 778 732 822 682 q 671 810 733 782 q 531 839 608 839 q 390 810 453 839 q 282 732 326 782 q 214 613 238 682 q 190 463 190 543 q 214 313 190 382 q 282 194 238 244 q 390 115 326 143 q 531 86 453 86 z "},"Õ":{"ha":1063,"x_min":71,"x_max":990,"o":"m 531 -17 q 343 19 428 -17 q 198 120 258 56 q 104 272 138 185 q 71 463 71 360 q 104 653 71 565 q 198 805 138 740 q 343 906 258 869 q 531 942 428 942 q 718 906 633 942 q 863 805 803 869 q 957 653 924 740 q 990 463 990 565 q 957 272 990 360 q 863 120 924 185 q 718 19 803 56 q 531 -17 633 -17 m 531 86 q 671 115 608 86 q 778 194 733 143 q 847 313 822 244 q 871 463 871 382 q 847 613 871 543 q 778 732 822 682 q 671 810 733 782 q 531 839 608 839 q 390 810 453 839 q 282 732 326 782 q 214 613 238 682 q 190 463 190 543 q 214 313 190 382 q 282 194 238 244 q 390 115 326 143 q 531 86 453 86 m 614 1001 q 554 1022 576 1001 q 515 1065 532 1042 q 483 1109 499 1089 q 443 1129 468 1129 q 396 1101 415 1129 q 376 1010 376 1072 l 314 1010 q 348 1144 314 1092 q 449 1196 382 1196 q 508 1176 486 1196 q 547 1132 531 1156 q 578 1088 563 1108 q 619 1068 594 1068 q 667 1097 647 1068 q 686 1188 686 1125 l 749 1188 q 715 1053 749 1106 q 614 1001 681 1001 z "},"Ö":{"ha":1063,"x_min":71,"x_max":990,"o":"m 739 1071 q 719 1024 739 1043 q 674 1006 700 1006 q 628 1024 647 1006 q 608 1071 608 1043 q 628 1116 608 1097 q 674 1135 647 1135 q 719 1116 700 1135 q 739 1071 739 1097 m 451 1071 q 433 1024 451 1043 q 388 1006 414 1006 q 341 1024 360 1006 q 322 1071 322 1043 q 341 1116 322 1097 q 388 1135 360 1135 q 433 1116 414 1135 q 451 1071 451 1097 m 531 -17 q 343 19 428 -17 q 198 120 258 56 q 104 272 138 185 q 71 463 71 360 q 104 653 71 565 q 198 805 138 740 q 343 906 258 869 q 531 942 428 942 q 718 906 633 942 q 863 805 803 869 q 957 653 924 740 q 990 463 990 565 q 957 272 990 360 q 863 120 924 185 q 718 19 803 56 q 531 -17 633 -17 m 531 86 q 671 115 608 86 q 778 194 733 143 q 847 313 822 244 q 871 463 871 382 q 847 613 871 543 q 778 732 822 682 q 671 810 733 782 q 531 839 608 839 q 390 810 453 839 q 282 732 326 782 q 214 613 238 682 q 190 463 190 543 q 214 313 190 382 q 282 194 238 244 q 390 115 326 143 q 531 86 453 86 z "},"×":{"ha":693,"x_min":89,"x_max":604,"o":"m 346 413 l 140 206 l 89 257 l 294 464 l 89 669 l 140 722 l 346 515 l 553 722 l 604 669 l 399 464 l 604 257 l 553 206 l 346 413 z "},"Ø":{"ha":1063,"x_min":71,"x_max":990,"o":"m 531 -17 q 401 -1 461 -17 q 290 46 342 15 l 260 0 l 168 0 l 229 90 q 113 251 154 156 q 71 463 71 346 q 104 653 71 565 q 198 805 138 740 q 343 906 258 869 q 531 942 428 942 q 655 926 597 942 q 763 883 713 911 l 792 926 l 883 926 l 825 840 q 947 678 904 775 q 990 463 990 581 q 957 272 990 360 q 863 120 924 185 q 718 19 803 56 q 531 -17 633 -17 m 531 86 q 671 115 608 86 q 778 194 733 143 q 847 313 822 244 q 871 463 871 382 q 843 624 871 550 q 763 747 815 697 l 350 135 q 531 86 426 86 m 190 463 q 217 305 190 376 q 292 183 243 233 l 703 794 q 623 827 667 815 q 531 839 579 839 q 390 810 453 839 q 282 732 326 782 q 214 613 238 682 q 190 463 190 543 z "},"Ù":{"ha":972,"x_min":108,"x_max":864,"o":"m 486 -17 q 321 10 392 -17 q 203 86 250 38 q 132 204 156 135 q 108 360 108 274 l 108 926 l 224 926 l 224 363 q 290 160 224 235 q 486 86 357 86 q 682 160 615 86 q 749 363 749 235 l 749 926 l 864 926 l 864 361 q 840 205 864 275 q 769 85 817 135 q 651 10 722 36 q 486 -17 581 -17 m 486 1004 l 251 1204 l 360 1204 l 565 1004 l 486 1004 z "},"Ú":{"ha":972,"x_min":108,"x_max":864,"o":"m 486 1004 l 407 1004 l 613 1204 l 721 1204 l 486 1004 m 486 -17 q 321 10 392 -17 q 203 86 250 38 q 132 204 156 135 q 108 360 108 274 l 108 926 l 224 926 l 224 363 q 290 160 224 235 q 486 86 357 86 q 682 160 615 86 q 749 363 749 235 l 749 926 l 864 926 l 864 361 q 840 205 864 275 q 769 85 817 135 q 651 10 722 36 q 486 -17 581 -17 z "},"Û":{"ha":972,"x_min":108,"x_max":864,"o":"m 603 1004 l 488 1151 l 376 1004 l 306 1004 l 438 1204 l 538 1204 l 674 1004 l 603 1004 m 486 -17 q 321 10 392 -17 q 203 86 250 38 q 132 204 156 135 q 108 360 108 274 l 108 926 l 224 926 l 224 363 q 290 160 224 235 q 486 86 357 86 q 682 160 615 86 q 749 363 749 235 l 749 926 l 864 926 l 864 361 q 840 205 864 275 q 769 85 817 135 q 651 10 722 36 q 486 -17 581 -17 z "},"Ü":{"ha":972,"x_min":108,"x_max":864,"o":"m 696 1071 q 676 1024 696 1043 q 631 1006 657 1006 q 585 1024 604 1006 q 565 1071 565 1043 q 585 1116 565 1097 q 631 1135 604 1135 q 676 1116 657 1135 q 696 1071 696 1097 m 408 1071 q 390 1024 408 1043 q 344 1006 371 1006 q 298 1024 317 1006 q 279 1071 279 1043 q 298 1116 279 1097 q 344 1135 317 1135 q 390 1116 371 1135 q 408 1071 408 1097 m 486 -17 q 321 10 392 -17 q 203 86 250 38 q 132 204 156 135 q 108 360 108 274 l 108 926 l 224 926 l 224 363 q 290 160 224 235 q 486 86 357 86 q 682 160 615 86 q 749 363 749 235 l 749 926 l 864 926 l 864 361 q 840 205 864 275 q 769 85 817 135 q 651 10 722 36 q 486 -17 581 -17 z "},"Ý":{"ha":869,"x_min":13,"x_max":857,"o":"m 378 0 l 378 392 l 13 926 l 147 926 l 435 496 l 722 926 l 857 926 l 493 392 l 493 0 l 378 0 m 435 1004 l 356 1004 l 561 1204 l 669 1204 l 435 1004 z "},"Þ":{"ha":815,"x_min":108,"x_max":771,"o":"m 108 0 l 108 926 l 224 926 l 224 761 l 481 761 q 604 739 550 761 q 695 678 658 717 q 751 588 732 639 q 771 481 771 538 q 751 373 771 424 q 694 285 732 322 q 603 225 657 247 q 481 203 549 203 l 224 203 l 224 0 l 108 0 m 467 306 q 601 353 550 306 q 651 481 651 401 q 601 609 651 560 q 467 658 550 658 l 224 658 l 224 306 l 467 306 z "},"ß":{"ha":829,"x_min":104,"x_max":803,"o":"m 803 188 q 787 110 803 147 q 738 44 771 72 q 657 0 706 17 q 544 -17 608 -17 q 456 -8 494 -17 q 387 15 417 0 q 333 49 357 29 q 286 92 308 69 l 339 164 q 421 97 368 125 q 544 68 474 68 q 663 104 624 68 q 701 185 701 140 q 672 247 701 225 q 598 283 642 268 q 502 309 554 297 q 406 342 450 321 q 333 398 363 363 q 303 494 303 433 q 318 560 303 532 q 356 609 333 588 q 404 647 378 631 q 453 680 431 664 q 490 713 475 696 q 506 753 506 731 q 493 794 506 776 q 461 823 481 811 q 417 841 442 835 q 368 847 393 847 q 306 837 335 847 q 256 806 278 826 q 221 758 233 786 q 208 693 208 729 l 208 0 l 104 0 l 104 693 q 123 790 104 744 q 176 868 142 835 q 259 921 210 901 q 369 940 308 940 q 461 928 417 940 q 539 894 506 917 q 592 838 572 871 q 613 765 613 806 q 597 700 613 726 q 558 653 582 674 q 508 616 535 632 q 458 583 482 600 q 419 544 435 565 q 404 496 404 524 q 434 441 404 460 q 508 410 464 422 q 603 385 551 397 q 699 351 656 374 q 773 291 743 329 q 803 188 803 253 z "},"à":{"ha":732,"x_min":67,"x_max":628,"o":"m 524 0 l 524 76 q 301 -17 439 -17 q 217 -3 258 -17 q 142 40 175 11 q 88 110 108 68 q 67 206 67 151 q 88 303 67 261 q 142 372 108 344 q 217 413 175 400 q 301 426 258 426 q 427 404 371 426 q 524 335 483 382 l 524 456 q 476 560 524 524 q 354 597 428 597 q 149 504 236 597 l 100 576 q 368 688 207 688 q 468 675 421 688 q 551 635 515 663 q 607 565 586 608 q 628 461 628 522 l 628 0 l 524 0 m 339 58 q 444 79 394 58 q 524 142 493 100 l 524 268 q 444 331 493 310 q 339 351 394 351 q 219 310 265 351 q 174 204 174 269 q 219 99 174 140 q 339 58 265 58 m 368 772 l 133 972 l 242 972 l 447 772 l 368 772 z "},"á":{"ha":732,"x_min":67,"x_max":628,"o":"m 524 0 l 524 76 q 301 -17 439 -17 q 217 -3 258 -17 q 142 40 175 11 q 88 110 108 68 q 67 206 67 151 q 88 303 67 261 q 142 372 108 344 q 217 413 175 400 q 301 426 258 426 q 427 404 371 426 q 524 335 483 382 l 524 456 q 476 560 524 524 q 354 597 428 597 q 149 504 236 597 l 100 576 q 368 688 207 688 q 468 675 421 688 q 551 635 515 663 q 607 565 586 608 q 628 461 628 522 l 628 0 l 524 0 m 339 58 q 444 79 394 58 q 524 142 493 100 l 524 268 q 444 331 493 310 q 339 351 394 351 q 219 310 265 351 q 174 204 174 269 q 219 99 174 140 q 339 58 265 58 m 368 772 l 289 772 l 494 972 l 603 972 l 368 772 z "},"â":{"ha":732,"x_min":67,"x_max":628,"o":"m 524 0 l 524 76 q 301 -17 439 -17 q 217 -3 258 -17 q 142 40 175 11 q 88 110 108 68 q 67 206 67 151 q 88 303 67 261 q 142 372 108 344 q 217 413 175 400 q 301 426 258 426 q 427 404 371 426 q 524 335 483 382 l 524 456 q 476 560 524 524 q 354 597 428 597 q 149 504 236 597 l 100 576 q 368 688 207 688 q 468 675 421 688 q 551 635 515 663 q 607 565 586 608 q 628 461 628 522 l 628 0 l 524 0 m 339 58 q 444 79 394 58 q 524 142 493 100 l 524 268 q 444 331 493 310 q 339 351 394 351 q 219 310 265 351 q 174 204 174 269 q 219 99 174 140 q 339 58 265 58 m 482 772 l 367 919 l 256 772 l 185 772 l 317 972 l 417 972 l 553 772 l 482 772 z "},"ã":{"ha":732,"x_min":67,"x_max":628,"o":"m 524 0 l 524 76 q 301 -17 439 -17 q 217 -3 258 -17 q 142 40 175 11 q 88 110 108 68 q 67 206 67 151 q 88 303 67 261 q 142 372 108 344 q 217 413 175 400 q 301 426 258 426 q 427 404 371 426 q 524 335 483 382 l 524 456 q 476 560 524 524 q 354 597 428 597 q 149 504 236 597 l 100 576 q 368 688 207 688 q 468 675 421 688 q 551 635 515 663 q 607 565 586 608 q 628 461 628 522 l 628 0 l 524 0 m 339 58 q 444 79 394 58 q 524 142 493 100 l 524 268 q 444 331 493 310 q 339 351 394 351 q 219 310 265 351 q 174 204 174 269 q 219 99 174 140 q 339 58 265 58 m 451 769 q 392 790 414 769 q 353 833 369 810 q 321 877 336 857 q 281 897 306 897 q 233 869 253 897 q 214 778 214 840 l 151 778 q 185 912 151 860 q 286 964 219 964 q 346 944 324 964 q 384 900 368 924 q 416 856 400 876 q 457 836 432 836 q 504 865 485 836 q 524 956 524 893 l 586 956 q 552 822 586 874 q 451 769 518 769 z "},"ä":{"ha":732,"x_min":67,"x_max":628,"o":"m 524 0 l 524 76 q 301 -17 439 -17 q 217 -3 258 -17 q 142 40 175 11 q 88 110 108 68 q 67 206 67 151 q 88 303 67 261 q 142 372 108 344 q 217 413 175 400 q 301 426 258 426 q 427 404 371 426 q 524 335 483 382 l 524 456 q 476 560 524 524 q 354 597 428 597 q 149 504 236 597 l 100 576 q 368 688 207 688 q 468 675 421 688 q 551 635 515 663 q 607 565 586 608 q 628 461 628 522 l 628 0 l 524 0 m 339 58 q 444 79 394 58 q 524 142 493 100 l 524 268 q 444 331 493 310 q 339 351 394 351 q 219 310 265 351 q 174 204 174 269 q 219 99 174 140 q 339 58 265 58 m 576 839 q 557 792 576 811 q 511 774 538 774 q 465 792 485 774 q 446 839 446 811 q 465 884 446 865 q 511 903 485 903 q 557 884 538 903 q 576 839 576 865 m 289 839 q 270 792 289 811 q 225 774 251 774 q 178 792 197 774 q 160 839 160 811 q 178 884 160 865 q 225 903 197 903 q 270 884 251 903 q 289 839 289 865 z "},"å":{"ha":732,"x_min":67,"x_max":628,"o":"m 524 0 l 524 76 q 301 -17 439 -17 q 217 -3 258 -17 q 142 40 175 11 q 88 110 108 68 q 67 206 67 151 q 88 303 67 261 q 142 372 108 344 q 217 413 175 400 q 301 426 258 426 q 427 404 371 426 q 524 335 483 382 l 524 456 q 476 560 524 524 q 354 597 428 597 q 149 504 236 597 l 100 576 q 368 688 207 688 q 468 675 421 688 q 551 635 515 663 q 607 565 586 608 q 628 461 628 522 l 628 0 l 524 0 m 339 58 q 444 79 394 58 q 524 142 493 100 l 524 268 q 444 331 493 310 q 339 351 394 351 q 219 310 265 351 q 174 204 174 269 q 219 99 174 140 q 339 58 265 58 m 368 754 q 272 794 311 754 q 232 890 232 833 q 242 943 232 918 q 272 987 253 968 q 315 1017 290 1006 q 368 1028 340 1028 q 421 1017 396 1028 q 465 987 446 1006 q 494 943 483 968 q 504 890 504 918 q 465 794 504 833 q 368 754 425 754 m 368 808 q 426 833 403 808 q 449 890 449 857 q 426 949 449 925 q 368 972 403 972 q 311 949 335 972 q 288 890 288 925 q 311 833 288 857 q 368 808 335 808 z "},"æ":{"ha":1235,"x_min":67,"x_max":1171,"o":"m 661 301 q 682 213 665 254 q 727 140 699 171 q 795 90 756 108 q 885 72 835 72 q 990 94 939 72 q 1078 157 1040 115 l 1128 86 q 1015 10 1079 36 q 881 -17 951 -17 q 722 22 792 -17 q 613 144 653 61 q 503 28 576 72 q 336 -17 429 -17 q 233 -3 282 -17 q 147 40 185 11 q 88 110 110 68 q 67 206 67 151 q 87 301 67 260 q 141 370 107 342 q 220 413 175 399 q 314 426 265 426 q 451 405 389 426 q 557 338 513 383 l 557 457 q 506 560 557 524 q 372 597 456 597 q 251 575 306 597 q 149 504 197 553 l 100 576 q 385 688 210 688 q 465 679 426 688 q 535 653 503 671 q 590 608 567 635 q 622 542 613 581 q 718 645 657 603 q 871 688 779 688 q 999 660 943 688 q 1092 583 1054 632 q 1151 469 1131 535 q 1171 328 1171 403 l 1171 301 l 661 301 m 1068 378 q 1056 455 1068 415 q 1019 527 1044 494 q 956 581 994 560 q 864 601 918 601 q 777 581 814 601 q 715 528 740 560 q 676 456 689 496 q 661 378 663 417 l 1068 378 m 557 267 q 469 329 522 307 q 356 351 415 351 q 224 313 274 351 q 174 211 174 275 q 224 110 174 147 q 356 72 274 72 q 437 88 400 72 q 501 128 474 103 q 542 185 528 153 q 557 250 557 217 l 557 267 z "},"ç":{"ha":688,"x_min":65,"x_max":646,"o":"m 401 -262 q 319 -250 357 -262 q 261 -221 282 -237 l 288 -168 q 342 -199 313 -189 q 399 -208 371 -208 q 458 -193 432 -208 q 483 -150 483 -178 q 471 -115 483 -128 q 432 -101 458 -101 q 379 -125 400 -101 l 333 -99 l 364 -14 q 242 21 297 -8 q 147 97 186 50 q 87 204 108 143 q 65 336 65 265 q 90 475 65 411 q 158 586 114 539 q 263 660 201 633 q 400 688 325 688 q 549 654 492 688 q 646 571 607 621 l 576 507 q 501 574 543 553 q 406 594 458 594 q 309 575 351 594 q 236 521 267 556 q 190 439 206 486 q 174 336 174 392 q 190 233 174 281 q 236 150 206 185 q 309 96 267 115 q 406 76 351 76 q 576 164 511 76 l 646 100 q 558 22 610 53 q 425 -15 506 -10 l 403 -74 q 454 -58 425 -58 q 520 -83 494 -58 q 546 -151 546 -108 q 503 -233 546 -203 q 401 -262 461 -262 z "},"è":{"ha":782,"x_min":65,"x_max":718,"o":"m 407 -17 q 269 9 332 -17 q 162 81 207 35 q 91 192 117 128 q 65 336 65 257 q 90 473 65 408 q 159 585 115 538 q 263 660 203 632 q 396 688 324 688 q 532 660 472 688 q 633 583 592 632 q 697 469 675 535 q 718 328 718 403 l 718 301 l 175 301 q 196 212 178 254 q 245 138 214 169 q 319 88 276 107 q 417 69 363 69 q 529 92 475 69 q 624 154 583 114 l 674 86 q 557 10 624 36 q 407 -17 490 -17 m 615 378 q 602 455 615 415 q 562 527 589 494 q 493 581 535 560 q 394 601 451 601 q 300 581 340 601 q 233 528 260 560 q 191 456 206 496 q 175 378 176 417 l 615 378 m 396 772 l 161 972 l 269 972 l 475 772 l 396 772 z "},"é":{"ha":782,"x_min":65,"x_max":718,"o":"m 396 772 l 317 772 l 522 972 l 631 972 l 396 772 m 407 -17 q 269 9 332 -17 q 162 81 207 35 q 91 192 117 128 q 65 336 65 257 q 90 473 65 408 q 159 585 115 538 q 263 660 203 632 q 396 688 324 688 q 532 660 472 688 q 633 583 592 632 q 697 469 675 535 q 718 328 718 403 l 718 301 l 175 301 q 196 212 178 254 q 245 138 214 169 q 319 88 276 107 q 417 69 363 69 q 529 92 475 69 q 624 154 583 114 l 674 86 q 557 10 624 36 q 407 -17 490 -17 m 615 378 q 602 455 615 415 q 562 527 589 494 q 493 581 535 560 q 394 601 451 601 q 300 581 340 601 q 233 528 260 560 q 191 456 206 496 q 175 378 176 417 l 615 378 z "},"ê":{"ha":782,"x_min":65,"x_max":718,"o":"m 511 772 l 396 919 l 285 772 l 214 772 l 346 972 l 446 972 l 582 772 l 511 772 m 407 -17 q 269 9 332 -17 q 162 81 207 35 q 91 192 117 128 q 65 336 65 257 q 90 473 65 408 q 159 585 115 538 q 263 660 203 632 q 396 688 324 688 q 532 660 472 688 q 633 583 592 632 q 697 469 675 535 q 718 328 718 403 l 718 301 l 175 301 q 196 212 178 254 q 245 138 214 169 q 319 88 276 107 q 417 69 363 69 q 529 92 475 69 q 624 154 583 114 l 674 86 q 557 10 624 36 q 407 -17 490 -17 m 615 378 q 602 455 615 415 q 562 527 589 494 q 493 581 535 560 q 394 601 451 601 q 300 581 340 601 q 233 528 260 560 q 191 456 206 496 q 175 378 176 417 l 615 378 z "},"ë":{"ha":782,"x_min":65,"x_max":718,"o":"m 606 839 q 586 792 606 811 q 540 774 567 774 q 494 792 514 774 q 475 839 475 811 q 494 884 475 865 q 540 903 514 903 q 586 884 567 903 q 606 839 606 865 m 318 839 q 299 792 318 811 q 254 774 281 774 q 208 792 226 774 q 189 839 189 811 q 208 884 189 865 q 254 903 226 903 q 299 884 281 903 q 318 839 318 865 m 407 -17 q 269 9 332 -17 q 162 81 207 35 q 91 192 117 128 q 65 336 65 257 q 90 473 65 408 q 159 585 115 538 q 263 660 203 632 q 396 688 324 688 q 532 660 472 688 q 633 583 592 632 q 697 469 675 535 q 718 328 718 403 l 718 301 l 175 301 q 196 212 178 254 q 245 138 214 169 q 319 88 276 107 q 417 69 363 69 q 529 92 475 69 q 624 154 583 114 l 674 86 q 557 10 624 36 q 407 -17 490 -17 m 615 378 q 602 455 615 415 q 562 527 589 494 q 493 581 535 560 q 394 601 451 601 q 300 581 340 601 q 233 528 260 560 q 191 456 206 496 q 175 378 176 417 l 615 378 z "},"ì":{"ha":313,"x_min":-78,"x_max":236,"o":"m 104 0 l 104 671 l 208 671 l 208 0 l 104 0 m 157 772 l -78 972 l 31 972 l 236 772 l 157 772 z "},"í":{"ha":313,"x_min":78,"x_max":392,"o":"m 157 772 l 78 772 l 283 972 l 392 972 l 157 772 m 104 0 l 104 671 l 208 671 l 208 0 l 104 0 z "},"î":{"ha":313,"x_min":-26,"x_max":342,"o":"m 271 772 l 156 919 l 44 772 l -26 772 l 106 972 l 206 972 l 342 772 l 271 772 m 104 0 l 104 671 l 208 671 l 208 0 l 104 0 z "},"ï":{"ha":313,"x_min":-50,"x_max":367,"o":"m 367 839 q 347 792 367 811 q 301 774 328 774 q 256 792 275 774 q 236 839 236 811 q 256 884 236 865 q 301 903 275 903 q 347 884 328 903 q 367 839 367 865 m 79 839 q 60 792 79 811 q 15 774 42 774 q -31 792 -12 774 q -50 839 -50 811 q -31 884 -50 865 q 15 903 -12 903 q 60 884 42 903 q 79 839 79 865 m 104 0 l 104 671 l 208 671 l 208 0 l 104 0 z "},"ð":{"ha":794,"x_min":65,"x_max":729,"o":"m 144 749 l 308 821 q 257 854 283 838 q 204 888 231 871 l 261 974 q 341 922 301 949 q 417 868 381 896 l 567 935 l 590 878 l 471 825 q 574 723 526 776 q 656 610 622 669 q 710 483 690 550 q 729 343 729 417 q 706 199 729 265 q 640 85 683 133 q 535 10 597 38 q 397 -17 474 -17 q 261 9 322 -17 q 156 81 200 35 q 89 189 113 126 q 65 325 65 251 q 88 460 65 397 q 151 568 110 522 q 248 640 192 614 q 371 665 304 665 q 490 637 436 665 q 590 542 544 608 q 494 669 551 611 q 368 778 438 726 l 169 690 l 144 749 m 397 76 q 492 97 451 76 q 562 151 533 117 q 605 231 590 186 q 619 325 619 275 q 605 419 619 374 q 562 498 590 464 q 492 552 533 532 q 397 572 451 572 q 301 552 343 572 q 231 498 260 532 q 188 419 203 464 q 174 325 174 374 q 188 231 174 275 q 231 151 203 186 q 301 97 260 117 q 397 76 343 76 z "},"ñ":{"ha":765,"x_min":104,"x_max":661,"o":"m 557 0 l 557 439 q 516 561 557 528 q 407 594 475 594 q 347 586 376 594 q 292 563 318 578 q 244 530 265 549 q 208 490 222 511 l 208 0 l 104 0 l 104 671 l 208 671 l 208 574 q 251 615 226 594 q 308 651 276 635 q 374 678 339 668 q 447 688 410 688 q 661 471 661 688 l 661 0 l 557 0 m 467 769 q 407 790 429 769 q 368 833 385 810 q 336 877 351 857 q 296 897 321 897 q 249 869 268 897 q 229 778 229 840 l 167 778 q 201 912 167 860 q 301 964 235 964 q 361 944 339 964 q 399 900 383 924 q 431 856 415 876 q 472 836 447 836 q 519 865 500 836 q 539 956 539 893 l 601 956 q 567 822 601 874 q 467 769 533 769 z "},"ò":{"ha":794,"x_min":65,"x_max":729,"o":"m 397 -17 q 259 11 321 -17 q 154 87 197 39 q 88 199 111 135 q 65 336 65 263 q 88 473 65 408 q 154 585 111 538 q 259 660 197 632 q 397 688 321 688 q 535 660 474 688 q 640 585 597 632 q 706 473 683 538 q 729 336 729 408 q 706 199 729 263 q 640 87 683 135 q 535 11 597 39 q 397 -17 474 -17 m 397 76 q 492 98 451 76 q 562 155 533 119 q 605 238 590 190 q 619 336 619 285 q 605 434 619 388 q 562 516 590 481 q 492 573 533 551 q 397 594 451 594 q 301 573 343 594 q 231 516 260 551 q 188 434 203 481 q 174 336 174 388 q 188 238 174 285 q 231 155 203 190 q 301 98 260 119 q 397 76 343 76 m 397 772 l 163 972 l 271 972 l 476 772 l 397 772 z "},"ó":{"ha":794,"x_min":65,"x_max":729,"o":"m 397 772 l 318 772 l 524 972 l 632 972 l 397 772 m 397 -17 q 259 11 321 -17 q 154 87 197 39 q 88 199 111 135 q 65 336 65 263 q 88 473 65 408 q 154 585 111 538 q 259 660 197 632 q 397 688 321 688 q 535 660 474 688 q 640 585 597 632 q 706 473 683 538 q 729 336 729 408 q 706 199 729 263 q 640 87 683 135 q 535 11 597 39 q 397 -17 474 -17 m 397 76 q 492 98 451 76 q 562 155 533 119 q 605 238 590 190 q 619 336 619 285 q 605 434 619 388 q 562 516 590 481 q 492 573 533 551 q 397 594 451 594 q 301 573 343 594 q 231 516 260 551 q 188 434 203 481 q 174 336 174 388 q 188 238 174 285 q 231 155 203 190 q 301 98 260 119 q 397 76 343 76 z "},"ô":{"ha":794,"x_min":65,"x_max":729,"o":"m 511 772 l 396 919 l 285 772 l 214 772 l 346 972 l 446 972 l 582 772 l 511 772 m 397 -17 q 259 11 321 -17 q 154 87 197 39 q 88 199 111 135 q 65 336 65 263 q 88 473 65 408 q 154 585 111 538 q 259 660 197 632 q 397 688 321 688 q 535 660 474 688 q 640 585 597 632 q 706 473 683 538 q 729 336 729 408 q 706 199 729 263 q 640 87 683 135 q 535 11 597 39 q 397 -17 474 -17 m 397 76 q 492 98 451 76 q 562 155 533 119 q 605 238 590 190 q 619 336 619 285 q 605 434 619 388 q 562 516 590 481 q 492 573 533 551 q 397 594 451 594 q 301 573 343 594 q 231 516 260 551 q 188 434 203 481 q 174 336 174 388 q 188 238 174 285 q 231 155 203 190 q 301 98 260 119 q 397 76 343 76 z "},"õ":{"ha":794,"x_min":65,"x_max":729,"o":"m 397 -17 q 259 11 321 -17 q 154 87 197 39 q 88 199 111 135 q 65 336 65 263 q 88 473 65 408 q 154 585 111 538 q 259 660 197 632 q 397 688 321 688 q 535 660 474 688 q 640 585 597 632 q 706 473 683 538 q 729 336 729 408 q 706 199 729 263 q 640 87 683 135 q 535 11 597 39 q 397 -17 474 -17 m 397 76 q 492 98 451 76 q 562 155 533 119 q 605 238 590 190 q 619 336 619 285 q 605 434 619 388 q 562 516 590 481 q 492 573 533 551 q 397 594 451 594 q 301 573 343 594 q 231 516 260 551 q 188 434 203 481 q 174 336 174 388 q 188 238 174 285 q 231 155 203 190 q 301 98 260 119 q 397 76 343 76 m 481 769 q 421 790 443 769 q 382 833 399 810 q 350 877 365 857 q 310 897 335 897 q 263 869 282 897 q 243 778 243 840 l 181 778 q 215 912 181 860 q 315 964 249 964 q 375 944 353 964 q 413 900 397 924 q 445 856 429 876 q 486 836 461 836 q 533 865 514 836 q 553 956 553 893 l 615 956 q 581 822 615 874 q 481 769 547 769 z "},"ö":{"ha":794,"x_min":65,"x_max":729,"o":"m 606 839 q 586 792 606 811 q 540 774 567 774 q 494 792 514 774 q 475 839 475 811 q 494 884 475 865 q 540 903 514 903 q 586 884 567 903 q 606 839 606 865 m 318 839 q 299 792 318 811 q 254 774 281 774 q 208 792 226 774 q 189 839 189 811 q 208 884 189 865 q 254 903 226 903 q 299 884 281 903 q 318 839 318 865 m 397 -17 q 259 11 321 -17 q 154 87 197 39 q 88 199 111 135 q 65 336 65 263 q 88 473 65 408 q 154 585 111 538 q 259 660 197 632 q 397 688 321 688 q 535 660 474 688 q 640 585 597 632 q 706 473 683 538 q 729 336 729 408 q 706 199 729 263 q 640 87 683 135 q 535 11 597 39 q 397 -17 474 -17 m 397 76 q 492 98 451 76 q 562 155 533 119 q 605 238 590 190 q 619 336 619 285 q 605 434 619 388 q 562 516 590 481 q 492 573 533 551 q 397 594 451 594 q 301 573 343 594 q 231 516 260 551 q 188 434 203 481 q 174 336 174 388 q 188 238 174 285 q 231 155 203 190 q 301 98 260 119 q 397 76 343 76 z "},"÷":{"ha":710,"x_min":40,"x_max":669,"o":"m 419 731 q 401 685 419 704 q 354 667 382 667 q 310 685 328 667 q 292 731 292 704 q 310 776 292 758 q 354 794 328 794 q 401 776 382 794 q 419 731 419 758 m 40 432 l 40 504 l 669 504 l 669 432 l 40 432 m 419 200 q 401 155 419 174 q 354 136 382 136 q 310 155 328 136 q 292 200 292 174 q 310 245 292 226 q 354 264 328 264 q 401 245 382 264 q 419 200 419 226 z "},"ø":{"ha":794,"x_min":65,"x_max":729,"o":"m 89 0 l 156 85 q 88 197 111 133 q 65 336 65 261 q 88 473 65 408 q 154 585 111 538 q 259 660 197 632 q 397 688 321 688 q 501 673 453 688 q 588 631 549 658 l 619 671 l 694 671 l 632 592 q 704 478 679 543 q 729 336 729 413 q 706 199 729 263 q 640 87 683 135 q 535 11 597 39 q 397 -17 474 -17 q 200 46 282 -17 l 164 0 l 89 0 m 397 76 q 492 98 451 76 q 562 155 533 119 q 605 238 590 190 q 619 336 619 285 q 567 510 619 438 l 261 124 q 322 89 289 101 q 397 76 356 76 m 174 336 q 221 168 174 239 l 525 553 q 397 594 472 594 q 301 573 343 594 q 231 516 260 551 q 188 434 203 481 q 174 336 174 388 z "},"ù":{"ha":765,"x_min":104,"x_max":661,"o":"m 557 0 l 557 94 q 456 17 518 50 q 318 -17 393 -17 q 158 35 213 -17 q 104 197 104 88 l 104 671 l 208 671 l 208 229 q 219 156 208 185 q 249 108 229 126 q 297 83 269 90 q 358 76 325 76 q 474 107 419 76 q 557 178 528 138 l 557 671 l 661 671 l 661 0 l 557 0 m 382 772 l 147 972 l 256 972 l 461 772 l 382 772 z "},"ú":{"ha":765,"x_min":104,"x_max":661,"o":"m 382 772 l 303 772 l 508 972 l 617 972 l 382 772 m 557 0 l 557 94 q 456 17 518 50 q 318 -17 393 -17 q 158 35 213 -17 q 104 197 104 88 l 104 671 l 208 671 l 208 229 q 219 156 208 185 q 249 108 229 126 q 297 83 269 90 q 358 76 325 76 q 474 107 419 76 q 557 178 528 138 l 557 671 l 661 671 l 661 0 l 557 0 z "},"û":{"ha":765,"x_min":104,"x_max":661,"o":"m 496 772 l 381 919 l 269 772 l 199 772 l 331 972 l 431 972 l 567 772 l 496 772 m 557 0 l 557 94 q 456 17 518 50 q 318 -17 393 -17 q 158 35 213 -17 q 104 197 104 88 l 104 671 l 208 671 l 208 229 q 219 156 208 185 q 249 108 229 126 q 297 83 269 90 q 358 76 325 76 q 474 107 419 76 q 557 178 528 138 l 557 671 l 661 671 l 661 0 l 557 0 z "},"ü":{"ha":765,"x_min":104,"x_max":661,"o":"m 593 839 q 574 792 593 811 q 528 774 554 774 q 482 792 501 774 q 463 839 463 811 q 482 884 463 865 q 528 903 501 903 q 574 884 554 903 q 593 839 593 865 m 306 839 q 287 792 306 811 q 242 774 268 774 q 195 792 214 774 q 176 839 176 811 q 195 884 176 865 q 242 903 214 903 q 287 884 268 903 q 306 839 306 865 m 557 0 l 557 94 q 456 17 518 50 q 318 -17 393 -17 q 158 35 213 -17 q 104 197 104 88 l 104 671 l 208 671 l 208 229 q 219 156 208 185 q 249 108 229 126 q 297 83 269 90 q 358 76 325 76 q 474 107 419 76 q 557 178 528 138 l 557 671 l 661 671 l 661 0 l 557 0 z "},"ý":{"ha":681,"x_min":4,"x_max":676,"o":"m 83 -168 q 111 -176 94 -174 q 140 -179 128 -179 q 199 -165 175 -179 q 240 -108 222 -150 l 285 -7 l 4 671 l 117 671 l 340 121 l 563 671 l 676 671 l 340 -136 q 260 -240 310 -210 q 143 -272 210 -271 q 104 -269 126 -272 q 67 -262 82 -267 l 83 -168 m 340 772 l 261 772 l 467 972 l 575 972 l 340 772 z "},"þ":{"ha":794,"x_min":104,"x_max":733,"o":"m 435 -17 q 307 14 365 -17 q 208 101 249 44 l 208 -256 l 104 -256 l 104 926 l 208 926 l 208 571 q 304 655 244 622 q 435 688 364 688 q 556 663 501 688 q 651 594 611 639 q 712 483 690 549 q 733 336 733 418 q 712 189 733 254 q 651 78 690 124 q 556 8 611 32 q 435 -17 501 -17 m 408 76 q 499 96 458 76 q 567 150 539 115 q 609 233 594 185 q 624 336 624 281 q 609 439 624 392 q 567 521 594 486 q 499 575 539 556 q 408 594 458 594 q 291 563 346 594 q 208 488 236 532 l 208 185 q 291 108 236 140 q 408 76 346 76 z "},"ÿ":{"ha":681,"x_min":4,"x_max":676,"o":"m 83 -168 q 111 -176 94 -174 q 140 -179 128 -179 q 199 -165 175 -179 q 240 -108 222 -150 l 285 -7 l 4 671 l 117 671 l 340 121 l 563 671 l 676 671 l 340 -136 q 260 -240 310 -210 q 143 -272 210 -271 q 104 -269 126 -272 q 67 -262 82 -267 l 83 -168 m 549 839 q 529 792 549 811 q 483 774 510 774 q 438 792 457 774 q 418 839 418 811 q 438 884 418 865 q 483 903 457 903 q 529 884 510 903 q 549 839 549 865 m 261 839 q 242 792 261 811 q 197 774 224 774 q 151 792 169 774 q 132 839 132 811 q 151 884 132 865 q 197 903 169 903 q 242 884 224 903 q 261 839 261 865 z "},"Ā":{"ha":914,"x_min":13,"x_max":901,"o":"m 769 0 l 688 206 l 226 206 l 144 0 l 13 0 l 385 926 l 528 926 l 901 0 l 769 0 m 457 807 l 260 308 l 653 308 l 457 807 m 204 1026 l 204 1093 l 708 1093 l 708 1026 l 204 1026 z "},"ā":{"ha":732,"x_min":67,"x_max":628,"o":"m 524 0 l 524 76 q 301 -17 439 -17 q 217 -3 258 -17 q 142 40 175 11 q 88 110 108 68 q 67 206 67 151 q 88 303 67 261 q 142 372 108 344 q 217 413 175 400 q 301 426 258 426 q 427 404 371 426 q 524 335 483 382 l 524 456 q 476 560 524 524 q 354 597 428 597 q 149 504 236 597 l 100 576 q 368 688 207 688 q 468 675 421 688 q 551 635 515 663 q 607 565 586 608 q 628 461 628 522 l 628 0 l 524 0 m 339 58 q 444 79 394 58 q 524 142 493 100 l 524 268 q 444 331 493 310 q 339 351 394 351 q 219 310 265 351 q 174 204 174 269 q 219 99 174 140 q 339 58 265 58 m 114 794 l 114 861 l 618 861 l 618 794 l 114 794 z "},"Ă":{"ha":914,"x_min":13,"x_max":901,"o":"m 769 0 l 688 206 l 226 206 l 144 0 l 13 0 l 385 926 l 528 926 l 901 0 l 769 0 m 457 807 l 260 308 l 653 308 l 457 807 m 700 1101 q 595 1012 658 1044 q 457 979 532 979 q 319 1012 382 979 q 213 1101 256 1044 l 264 1146 q 346 1073 297 1100 q 457 1046 394 1046 q 567 1072 518 1046 q 649 1146 617 1099 l 700 1101 l 700 1101 z "},"ă":{"ha":732,"x_min":67,"x_max":628,"o":"m 524 0 l 524 76 q 301 -17 439 -17 q 217 -3 258 -17 q 142 40 175 11 q 88 110 108 68 q 67 206 67 151 q 88 303 67 261 q 142 372 108 344 q 217 413 175 400 q 301 426 258 426 q 427 404 371 426 q 524 335 483 382 l 524 456 q 476 560 524 524 q 354 597 428 597 q 149 504 236 597 l 100 576 q 368 688 207 688 q 468 675 421 688 q 551 635 515 663 q 607 565 586 608 q 628 461 628 522 l 628 0 l 524 0 m 339 58 q 444 79 394 58 q 524 142 493 100 l 524 268 q 444 331 493 310 q 339 351 394 351 q 219 310 265 351 q 174 204 174 269 q 219 99 174 140 q 339 58 265 58 m 610 869 q 505 780 568 813 q 367 747 442 747 q 228 780 292 747 q 122 869 165 813 l 174 914 q 256 841 207 868 q 367 814 304 814 q 477 840 428 814 q 558 914 526 867 l 610 869 l 610 869 z "},"Ą":{"ha":914,"x_min":13,"x_max":981,"o":"m 981 -175 q 936 -233 965 -208 q 857 -258 907 -258 q 771 -230 808 -258 q 733 -137 733 -201 q 753 -62 733 -97 q 807 0 772 -28 l 769 0 l 688 206 l 226 206 l 144 0 l 13 0 l 385 926 l 528 926 l 901 0 q 824 -58 851 -25 q 796 -135 796 -90 q 813 -187 796 -171 q 857 -204 829 -204 q 903 -189 886 -204 q 929 -146 919 -174 l 981 -175 m 457 807 l 260 308 l 653 308 l 457 807 z "},"ą":{"ha":732,"x_min":67,"x_max":707,"o":"m 707 -175 q 663 -233 692 -208 q 583 -258 633 -258 q 497 -230 535 -258 q 460 -137 460 -201 q 479 -62 460 -97 q 533 0 499 -28 l 524 0 l 524 76 q 301 -17 439 -17 q 217 -3 258 -17 q 142 40 175 11 q 88 110 108 68 q 67 206 67 151 q 88 303 67 261 q 142 372 108 344 q 217 413 175 400 q 301 426 258 426 q 427 404 371 426 q 524 335 483 382 l 524 456 q 476 560 524 524 q 354 597 428 597 q 149 504 236 597 l 100 576 q 368 688 207 688 q 468 675 421 688 q 551 635 515 663 q 607 565 586 608 q 628 461 628 522 l 628 0 q 550 -58 578 -25 q 522 -135 522 -90 q 539 -187 522 -171 q 583 -204 556 -204 q 629 -189 613 -204 q 656 -146 646 -174 l 707 -175 m 339 58 q 444 79 394 58 q 524 142 493 100 l 524 268 q 444 331 493 310 q 339 351 394 351 q 219 310 265 351 q 174 204 174 269 q 219 99 174 140 q 339 58 265 58 z "},"Ć":{"ha":939,"x_min":71,"x_max":900,"o":"m 547 1004 l 468 1004 l 674 1204 l 782 1204 l 547 1004 m 547 -17 q 360 18 447 -17 q 209 116 274 53 q 108 267 144 179 q 71 463 71 356 q 108 658 71 569 q 209 809 144 746 q 360 907 274 872 q 547 942 447 942 q 660 928 608 942 q 756 889 713 914 q 835 831 800 864 q 899 758 871 797 l 801 704 q 694 801 761 763 q 547 839 626 839 q 406 811 471 839 q 292 733 340 783 q 217 615 244 683 q 190 463 190 546 q 217 311 190 381 q 292 192 244 242 q 406 114 340 142 q 547 86 471 86 q 694 124 626 86 q 801 221 761 161 l 900 167 q 756 35 842 88 q 547 -17 671 -17 z "},"ć":{"ha":688,"x_min":65,"x_max":646,"o":"m 399 772 l 319 772 l 525 972 l 633 972 l 399 772 m 400 -17 q 263 10 325 -17 q 158 85 201 38 q 90 197 114 132 q 65 336 65 261 q 90 475 65 411 q 158 586 114 539 q 263 660 201 633 q 400 688 325 688 q 549 654 492 688 q 646 571 607 621 l 576 507 q 501 574 543 553 q 406 594 458 594 q 309 575 351 594 q 236 521 267 556 q 190 439 206 486 q 174 336 174 392 q 190 233 174 281 q 236 150 206 185 q 309 96 267 115 q 406 76 351 76 q 576 164 511 76 l 646 100 q 549 17 607 50 q 400 -17 492 -17 z "},"Ĉ":{"ha":939,"x_min":71,"x_max":900,"o":"m 660 1004 l 544 1151 l 433 1004 l 363 1004 l 494 1204 l 594 1204 l 731 1004 l 660 1004 m 547 -17 q 360 18 447 -17 q 209 116 274 53 q 108 267 144 179 q 71 463 71 356 q 108 658 71 569 q 209 809 144 746 q 360 907 274 872 q 547 942 447 942 q 660 928 608 942 q 756 889 713 914 q 835 831 800 864 q 899 758 871 797 l 801 704 q 694 801 761 763 q 547 839 626 839 q 406 811 471 839 q 292 733 340 783 q 217 615 244 683 q 190 463 190 546 q 217 311 190 381 q 292 192 244 242 q 406 114 340 142 q 547 86 471 86 q 694 124 626 86 q 801 221 761 161 l 900 167 q 756 35 842 88 q 547 -17 671 -17 z "},"ĉ":{"ha":688,"x_min":65,"x_max":646,"o":"m 514 772 l 399 919 l 288 772 l 217 772 l 349 972 l 449 972 l 585 772 l 514 772 m 400 -17 q 263 10 325 -17 q 158 85 201 38 q 90 197 114 132 q 65 336 65 261 q 90 475 65 411 q 158 586 114 539 q 263 660 201 633 q 400 688 325 688 q 549 654 492 688 q 646 571 607 621 l 576 507 q 501 574 543 553 q 406 594 458 594 q 309 575 351 594 q 236 521 267 556 q 190 439 206 486 q 174 336 174 392 q 190 233 174 281 q 236 150 206 185 q 309 96 267 115 q 406 76 351 76 q 576 164 511 76 l 646 100 q 549 17 607 50 q 400 -17 492 -17 z "},"Ċ":{"ha":939,"x_min":71,"x_max":900,"o":"m 547 -17 q 360 18 447 -17 q 209 116 274 53 q 108 267 144 179 q 71 463 71 356 q 108 658 71 569 q 209 809 144 746 q 360 907 274 872 q 547 942 447 942 q 660 928 608 942 q 756 889 713 914 q 835 831 800 864 q 899 758 871 797 l 801 704 q 694 801 761 763 q 547 839 626 839 q 406 811 471 839 q 292 733 340 783 q 217 615 244 683 q 190 463 190 546 q 217 311 190 381 q 292 192 244 242 q 406 114 340 142 q 547 86 471 86 q 694 124 626 86 q 801 221 761 161 l 900 167 q 756 35 842 88 q 547 -17 671 -17 m 550 1003 q 504 1022 524 1003 q 485 1068 485 1040 q 504 1115 485 1096 q 550 1133 524 1133 q 596 1115 578 1133 q 614 1068 614 1096 q 596 1022 614 1040 q 550 1003 578 1003 z "},"ċ":{"ha":688,"x_min":65,"x_max":646,"o":"m 400 -17 q 263 10 325 -17 q 158 85 201 38 q 90 197 114 132 q 65 336 65 261 q 90 475 65 411 q 158 586 114 539 q 263 660 201 633 q 400 688 325 688 q 549 654 492 688 q 646 571 607 621 l 576 507 q 501 574 543 553 q 406 594 458 594 q 309 575 351 594 q 236 521 267 556 q 190 439 206 486 q 174 336 174 392 q 190 233 174 281 q 236 150 206 185 q 309 96 267 115 q 406 76 351 76 q 576 164 511 76 l 646 100 q 549 17 607 50 q 400 -17 492 -17 m 403 771 q 357 790 376 771 q 338 836 338 808 q 357 883 338 864 q 403 901 376 901 q 449 883 431 901 q 467 836 467 864 q 449 790 467 808 q 403 771 431 771 z "},"Č":{"ha":939,"x_min":71,"x_max":900,"o":"m 499 1004 l 363 1204 l 433 1204 l 549 1057 l 660 1204 l 731 1204 l 599 1004 l 499 1004 m 547 -17 q 360 18 447 -17 q 209 116 274 53 q 108 267 144 179 q 71 463 71 356 q 108 658 71 569 q 209 809 144 746 q 360 907 274 872 q 547 942 447 942 q 660 928 608 942 q 756 889 713 914 q 835 831 800 864 q 899 758 871 797 l 801 704 q 694 801 761 763 q 547 839 626 839 q 406 811 471 839 q 292 733 340 783 q 217 615 244 683 q 190 463 190 546 q 217 311 190 381 q 292 192 244 242 q 406 114 340 142 q 547 86 471 86 q 694 124 626 86 q 801 221 761 161 l 900 167 q 756 35 842 88 q 547 -17 671 -17 z "},"č":{"ha":688,"x_min":65,"x_max":646,"o":"m 353 772 l 217 972 l 288 972 l 403 825 l 514 972 l 585 972 l 453 772 l 353 772 m 400 -17 q 263 10 325 -17 q 158 85 201 38 q 90 197 114 132 q 65 336 65 261 q 90 475 65 411 q 158 586 114 539 q 263 660 201 633 q 400 688 325 688 q 549 654 492 688 q 646 571 607 621 l 576 507 q 501 574 543 553 q 406 594 458 594 q 309 575 351 594 q 236 521 267 556 q 190 439 206 486 q 174 336 174 392 q 190 233 174 281 q 236 150 206 185 q 309 96 267 115 q 406 76 351 76 q 576 164 511 76 l 646 100 q 549 17 607 50 q 400 -17 492 -17 z "},"Ď":{"ha":972,"x_min":108,"x_max":900,"o":"m 440 1004 l 304 1204 l 375 1204 l 490 1057 l 601 1204 l 672 1204 l 540 1004 l 440 1004 m 108 0 l 108 926 l 425 926 q 621 891 533 926 q 770 793 708 856 q 866 646 832 731 q 900 463 900 561 q 866 279 900 364 q 770 133 832 194 q 621 35 708 71 q 425 0 533 0 l 108 0 m 425 103 q 576 131 510 103 q 688 208 642 160 q 757 322 733 257 q 781 463 781 388 q 757 603 781 538 q 688 718 733 669 q 577 795 643 767 q 425 824 511 824 l 224 824 l 224 103 l 425 103 z "},"ď":{"ha":894,"x_min":65,"x_max":900,"o":"m 900 851 q 871 745 900 794 q 801 665 842 696 l 756 701 q 810 756 788 722 q 836 821 833 790 q 829 819 835 819 q 821 818 824 818 q 779 835 796 818 q 763 879 763 853 q 781 926 763 907 q 826 944 799 944 q 878 920 856 944 q 900 851 900 896 m 590 0 l 590 100 q 494 16 553 49 q 364 -17 435 -17 q 244 8 299 -17 q 149 77 189 32 q 88 188 110 122 q 65 335 65 253 q 87 481 65 415 q 148 592 108 546 q 242 663 188 638 q 364 688 297 688 q 491 656 432 688 q 590 569 550 625 l 590 926 l 694 926 l 694 0 l 590 0 m 389 76 q 507 107 451 76 q 590 182 563 138 l 590 486 q 507 563 563 531 q 389 594 451 594 q 299 575 339 594 q 231 521 258 556 q 188 438 203 486 q 174 335 174 390 q 188 232 174 279 q 231 150 203 185 q 299 96 258 115 q 389 76 339 76 z "},"Đ":{"ha":1011,"x_min":14,"x_max":939,"o":"m 147 0 l 147 415 l 14 415 l 14 500 l 147 500 l 147 926 l 464 926 q 660 891 572 926 q 809 793 747 856 q 905 646 871 731 q 939 463 939 561 q 905 279 939 364 q 809 133 871 194 q 660 35 747 71 q 464 0 572 0 l 147 0 m 464 103 q 615 131 549 103 q 726 208 681 160 q 796 322 772 257 q 819 463 819 388 q 796 603 819 538 q 727 718 772 669 q 616 795 682 767 q 464 824 550 824 l 263 824 l 263 500 l 497 500 l 497 415 l 263 415 l 263 103 l 464 103 z "},"đ":{"ha":801,"x_min":65,"x_max":789,"o":"m 590 0 l 590 100 q 494 16 553 49 q 364 -17 435 -17 q 244 8 299 -17 q 149 77 189 32 q 88 188 110 122 q 65 335 65 253 q 87 481 65 415 q 148 592 108 546 q 242 663 188 638 q 364 688 297 688 q 491 656 432 688 q 590 569 550 625 l 590 743 l 372 743 l 372 810 l 590 810 l 590 926 l 694 926 l 694 810 l 789 810 l 789 743 l 694 743 l 694 0 l 590 0 m 389 76 q 507 107 451 76 q 590 182 563 138 l 590 486 q 507 563 563 531 q 389 594 451 594 q 299 575 339 594 q 231 521 258 556 q 188 438 203 486 q 174 335 174 390 q 188 232 174 279 q 231 150 203 185 q 299 96 258 115 q 389 76 339 76 z "},"Ē":{"ha":790,"x_min":108,"x_max":715,"o":"m 108 0 l 108 926 l 715 926 l 715 824 l 224 824 l 224 525 l 706 525 l 706 422 l 224 422 l 224 103 l 715 103 l 715 0 l 108 0 m 158 1026 l 158 1093 l 663 1093 l 663 1026 l 158 1026 z "},"ē":{"ha":782,"x_min":65,"x_max":718,"o":"m 407 -17 q 269 9 332 -17 q 162 81 207 35 q 91 192 117 128 q 65 336 65 257 q 90 473 65 408 q 159 585 115 538 q 263 660 203 632 q 396 688 324 688 q 532 660 472 688 q 633 583 592 632 q 697 469 675 535 q 718 328 718 403 l 718 301 l 175 301 q 196 212 178 254 q 245 138 214 169 q 319 88 276 107 q 417 69 363 69 q 529 92 475 69 q 624 154 583 114 l 674 86 q 557 10 624 36 q 407 -17 490 -17 m 615 378 q 602 455 615 415 q 562 527 589 494 q 493 581 535 560 q 394 601 451 601 q 300 581 340 601 q 233 528 260 560 q 191 456 206 496 q 175 378 176 417 l 615 378 m 143 794 l 143 861 l 647 861 l 647 794 l 143 794 z "},"Ĕ":{"ha":790,"x_min":108,"x_max":715,"o":"m 108 0 l 108 926 l 715 926 l 715 824 l 224 824 l 224 525 l 706 525 l 706 422 l 224 422 l 224 103 l 715 103 l 715 0 l 108 0 m 657 1101 q 552 1012 615 1044 q 414 979 489 979 q 276 1012 339 979 q 169 1101 213 1044 l 221 1146 q 303 1073 254 1100 q 414 1046 351 1046 q 524 1072 475 1046 q 606 1146 574 1099 l 657 1101 l 657 1101 z "},"ĕ":{"ha":782,"x_min":65,"x_max":718,"o":"m 407 -17 q 269 9 332 -17 q 162 81 207 35 q 91 192 117 128 q 65 336 65 257 q 90 473 65 408 q 159 585 115 538 q 263 660 203 632 q 396 688 324 688 q 532 660 472 688 q 633 583 592 632 q 697 469 675 535 q 718 328 718 403 l 718 301 l 175 301 q 196 212 178 254 q 245 138 214 169 q 319 88 276 107 q 417 69 363 69 q 529 92 475 69 q 624 154 583 114 l 674 86 q 557 10 624 36 q 407 -17 490 -17 m 615 378 q 602 455 615 415 q 562 527 589 494 q 493 581 535 560 q 394 601 451 601 q 300 581 340 601 q 233 528 260 560 q 191 456 206 496 q 175 378 176 417 l 615 378 m 642 869 q 537 780 600 813 q 399 747 474 747 q 260 780 324 747 q 154 869 197 813 l 206 914 q 288 841 239 868 q 399 814 336 814 q 509 840 460 814 q 590 914 558 867 l 642 869 l 642 869 z "},"Ė":{"ha":790,"x_min":108,"x_max":715,"o":"m 108 0 l 108 926 l 715 926 l 715 824 l 224 824 l 224 525 l 706 525 l 706 422 l 224 422 l 224 103 l 715 103 l 715 0 l 108 0 m 417 1003 q 371 1022 390 1003 q 351 1068 351 1040 q 371 1115 351 1096 q 417 1133 390 1133 q 463 1115 444 1133 q 481 1068 481 1096 q 463 1022 481 1040 q 417 1003 444 1003 z "},"ė":{"ha":782,"x_min":65,"x_max":718,"o":"m 407 -17 q 269 9 332 -17 q 162 81 207 35 q 91 192 117 128 q 65 336 65 257 q 90 473 65 408 q 159 585 115 538 q 263 660 203 632 q 396 688 324 688 q 532 660 472 688 q 633 583 592 632 q 697 469 675 535 q 718 328 718 403 l 718 301 l 175 301 q 196 212 178 254 q 245 138 214 169 q 319 88 276 107 q 417 69 363 69 q 529 92 475 69 q 624 154 583 114 l 674 86 q 557 10 624 36 q 407 -17 490 -17 m 615 378 q 602 455 615 415 q 562 527 589 494 q 493 581 535 560 q 394 601 451 601 q 300 581 340 601 q 233 528 260 560 q 191 456 206 496 q 175 378 176 417 l 615 378 m 397 771 q 351 790 371 771 q 332 836 332 808 q 351 883 332 864 q 397 901 371 901 q 443 883 425 901 q 461 836 461 864 q 443 790 461 808 q 397 771 425 771 z "},"Ę":{"ha":790,"x_min":108,"x_max":794,"o":"m 715 0 q 638 -58 665 -25 q 610 -135 610 -90 q 626 -187 610 -171 q 671 -204 643 -204 q 717 -189 700 -204 q 743 -146 733 -174 l 794 -175 q 750 -233 779 -208 q 671 -258 721 -258 q 585 -230 622 -258 q 547 -137 547 -201 q 567 -62 547 -97 q 621 0 586 -28 l 108 0 l 108 926 l 715 926 l 715 824 l 224 824 l 224 525 l 706 525 l 706 422 l 224 422 l 224 103 l 715 103 l 715 0 l 715 0 z "},"ę":{"ha":782,"x_min":65,"x_max":718,"o":"m 407 -17 q 269 9 332 -17 q 162 81 207 35 q 91 192 117 128 q 65 336 65 257 q 90 473 65 408 q 159 585 115 538 q 263 660 203 632 q 396 688 324 688 q 532 660 472 688 q 633 583 592 632 q 697 469 675 535 q 718 328 718 403 l 718 301 l 175 301 q 196 212 178 254 q 245 138 214 169 q 319 88 276 107 q 417 69 363 69 q 529 92 475 69 q 624 154 583 114 l 674 86 q 526 0 610 22 q 449 -58 476 -25 q 422 -135 422 -90 q 439 -187 422 -171 q 483 -204 456 -204 q 529 -189 513 -204 q 556 -146 546 -174 l 607 -175 q 563 -233 592 -208 q 483 -258 533 -258 q 397 -230 435 -258 q 360 -137 360 -201 q 374 -72 360 -103 q 414 -17 389 -42 l 407 -17 m 615 378 q 602 455 615 415 q 562 527 589 494 q 493 581 535 560 q 394 601 451 601 q 300 581 340 601 q 233 528 260 560 q 191 456 206 496 q 175 378 176 417 l 615 378 z "},"Ě":{"ha":790,"x_min":108,"x_max":715,"o":"m 365 1004 l 229 1204 l 300 1204 l 415 1057 l 526 1204 l 597 1204 l 465 1004 l 365 1004 m 108 0 l 108 926 l 715 926 l 715 824 l 224 824 l 224 525 l 706 525 l 706 422 l 224 422 l 224 103 l 715 103 l 715 0 l 108 0 z "},"ě":{"ha":782,"x_min":65,"x_max":718,"o":"m 349 772 l 213 972 l 283 972 l 399 825 l 510 972 l 581 972 l 449 772 l 349 772 m 407 -17 q 269 9 332 -17 q 162 81 207 35 q 91 192 117 128 q 65 336 65 257 q 90 473 65 408 q 159 585 115 538 q 263 660 203 632 q 396 688 324 688 q 532 660 472 688 q 633 583 592 632 q 697 469 675 535 q 718 328 718 403 l 718 301 l 175 301 q 196 212 178 254 q 245 138 214 169 q 319 88 276 107 q 417 69 363 69 q 529 92 475 69 q 624 154 583 114 l 674 86 q 557 10 624 36 q 407 -17 490 -17 m 615 378 q 602 455 615 415 q 562 527 589 494 q 493 581 535 560 q 394 601 451 601 q 300 581 340 601 q 233 528 260 560 q 191 456 206 496 q 175 378 176 417 l 615 378 z "},"Ĝ":{"ha":990,"x_min":71,"x_max":911,"o":"m 667 1004 l 551 1151 l 440 1004 l 369 1004 l 501 1204 l 601 1204 l 738 1004 l 667 1004 m 547 -18 q 362 17 449 -18 q 210 115 275 51 q 108 266 146 178 q 71 463 71 354 q 108 659 71 571 q 210 810 146 747 q 362 907 275 872 q 547 942 449 942 q 758 893 671 942 q 907 768 844 844 l 815 711 q 701 803 771 768 q 547 839 631 839 q 406 811 471 839 q 292 733 340 783 q 217 615 244 683 q 190 463 190 546 q 217 311 190 381 q 292 192 244 242 q 406 113 340 142 q 547 85 471 85 q 626 94 589 85 q 696 117 664 103 q 753 150 728 132 q 796 185 779 168 l 796 374 l 478 374 l 478 476 l 911 476 l 911 142 q 753 26 846 69 q 547 -18 661 -18 z "},"ĝ":{"ha":797,"x_min":65,"x_max":693,"o":"m 517 772 l 401 919 l 290 772 l 219 772 l 351 972 l 451 972 l 588 772 l 517 772 m 374 -272 q 225 -251 288 -272 q 103 -172 163 -231 l 156 -94 q 249 -165 197 -144 q 374 -186 301 -186 q 454 -176 415 -186 q 523 -141 493 -165 q 571 -78 553 -117 q 589 15 589 -40 l 589 111 q 494 26 553 60 q 364 -8 435 -8 q 244 15 299 -8 q 149 84 189 39 q 88 193 110 129 q 65 339 65 257 q 87 484 65 419 q 148 594 108 549 q 242 663 188 639 q 364 688 297 688 q 490 656 432 688 q 589 569 549 625 l 589 671 l 693 671 l 693 19 q 666 -120 693 -64 q 594 -210 639 -176 q 492 -258 550 -243 q 374 -272 435 -272 m 389 83 q 450 92 419 83 q 507 117 481 101 q 554 151 533 132 q 589 193 575 171 l 589 486 q 554 528 575 508 q 507 562 533 547 q 450 585 481 576 q 389 594 419 594 q 299 576 339 594 q 231 523 258 557 q 188 442 203 489 q 174 339 174 394 q 188 237 174 283 q 231 156 203 190 q 299 103 258 122 q 389 83 339 83 z "},"Ğ":{"ha":990,"x_min":71,"x_max":911,"o":"m 547 -18 q 362 17 449 -18 q 210 115 275 51 q 108 266 146 178 q 71 463 71 354 q 108 659 71 571 q 210 810 146 747 q 362 907 275 872 q 547 942 449 942 q 758 893 671 942 q 907 768 844 844 l 815 711 q 701 803 771 768 q 547 839 631 839 q 406 811 471 839 q 292 733 340 783 q 217 615 244 683 q 190 463 190 546 q 217 311 190 381 q 292 192 244 242 q 406 113 340 142 q 547 85 471 85 q 626 94 589 85 q 696 117 664 103 q 753 150 728 132 q 796 185 779 168 l 796 374 l 478 374 l 478 476 l 911 476 l 911 142 q 753 26 846 69 q 547 -18 661 -18 m 794 1101 q 690 1012 753 1044 q 551 979 626 979 q 413 1012 476 979 q 307 1101 350 1044 l 358 1146 q 440 1073 392 1100 q 551 1046 489 1046 q 662 1072 613 1046 q 743 1146 711 1099 l 794 1101 l 794 1101 z "},"ğ":{"ha":797,"x_min":65,"x_max":693,"o":"m 374 -272 q 225 -251 288 -272 q 103 -172 163 -231 l 156 -94 q 249 -165 197 -144 q 374 -186 301 -186 q 454 -176 415 -186 q 523 -141 493 -165 q 571 -78 553 -117 q 589 15 589 -40 l 589 111 q 494 26 553 60 q 364 -8 435 -8 q 244 15 299 -8 q 149 84 189 39 q 88 193 110 129 q 65 339 65 257 q 87 484 65 419 q 148 594 108 549 q 242 663 188 639 q 364 688 297 688 q 490 656 432 688 q 589 569 549 625 l 589 671 l 693 671 l 693 19 q 666 -120 693 -64 q 594 -210 639 -176 q 492 -258 550 -243 q 374 -272 435 -272 m 389 83 q 450 92 419 83 q 507 117 481 101 q 554 151 533 132 q 589 193 575 171 l 589 486 q 554 528 575 508 q 507 562 533 547 q 450 585 481 576 q 389 594 419 594 q 299 576 339 594 q 231 523 258 557 q 188 442 203 489 q 174 339 174 394 q 188 237 174 283 q 231 156 203 190 q 299 103 258 122 q 389 83 339 83 m 646 869 q 541 780 604 813 q 403 747 478 747 q 265 780 328 747 q 158 869 201 813 l 210 914 q 292 841 243 868 q 403 814 340 814 q 513 840 464 814 q 594 914 563 867 l 646 869 l 646 869 z "},"Ġ":{"ha":990,"x_min":71,"x_max":911,"o":"m 547 -18 q 362 17 449 -18 q 210 115 275 51 q 108 266 146 178 q 71 463 71 354 q 108 659 71 571 q 210 810 146 747 q 362 907 275 872 q 547 942 449 942 q 758 893 671 942 q 907 768 844 844 l 815 711 q 701 803 771 768 q 547 839 631 839 q 406 811 471 839 q 292 733 340 783 q 217 615 244 683 q 190 463 190 546 q 217 311 190 381 q 292 192 244 242 q 406 113 340 142 q 547 85 471 85 q 626 94 589 85 q 696 117 664 103 q 753 150 728 132 q 796 185 779 168 l 796 374 l 478 374 l 478 476 l 911 476 l 911 142 q 753 26 846 69 q 547 -18 661 -18 m 550 1003 q 504 1022 524 1003 q 485 1068 485 1040 q 504 1115 485 1096 q 550 1133 524 1133 q 596 1115 578 1133 q 614 1068 614 1096 q 596 1022 614 1040 q 550 1003 578 1003 z "},"ġ":{"ha":797,"x_min":65,"x_max":693,"o":"m 374 -272 q 225 -251 288 -272 q 103 -172 163 -231 l 156 -94 q 249 -165 197 -144 q 374 -186 301 -186 q 454 -176 415 -186 q 523 -141 493 -165 q 571 -78 553 -117 q 589 15 589 -40 l 589 111 q 494 26 553 60 q 364 -8 435 -8 q 244 15 299 -8 q 149 84 189 39 q 88 193 110 129 q 65 339 65 257 q 87 484 65 419 q 148 594 108 549 q 242 663 188 639 q 364 688 297 688 q 490 656 432 688 q 589 569 549 625 l 589 671 l 693 671 l 693 19 q 666 -120 693 -64 q 594 -210 639 -176 q 492 -258 550 -243 q 374 -272 435 -272 m 389 83 q 450 92 419 83 q 507 117 481 101 q 554 151 533 132 q 589 193 575 171 l 589 486 q 554 528 575 508 q 507 562 533 547 q 450 585 481 576 q 389 594 419 594 q 299 576 339 594 q 231 523 258 557 q 188 442 203 489 q 174 339 174 394 q 188 237 174 283 q 231 156 203 190 q 299 103 258 122 q 389 83 339 83 m 401 771 q 356 790 375 771 q 336 836 336 808 q 356 883 336 864 q 401 901 375 901 q 447 883 429 901 q 465 836 465 864 q 447 790 465 808 q 401 771 429 771 z "},"Ģ":{"ha":990,"x_min":71,"x_max":911,"o":"m 622 -192 q 593 -298 622 -249 q 524 -378 564 -347 l 478 -342 q 533 -287 510 -321 q 558 -222 556 -253 q 551 -224 557 -224 q 543 -225 546 -225 q 501 -208 518 -225 q 485 -164 485 -190 q 503 -117 485 -136 q 549 -99 521 -99 q 600 -123 578 -99 q 622 -192 622 -147 m 547 -18 q 362 17 449 -18 q 210 115 275 51 q 108 266 146 178 q 71 463 71 354 q 108 659 71 571 q 210 810 146 747 q 362 907 275 872 q 547 942 449 942 q 758 893 671 942 q 907 768 844 844 l 815 711 q 701 803 771 768 q 547 839 631 839 q 406 811 471 839 q 292 733 340 783 q 217 615 244 683 q 190 463 190 546 q 217 311 190 381 q 292 192 244 242 q 406 113 340 142 q 547 85 471 85 q 626 94 589 85 q 696 117 664 103 q 753 150 728 132 q 796 185 779 168 l 796 374 l 478 374 l 478 476 l 911 476 l 911 142 q 753 26 846 69 q 547 -18 661 -18 z "},"ģ":{"ha":797,"x_min":65,"x_max":693,"o":"m 331 849 q 358 964 331 911 q 426 1044 386 1017 l 472 1007 q 419 955 443 988 q 393 890 396 922 l 394 890 q 397 891 396 890 q 400 892 397 892 q 444 874 424 892 q 464 829 464 856 q 444 785 464 804 q 397 765 425 765 q 352 785 374 765 q 331 849 331 806 m 374 -272 q 225 -251 288 -272 q 103 -172 163 -231 l 156 -94 q 249 -165 197 -144 q 374 -186 301 -186 q 454 -176 415 -186 q 523 -141 493 -165 q 571 -78 553 -117 q 589 15 589 -40 l 589 111 q 494 26 553 60 q 364 -8 435 -8 q 244 15 299 -8 q 149 84 189 39 q 88 193 110 129 q 65 339 65 257 q 87 484 65 419 q 148 594 108 549 q 242 663 188 639 q 364 688 297 688 q 490 656 432 688 q 589 569 549 625 l 589 671 l 693 671 l 693 19 q 666 -120 693 -64 q 594 -210 639 -176 q 492 -258 550 -243 q 374 -272 435 -272 m 389 83 q 450 92 419 83 q 507 117 481 101 q 554 151 533 132 q 589 193 575 171 l 589 486 q 554 528 575 508 q 507 562 533 547 q 450 585 481 576 q 389 594 419 594 q 299 576 339 594 q 231 523 258 557 q 188 442 203 489 q 174 339 174 394 q 188 237 174 283 q 231 156 203 190 q 299 103 258 122 q 389 83 339 83 z "},"Ĥ":{"ha":989,"x_min":108,"x_max":881,"o":"m 604 1004 l 489 1151 l 378 1004 l 307 1004 l 439 1204 l 539 1204 l 675 1004 l 604 1004 m 765 0 l 765 425 l 224 425 l 224 0 l 108 0 l 108 926 l 224 926 l 224 528 l 765 528 l 765 926 l 881 926 l 881 0 l 765 0 z "},"ĥ":{"ha":767,"x_min":104,"x_max":663,"o":"m 499 1004 l 383 1151 l 272 1004 l 201 1004 l 333 1204 l 433 1204 l 569 1004 l 499 1004 m 558 0 l 558 442 q 547 515 558 486 q 517 563 536 544 q 469 588 497 581 q 407 594 440 594 q 347 586 376 594 q 292 563 318 578 q 245 530 267 549 q 208 490 224 511 l 208 0 l 104 0 l 104 926 l 208 926 l 208 574 q 251 615 226 594 q 308 651 276 635 q 375 678 339 668 q 449 688 411 688 q 608 635 554 688 q 663 474 663 583 l 663 0 l 558 0 z "},"Ħ":{"ha":1015,"x_min":14,"x_max":1001,"o":"m 779 0 l 779 425 l 238 425 l 238 0 l 122 0 l 122 692 l 14 692 l 14 758 l 122 758 l 122 926 l 238 926 l 238 758 l 779 758 l 779 926 l 894 926 l 894 758 l 1001 758 l 1001 692 l 894 692 l 894 0 l 779 0 m 779 528 l 779 692 l 238 692 l 238 528 l 779 528 z "},"ħ":{"ha":769,"x_min":13,"x_max":665,"o":"m 211 743 l 211 574 q 254 615 229 594 q 310 651 279 635 q 378 678 342 668 q 451 688 414 688 q 611 635 557 688 q 665 474 665 583 l 665 0 l 561 0 l 561 442 q 550 515 561 486 q 519 563 539 544 q 472 588 500 581 q 410 594 443 594 q 350 586 379 594 q 295 563 321 578 q 248 530 269 549 q 211 490 226 511 l 211 0 l 107 0 l 107 743 l 13 743 l 13 810 l 107 810 l 107 926 l 211 926 l 211 810 l 428 810 l 428 743 l 211 743 z "},"Ĩ":{"ha":332,"x_min":-50,"x_max":385,"o":"m 108 0 l 108 926 l 224 926 l 224 0 l 108 0 m 250 1001 q 190 1022 213 1001 q 151 1065 168 1042 q 119 1109 135 1089 q 79 1129 104 1129 q 32 1101 51 1129 q 13 1010 13 1072 l -50 1010 q -16 1144 -50 1092 q 85 1196 18 1196 q 144 1176 122 1196 q 183 1132 167 1156 q 215 1088 199 1108 q 256 1068 231 1068 q 303 1097 283 1068 q 322 1188 322 1125 l 385 1188 q 351 1053 385 1106 q 250 1001 317 1001 z "},"ĩ":{"ha":313,"x_min":-60,"x_max":375,"o":"m 104 0 l 104 671 l 208 671 l 208 0 l 104 0 m 240 769 q 181 790 203 769 q 142 833 158 810 q 110 877 125 857 q 69 897 94 897 q 22 869 42 897 q 3 778 3 840 l -60 778 q -26 912 -60 860 q 75 964 8 964 q 135 944 113 964 q 173 900 157 924 q 205 856 189 876 q 246 836 221 836 q 293 865 274 836 q 313 956 313 893 l 375 956 q 341 822 375 874 q 240 769 307 769 z "},"Ī":{"ha":332,"x_min":-83,"x_max":421,"o":"m 108 0 l 108 926 l 224 926 l 224 0 l 108 0 m -83 1026 l -83 1093 l 421 1093 l 421 1026 l -83 1026 z "},"ī":{"ha":313,"x_min":-94,"x_max":410,"o":"m 104 0 l 104 671 l 208 671 l 208 0 l 104 0 m -94 794 l -94 861 l 410 861 l 410 794 l -94 794 z "},"Ĭ":{"ha":332,"x_min":-75,"x_max":413,"o":"m 108 0 l 108 926 l 224 926 l 224 0 l 108 0 m 413 1101 q 308 1012 371 1044 q 169 979 244 979 q 31 1012 94 979 q -75 1101 -32 1044 l -24 1146 q 58 1073 10 1100 q 169 1046 107 1046 q 280 1072 231 1046 q 361 1146 329 1099 l 413 1101 l 413 1101 z "},"ĭ":{"ha":313,"x_min":-86,"x_max":401,"o":"m 104 0 l 104 671 l 208 671 l 208 0 l 104 0 m 401 869 q 297 780 360 813 q 158 747 233 747 q 20 780 83 747 q -86 869 -43 813 l -35 914 q 47 841 -1 868 q 158 814 96 814 q 269 840 219 814 q 350 914 318 867 l 401 869 l 401 869 z "},"Į":{"ha":332,"x_min":56,"x_max":303,"o":"m 303 -175 q 258 -233 288 -208 q 179 -258 229 -258 q 93 -230 131 -258 q 56 -137 56 -201 q 75 -62 56 -97 q 129 0 94 -28 l 108 0 l 108 926 l 224 926 l 224 0 q 146 -58 174 -25 q 118 -135 118 -90 q 135 -187 118 -171 q 179 -204 151 -204 q 225 -189 208 -204 q 251 -146 242 -174 l 303 -175 z "},"į":{"ha":313,"x_min":40,"x_max":288,"o":"m 288 -175 q 243 -233 272 -208 q 164 -258 214 -258 q 78 -230 115 -258 q 40 -137 40 -201 q 60 -62 40 -97 q 114 0 79 -28 l 104 0 l 104 671 l 208 671 l 208 0 q 131 -58 158 -25 q 103 -135 103 -90 q 119 -187 103 -171 q 164 -204 136 -204 q 210 -189 193 -204 q 236 -146 226 -174 l 288 -175 m 156 767 q 107 787 128 767 q 86 836 86 807 q 107 886 86 865 q 156 907 128 907 q 206 886 185 907 q 226 836 226 865 q 206 787 226 807 q 156 767 185 767 z "},"İ":{"ha":332,"x_min":101,"x_max":231,"o":"m 108 0 l 108 926 l 224 926 l 224 0 l 108 0 m 167 1003 q 121 1022 140 1003 q 101 1068 101 1040 q 121 1115 101 1096 q 167 1133 140 1133 q 213 1115 194 1133 q 231 1068 231 1096 q 213 1022 231 1040 q 167 1003 194 1003 z "},"ı":{"ha":313,"x_min":104,"x_max":208,"o":"m 104 0 l 104 671 l 208 671 l 208 0 l 104 0 z "},"Ĳ":{"ha":990,"x_min":108,"x_max":883,"o":"m 108 0 l 108 926 l 224 926 l 224 0 l 108 0 m 589 -17 q 455 8 514 -17 q 347 90 396 33 l 407 178 q 479 114 438 142 q 582 86 521 86 q 718 140 668 86 q 768 281 768 193 l 768 926 l 883 926 l 883 279 q 860 148 883 204 q 798 56 838 92 q 705 1 758 19 q 589 -17 651 -17 z "},"ĳ":{"ha":626,"x_min":86,"x_max":539,"o":"m 156 767 q 107 787 128 767 q 86 836 86 807 q 107 886 86 865 q 156 907 128 907 q 206 886 185 907 q 226 836 226 865 q 206 787 226 807 q 156 767 185 767 m 104 0 l 104 671 l 208 671 l 208 0 l 104 0 m 468 767 q 419 787 440 767 q 399 836 399 807 q 419 886 399 865 q 468 907 440 907 q 518 886 497 907 q 539 836 539 865 q 518 787 539 807 q 468 767 497 767 m 322 -272 q 239 -260 271 -272 q 175 -222 207 -247 l 213 -143 q 253 -174 231 -161 q 308 -186 276 -186 q 386 -158 356 -186 q 417 -65 417 -129 l 417 671 l 521 671 l 521 -65 q 469 -219 521 -165 q 322 -272 418 -272 z "},"Ĵ":{"ha":660,"x_min":15,"x_max":678,"o":"m 607 1004 l 492 1151 l 381 1004 l 310 1004 l 442 1204 l 542 1204 l 678 1004 l 607 1004 m 257 -17 q 123 8 182 -17 q 15 90 64 33 l 75 178 q 147 114 106 142 q 250 86 189 86 q 386 140 336 86 q 436 281 436 193 l 436 926 l 551 926 l 551 279 q 528 148 551 204 q 466 56 506 92 q 373 1 426 19 q 257 -17 319 -17 z "},"ĵ":{"ha":313,"x_min":-137,"x_max":344,"o":"m 274 772 l 158 919 l 47 772 l -24 772 l 108 972 l 208 972 l 344 772 l 274 772 m 10 -272 q -74 -260 -42 -272 q -137 -222 -106 -247 l -100 -143 q -59 -174 -82 -161 q -4 -186 -36 -186 q 74 -158 43 -186 q 104 -65 104 -129 l 104 671 l 208 671 l 208 -65 q 157 -219 208 -165 q 10 -272 106 -272 z "},"Ķ":{"ha":842,"x_min":108,"x_max":811,"o":"m 500 -192 q 471 -298 500 -249 q 401 -378 442 -347 l 356 -342 q 410 -287 388 -321 q 436 -222 433 -253 q 429 -224 435 -224 q 421 -225 424 -225 q 379 -208 396 -225 q 363 -164 363 -190 q 381 -117 363 -136 q 426 -99 399 -99 q 478 -123 456 -99 q 500 -192 500 -147 m 668 0 l 317 417 l 224 311 l 224 0 l 108 0 l 108 926 l 224 926 l 224 447 l 633 926 l 778 926 l 392 486 l 811 0 l 668 0 z "},"ķ":{"ha":714,"x_min":104,"x_max":694,"o":"m 436 -192 q 407 -298 436 -249 q 338 -378 378 -347 l 292 -342 q 347 -287 324 -321 q 372 -222 369 -253 q 365 -224 371 -224 q 357 -225 360 -225 q 315 -208 332 -225 q 299 -164 299 -190 q 317 -117 299 -136 q 363 -99 335 -99 q 414 -123 392 -99 q 436 -192 436 -147 m 561 0 l 319 301 l 208 192 l 208 0 l 104 0 l 104 926 l 208 926 l 208 314 l 561 671 l 693 671 l 396 367 l 694 0 l 561 0 z "},"ĸ":{"ha":714,"x_min":104,"x_max":694,"o":"m 561 0 l 319 301 l 208 192 l 208 0 l 104 0 l 104 671 l 208 671 l 208 314 l 561 671 l 693 671 l 396 367 l 694 0 l 561 0 z "},"Ĺ":{"ha":708,"x_min":108,"x_max":654,"o":"m 381 1004 l 301 1004 l 507 1204 l 615 1204 l 381 1004 m 108 0 l 108 926 l 224 926 l 224 103 l 654 103 l 654 0 l 108 0 z "},"ĺ":{"ha":313,"x_min":78,"x_max":392,"o":"m 157 1004 l 78 1004 l 283 1204 l 392 1204 l 157 1004 m 104 0 l 104 926 l 208 926 l 208 0 l 104 0 z "},"Ļ":{"ha":708,"x_min":108,"x_max":654,"o":"m 443 -192 q 414 -298 443 -249 q 344 -378 385 -347 l 299 -342 q 353 -287 331 -321 q 379 -222 376 -253 q 372 -224 378 -224 q 364 -225 367 -225 q 322 -208 339 -225 q 306 -164 306 -190 q 324 -117 306 -136 q 369 -99 342 -99 q 421 -123 399 -99 q 443 -192 443 -147 m 108 0 l 108 926 l 224 926 l 224 103 l 654 103 l 654 0 l 108 0 z "},"ļ":{"ha":313,"x_min":92,"x_max":236,"o":"m 236 -192 q 207 -298 236 -249 q 138 -378 178 -347 l 92 -342 q 147 -287 124 -321 q 172 -222 169 -253 q 165 -224 171 -224 q 157 -225 160 -225 q 115 -208 132 -225 q 99 -164 99 -190 q 117 -117 99 -136 q 163 -99 135 -99 q 214 -123 192 -99 q 236 -192 236 -147 m 104 0 l 104 926 l 208 926 l 208 0 l 104 0 z "},"Ľ":{"ha":708,"x_min":108,"x_max":654,"o":"m 492 851 q 463 745 492 794 q 393 665 433 696 l 347 701 q 402 756 379 722 q 428 821 425 790 q 421 819 426 819 q 413 818 415 818 q 371 835 388 818 q 354 879 354 853 q 372 926 354 907 q 418 944 390 944 q 469 920 447 944 q 492 851 492 896 m 108 0 l 108 926 l 224 926 l 224 103 l 654 103 l 654 0 l 108 0 z "},"ľ":{"ha":404,"x_min":104,"x_max":432,"o":"m 432 851 q 403 745 432 794 q 333 665 374 696 l 288 701 q 342 756 319 722 q 368 821 365 790 q 361 819 367 819 q 353 818 356 818 q 311 835 328 818 q 294 879 294 853 q 313 926 294 907 q 358 944 331 944 q 410 920 388 944 q 432 851 432 896 m 104 0 l 104 926 l 208 926 l 208 0 l 104 0 z "},"Ŀ":{"ha":708,"x_min":108,"x_max":654,"o":"m 108 0 l 108 926 l 224 926 l 224 103 l 654 103 l 654 0 l 108 0 m 589 474 q 567 421 589 443 q 513 399 544 399 q 458 421 481 399 q 436 474 436 443 q 458 528 436 506 q 513 550 481 550 q 567 528 544 550 q 589 474 589 506 z "},"ŀ":{"ha":426,"x_min":104,"x_max":446,"o":"m 104 0 l 104 926 l 208 926 l 208 0 l 104 0 m 446 339 q 424 286 446 308 q 369 264 401 264 q 315 286 338 264 q 293 339 293 308 q 315 393 293 371 q 369 415 338 415 q 424 393 401 415 q 446 339 446 371 z "},"Ł":{"ha":735,"x_min":14,"x_max":681,"o":"m 14 407 l 135 476 l 135 926 l 250 926 l 250 543 l 385 621 l 385 521 l 250 443 l 250 103 l 681 103 l 681 0 l 135 0 l 135 376 l 14 307 l 14 407 z "},"ł":{"ha":399,"x_min":14,"x_max":383,"o":"m 14 400 l 147 476 l 147 926 l 251 926 l 251 536 l 383 611 l 383 528 l 251 453 l 251 0 l 147 0 l 147 393 l 14 317 l 14 400 z "},"Ń":{"ha":983,"x_min":108,"x_max":875,"o":"m 503 1004 l 424 1004 l 629 1204 l 738 1204 l 503 1004 m 764 0 l 224 739 l 224 0 l 108 0 l 108 926 l 226 926 l 760 203 l 760 926 l 875 926 l 875 0 l 764 0 z "},"ń":{"ha":765,"x_min":104,"x_max":661,"o":"m 382 772 l 303 772 l 508 972 l 617 972 l 382 772 m 557 0 l 557 439 q 516 561 557 528 q 407 594 475 594 q 347 586 376 594 q 292 563 318 578 q 244 530 265 549 q 208 490 222 511 l 208 0 l 104 0 l 104 671 l 208 671 l 208 574 q 251 615 226 594 q 308 651 276 635 q 374 678 339 668 q 447 688 410 688 q 661 471 661 688 l 661 0 l 557 0 z "},"Ņ":{"ha":983,"x_min":108,"x_max":875,"o":"m 571 -192 q 542 -298 571 -249 q 472 -378 513 -347 l 426 -342 q 481 -287 458 -321 q 507 -222 504 -253 q 500 -224 506 -224 q 492 -225 494 -225 q 450 -208 467 -225 q 433 -164 433 -190 q 451 -117 433 -136 q 497 -99 469 -99 q 549 -123 526 -99 q 571 -192 571 -147 m 764 0 l 224 739 l 224 0 l 108 0 l 108 926 l 226 926 l 760 203 l 760 926 l 875 926 l 875 0 l 764 0 z "},"ņ":{"ha":765,"x_min":104,"x_max":661,"o":"m 458 -192 q 429 -298 458 -249 q 360 -378 400 -347 l 314 -342 q 369 -287 346 -321 q 394 -222 392 -253 q 388 -224 393 -224 q 379 -225 382 -225 q 338 -208 354 -225 q 321 -164 321 -190 q 339 -117 321 -136 q 385 -99 357 -99 q 436 -123 414 -99 q 458 -192 458 -147 m 557 0 l 557 439 q 516 561 557 528 q 407 594 475 594 q 347 586 376 594 q 292 563 318 578 q 244 530 265 549 q 208 490 222 511 l 208 0 l 104 0 l 104 671 l 208 671 l 208 574 q 251 615 226 594 q 308 651 276 635 q 374 678 339 668 q 447 688 410 688 q 661 471 661 688 l 661 0 l 557 0 z "},"Ň":{"ha":983,"x_min":108,"x_max":875,"o":"m 442 1004 l 306 1204 l 376 1204 l 492 1057 l 603 1204 l 674 1204 l 542 1004 l 442 1004 m 764 0 l 224 739 l 224 0 l 108 0 l 108 926 l 226 926 l 760 203 l 760 926 l 875 926 l 875 0 l 764 0 z "},"ň":{"ha":765,"x_min":104,"x_max":661,"o":"m 336 772 l 200 972 l 271 972 l 386 825 l 497 972 l 568 972 l 436 772 l 336 772 m 557 0 l 557 439 q 516 561 557 528 q 407 594 475 594 q 347 586 376 594 q 292 563 318 578 q 244 530 265 549 q 208 490 222 511 l 208 0 l 104 0 l 104 671 l 208 671 l 208 574 q 251 615 226 594 q 308 651 276 635 q 374 678 339 668 q 447 688 410 688 q 661 471 661 688 l 661 0 l 557 0 z "},"ŉ":{"ha":765,"x_min":81,"x_max":661,"o":"m 225 939 q 196 833 225 882 q 126 753 167 783 l 81 789 q 135 844 113 810 q 161 908 158 878 q 154 906 160 907 q 146 906 149 906 q 104 923 121 906 q 88 967 88 940 q 106 1013 88 994 q 151 1032 124 1032 q 203 1008 181 1032 q 225 939 225 983 m 557 0 l 557 439 q 516 561 557 528 q 407 594 475 594 q 347 586 376 594 q 292 563 318 578 q 244 530 265 549 q 208 490 222 511 l 208 0 l 104 0 l 104 671 l 208 671 l 208 574 q 251 615 226 594 q 308 651 276 635 q 374 678 339 668 q 447 688 410 688 q 661 471 661 688 l 661 0 l 557 0 z "},"Ŋ":{"ha":983,"x_min":108,"x_max":875,"o":"m 581 -272 q 447 -247 507 -272 q 339 -165 388 -222 l 400 -78 q 471 -142 429 -114 q 574 -169 513 -169 q 705 -122 656 -169 q 758 6 754 -74 l 224 739 l 224 0 l 108 0 l 108 926 l 226 926 l 760 203 l 760 926 l 875 926 l 875 21 q 852 -110 875 -54 q 790 -201 829 -165 q 697 -255 750 -237 q 581 -272 643 -272 z "},"ŋ":{"ha":765,"x_min":104,"x_max":661,"o":"m 661 -65 q 610 -219 661 -165 q 463 -272 560 -272 q 380 -260 411 -272 q 317 -222 349 -247 l 353 -137 q 394 -167 371 -156 q 449 -179 417 -179 q 526 -152 496 -179 q 557 -65 557 -125 l 557 439 q 516 561 557 528 q 407 594 475 594 q 347 586 376 594 q 292 563 318 578 q 244 530 265 549 q 208 490 222 511 l 208 0 l 104 0 l 104 671 l 208 671 l 208 574 q 251 615 226 594 q 308 651 276 635 q 374 678 339 668 q 447 688 410 688 q 661 471 661 688 l 661 -65 z "},"Ō":{"ha":1063,"x_min":71,"x_max":990,"o":"m 278 1026 l 278 1093 l 782 1093 l 782 1026 l 278 1026 m 531 -17 q 343 19 428 -17 q 198 120 258 56 q 104 272 138 185 q 71 463 71 360 q 104 653 71 565 q 198 805 138 740 q 343 906 258 869 q 531 942 428 942 q 718 906 633 942 q 863 805 803 869 q 957 653 924 740 q 990 463 990 565 q 957 272 990 360 q 863 120 924 185 q 718 19 803 56 q 531 -17 633 -17 m 531 86 q 671 115 608 86 q 778 194 733 143 q 847 313 822 244 q 871 463 871 382 q 847 613 871 543 q 778 732 822 682 q 671 810 733 782 q 531 839 608 839 q 390 810 453 839 q 282 732 326 782 q 214 613 238 682 q 190 463 190 543 q 214 313 190 382 q 282 194 238 244 q 390 115 326 143 q 531 86 453 86 z "},"ō":{"ha":794,"x_min":65,"x_max":729,"o":"m 144 794 l 144 861 l 649 861 l 649 794 l 144 794 m 397 -17 q 259 11 321 -17 q 154 87 197 39 q 88 199 111 135 q 65 336 65 263 q 88 473 65 408 q 154 585 111 538 q 259 660 197 632 q 397 688 321 688 q 535 660 474 688 q 640 585 597 632 q 706 473 683 538 q 729 336 729 408 q 706 199 729 263 q 640 87 683 135 q 535 11 597 39 q 397 -17 474 -17 m 397 76 q 492 98 451 76 q 562 155 533 119 q 605 238 590 190 q 619 336 619 285 q 605 434 619 388 q 562 516 590 481 q 492 573 533 551 q 397 594 451 594 q 301 573 343 594 q 231 516 260 551 q 188 434 203 481 q 174 336 174 388 q 188 238 174 285 q 231 155 203 190 q 301 98 260 119 q 397 76 343 76 z "},"Ŏ":{"ha":1063,"x_min":71,"x_max":990,"o":"m 531 -17 q 343 19 428 -17 q 198 120 258 56 q 104 272 138 185 q 71 463 71 360 q 104 653 71 565 q 198 805 138 740 q 343 906 258 869 q 531 942 428 942 q 718 906 633 942 q 863 805 803 869 q 957 653 924 740 q 990 463 990 565 q 957 272 990 360 q 863 120 924 185 q 718 19 803 56 q 531 -17 633 -17 m 531 86 q 671 115 608 86 q 778 194 733 143 q 847 313 822 244 q 871 463 871 382 q 847 613 871 543 q 778 732 822 682 q 671 810 733 782 q 531 839 608 839 q 390 810 453 839 q 282 732 326 782 q 214 613 238 682 q 190 463 190 543 q 214 313 190 382 q 282 194 238 244 q 390 115 326 143 q 531 86 453 86 m 774 1101 q 669 1012 732 1044 q 531 979 606 979 q 392 1012 456 979 q 286 1101 329 1044 l 338 1146 q 419 1073 371 1100 q 531 1046 468 1046 q 641 1072 592 1046 q 722 1146 690 1099 l 774 1101 l 774 1101 z "},"ŏ":{"ha":794,"x_min":65,"x_max":729,"o":"m 397 -17 q 259 11 321 -17 q 154 87 197 39 q 88 199 111 135 q 65 336 65 263 q 88 473 65 408 q 154 585 111 538 q 259 660 197 632 q 397 688 321 688 q 535 660 474 688 q 640 585 597 632 q 706 473 683 538 q 729 336 729 408 q 706 199 729 263 q 640 87 683 135 q 535 11 597 39 q 397 -17 474 -17 m 397 76 q 492 98 451 76 q 562 155 533 119 q 605 238 590 190 q 619 336 619 285 q 605 434 619 388 q 562 516 590 481 q 492 573 533 551 q 397 594 451 594 q 301 573 343 594 q 231 516 260 551 q 188 434 203 481 q 174 336 174 388 q 188 238 174 285 q 231 155 203 190 q 301 98 260 119 q 397 76 343 76 m 642 869 q 537 780 600 813 q 399 747 474 747 q 260 780 324 747 q 154 869 197 813 l 206 914 q 288 841 239 868 q 399 814 336 814 q 509 840 460 814 q 590 914 558 867 l 642 869 l 642 869 z "},"Ő":{"ha":1063,"x_min":71,"x_max":990,"o":"m 444 1004 l 378 1004 l 508 1204 l 604 1204 l 444 1004 m 642 1004 l 575 1004 l 706 1204 l 801 1204 l 642 1004 m 531 -17 q 343 19 428 -17 q 198 120 258 56 q 104 272 138 185 q 71 463 71 360 q 104 653 71 565 q 198 805 138 740 q 343 906 258 869 q 531 942 428 942 q 718 906 633 942 q 863 805 803 869 q 957 653 924 740 q 990 463 990 565 q 957 272 990 360 q 863 120 924 185 q 718 19 803 56 q 531 -17 633 -17 m 531 86 q 671 115 608 86 q 778 194 733 143 q 847 313 822 244 q 871 463 871 382 q 847 613 871 543 q 778 732 822 682 q 671 810 733 782 q 531 839 608 839 q 390 810 453 839 q 282 732 326 782 q 214 613 238 682 q 190 463 190 543 q 214 313 190 382 q 282 194 238 244 q 390 115 326 143 q 531 86 453 86 z "},"ő":{"ha":794,"x_min":65,"x_max":729,"o":"m 311 772 l 244 772 l 375 972 l 471 972 l 311 772 m 508 772 l 442 772 l 572 972 l 668 972 l 508 772 m 397 -17 q 259 11 321 -17 q 154 87 197 39 q 88 199 111 135 q 65 336 65 263 q 88 473 65 408 q 154 585 111 538 q 259 660 197 632 q 397 688 321 688 q 535 660 474 688 q 640 585 597 632 q 706 473 683 538 q 729 336 729 408 q 706 199 729 263 q 640 87 683 135 q 535 11 597 39 q 397 -17 474 -17 m 397 76 q 492 98 451 76 q 562 155 533 119 q 605 238 590 190 q 619 336 619 285 q 605 434 619 388 q 562 516 590 481 q 492 573 533 551 q 397 594 451 594 q 301 573 343 594 q 231 516 260 551 q 188 434 203 481 q 174 336 174 388 q 188 238 174 285 q 231 155 203 190 q 301 98 260 119 q 397 76 343 76 z "},"Œ":{"ha":1535,"x_min":71,"x_max":1460,"o":"m 851 0 l 851 167 q 790 87 826 121 q 710 30 753 53 q 618 -5 667 7 q 521 -17 569 -17 q 337 19 419 -17 q 195 120 254 56 q 103 272 136 185 q 71 463 71 360 q 103 653 71 565 q 195 804 136 740 q 337 904 254 868 q 521 940 419 940 q 618 929 569 940 q 710 895 667 918 q 790 838 753 872 q 851 758 826 804 l 851 926 l 1460 926 l 1460 824 l 967 824 l 967 525 l 1450 525 l 1450 422 l 967 422 l 967 103 l 1460 103 l 1460 0 l 851 0 m 851 615 q 726 782 811 726 q 533 838 640 838 q 391 809 454 838 q 283 731 328 781 q 214 612 238 681 q 190 463 190 543 q 214 312 190 381 q 283 193 238 243 q 391 115 328 143 q 533 86 454 86 q 726 142 642 86 q 851 310 811 199 l 851 615 z "},"œ":{"ha":1336,"x_min":65,"x_max":1272,"o":"m 731 301 q 751 212 733 254 q 800 138 769 169 q 874 88 831 107 q 971 69 917 69 q 1084 92 1029 69 q 1179 154 1139 114 l 1229 86 q 1111 10 1178 36 q 963 -17 1044 -17 q 849 2 897 -17 q 767 50 801 21 q 709 113 732 79 q 674 175 686 146 q 640 114 661 147 q 585 51 618 81 q 506 3 553 22 q 397 -17 460 -17 q 259 11 321 -17 q 154 87 197 39 q 88 199 111 135 q 65 336 65 263 q 88 473 65 408 q 154 585 111 538 q 259 660 197 632 q 397 688 321 688 q 507 667 460 688 q 588 618 554 647 q 642 556 621 589 q 675 496 664 522 q 708 556 686 522 q 764 618 731 589 q 844 667 797 647 q 950 688 890 688 q 1086 660 1026 688 q 1188 583 1146 632 q 1251 469 1229 535 q 1272 328 1272 403 l 1272 301 l 731 301 m 1171 378 q 1156 455 1169 415 q 1116 527 1143 494 q 1047 581 1089 560 q 949 601 1006 601 q 854 581 894 601 q 787 528 814 560 q 745 456 760 496 q 729 378 731 417 l 1171 378 m 619 336 q 604 435 619 389 q 560 517 589 482 q 491 574 532 553 q 397 594 450 594 q 303 574 344 594 q 233 517 261 553 q 189 435 204 482 q 174 336 174 389 q 189 235 174 283 q 233 152 204 188 q 303 96 261 117 q 397 75 344 75 q 491 96 450 75 q 560 152 532 117 q 604 235 589 188 q 619 336 619 283 z "},"Ŕ":{"ha":844,"x_min":108,"x_max":781,"o":"m 432 1004 l 353 1004 l 558 1204 l 667 1204 l 432 1004 m 644 0 l 408 368 l 224 368 l 224 0 l 108 0 l 108 926 l 481 926 q 597 907 544 926 q 689 851 650 888 q 749 763 728 814 q 771 647 771 711 q 751 536 771 585 q 699 454 732 488 q 622 401 665 421 q 531 378 578 382 l 781 0 l 644 0 m 467 469 q 601 519 550 469 q 651 647 651 568 q 601 775 651 726 q 467 824 550 824 l 224 824 l 224 469 l 467 469 z "},"ŕ":{"ha":458,"x_min":104,"x_max":503,"o":"m 268 772 l 189 772 l 394 972 l 503 972 l 268 772 m 104 0 l 104 671 l 208 671 l 208 563 q 306 650 249 615 q 432 685 363 685 l 432 578 q 390 582 413 582 q 340 573 367 582 q 287 549 313 564 q 240 515 261 533 q 208 475 219 496 l 208 0 l 104 0 z "},"Ŗ":{"ha":844,"x_min":108,"x_max":781,"o":"m 503 -192 q 474 -298 503 -249 q 404 -378 444 -347 l 358 -342 q 413 -287 390 -321 q 439 -222 436 -253 q 432 -224 438 -224 q 424 -225 426 -225 q 382 -208 399 -225 q 365 -164 365 -190 q 383 -117 365 -136 q 429 -99 401 -99 q 481 -123 458 -99 q 503 -192 503 -147 m 644 0 l 408 368 l 224 368 l 224 0 l 108 0 l 108 926 l 481 926 q 597 907 544 926 q 689 851 650 888 q 749 763 728 814 q 771 647 771 711 q 751 536 771 585 q 699 454 732 488 q 622 401 665 421 q 531 378 578 382 l 781 0 l 644 0 m 467 469 q 601 519 550 469 q 651 647 651 568 q 601 775 651 726 q 467 824 550 824 l 224 824 l 224 469 l 467 469 z "},"ŗ":{"ha":458,"x_min":104,"x_max":432,"o":"m 307 -192 q 278 -298 307 -249 q 208 -378 249 -347 l 163 -342 q 217 -287 194 -321 q 243 -222 240 -253 q 236 -224 242 -224 q 228 -225 231 -225 q 186 -208 203 -225 q 169 -164 169 -190 q 188 -117 169 -136 q 233 -99 206 -99 q 285 -123 263 -99 q 307 -192 307 -147 m 104 0 l 104 671 l 208 671 l 208 563 q 306 650 249 615 q 432 685 363 685 l 432 578 q 390 582 413 582 q 340 573 367 582 q 287 549 313 564 q 240 515 261 533 q 208 475 219 496 l 208 0 l 104 0 z "},"Ř":{"ha":844,"x_min":108,"x_max":781,"o":"m 376 1004 l 240 1204 l 311 1204 l 426 1057 l 538 1204 l 608 1204 l 476 1004 l 376 1004 m 644 0 l 408 368 l 224 368 l 224 0 l 108 0 l 108 926 l 481 926 q 597 907 544 926 q 689 851 650 888 q 749 763 728 814 q 771 647 771 711 q 751 536 771 585 q 699 454 732 488 q 622 401 665 421 q 531 378 578 382 l 781 0 l 644 0 m 467 469 q 601 519 550 469 q 651 647 651 568 q 601 775 651 726 q 467 824 550 824 l 224 824 l 224 469 l 467 469 z "},"ř":{"ha":458,"x_min":82,"x_max":450,"o":"m 218 772 l 82 972 l 153 972 l 268 825 l 379 972 l 450 972 l 318 772 l 218 772 m 104 0 l 104 671 l 208 671 l 208 563 q 306 650 249 615 q 432 685 363 685 l 432 578 q 390 582 413 582 q 340 573 367 582 q 287 549 313 564 q 240 515 261 533 q 208 475 219 496 l 208 0 l 104 0 z "},"Ś":{"ha":814,"x_min":53,"x_max":750,"o":"m 404 1004 l 325 1004 l 531 1204 l 639 1204 l 404 1004 m 408 -17 q 199 24 286 -17 q 53 131 111 65 l 121 218 q 174 169 143 193 q 241 126 204 144 q 321 97 278 108 q 413 86 364 86 q 517 101 475 86 q 583 140 558 117 q 619 191 608 163 q 631 246 631 219 q 607 319 631 290 q 545 369 583 349 q 458 402 507 389 q 356 430 408 415 q 255 463 304 444 q 167 509 206 481 q 106 579 129 538 q 82 683 82 621 q 106 788 82 740 q 173 869 131 835 q 274 922 215 903 q 400 940 332 940 q 589 907 507 940 q 729 811 671 874 l 660 726 q 538 811 607 785 q 392 838 468 838 q 255 797 308 838 q 201 690 201 757 q 225 626 201 651 q 287 583 249 601 q 374 552 325 565 q 476 524 424 539 q 577 490 528 510 q 665 440 626 471 q 726 365 703 410 q 750 256 750 321 q 732 156 750 206 q 673 69 714 107 q 567 7 632 31 q 408 -17 501 -17 z "},"ś":{"ha":646,"x_min":46,"x_max":581,"o":"m 317 772 l 238 772 l 443 972 l 551 972 l 317 772 m 317 -17 q 165 9 233 -17 q 46 89 97 35 l 100 164 q 192 97 133 125 q 321 68 251 68 q 439 101 399 68 q 479 183 479 133 q 449 245 479 224 q 372 281 418 267 q 272 306 325 294 q 172 340 218 318 q 94 397 125 361 q 64 494 64 432 q 81 569 64 533 q 129 631 97 604 q 208 672 161 657 q 314 688 254 688 q 461 659 400 688 q 563 590 522 631 l 514 518 q 431 578 483 554 q 314 603 379 603 q 205 572 244 603 q 165 497 165 542 q 196 442 165 461 q 273 409 226 422 q 373 384 319 396 q 473 350 426 372 q 550 290 519 328 q 581 186 581 251 q 564 107 581 144 q 514 42 547 69 q 431 -1 481 15 q 317 -17 382 -17 z "},"Ŝ":{"ha":814,"x_min":53,"x_max":750,"o":"m 510 1004 l 394 1151 l 283 1004 l 213 1004 l 344 1204 l 444 1204 l 581 1004 l 510 1004 m 408 -17 q 199 24 286 -17 q 53 131 111 65 l 121 218 q 174 169 143 193 q 241 126 204 144 q 321 97 278 108 q 413 86 364 86 q 517 101 475 86 q 583 140 558 117 q 619 191 608 163 q 631 246 631 219 q 607 319 631 290 q 545 369 583 349 q 458 402 507 389 q 356 430 408 415 q 255 463 304 444 q 167 509 206 481 q 106 579 129 538 q 82 683 82 621 q 106 788 82 740 q 173 869 131 835 q 274 922 215 903 q 400 940 332 940 q 589 907 507 940 q 729 811 671 874 l 660 726 q 538 811 607 785 q 392 838 468 838 q 255 797 308 838 q 201 690 201 757 q 225 626 201 651 q 287 583 249 601 q 374 552 325 565 q 476 524 424 539 q 577 490 528 510 q 665 440 626 471 q 726 365 703 410 q 750 256 750 321 q 732 156 750 206 q 673 69 714 107 q 567 7 632 31 q 408 -17 501 -17 z "},"ŝ":{"ha":646,"x_min":46,"x_max":581,"o":"m 431 772 l 315 919 l 204 772 l 133 772 l 265 972 l 365 972 l 501 772 l 431 772 m 317 -17 q 165 9 233 -17 q 46 89 97 35 l 100 164 q 192 97 133 125 q 321 68 251 68 q 439 101 399 68 q 479 183 479 133 q 449 245 479 224 q 372 281 418 267 q 272 306 325 294 q 172 340 218 318 q 94 397 125 361 q 64 494 64 432 q 81 569 64 533 q 129 631 97 604 q 208 672 161 657 q 314 688 254 688 q 461 659 400 688 q 563 590 522 631 l 514 518 q 431 578 483 554 q 314 603 379 603 q 205 572 244 603 q 165 497 165 542 q 196 442 165 461 q 273 409 226 422 q 373 384 319 396 q 473 350 426 372 q 550 290 519 328 q 581 186 581 251 q 564 107 581 144 q 514 42 547 69 q 431 -1 481 15 q 317 -17 382 -17 z "},"Ş":{"ha":814,"x_min":53,"x_max":750,"o":"m 400 -265 q 318 -253 356 -265 q 260 -224 281 -240 l 286 -171 q 340 -201 311 -192 q 397 -211 369 -211 q 456 -196 431 -211 q 482 -153 482 -181 q 469 -117 482 -131 q 431 -104 457 -104 q 378 -128 399 -104 l 332 -101 l 364 -15 q 183 33 260 -7 q 53 131 106 72 l 121 218 q 174 169 143 193 q 241 126 204 144 q 321 97 278 108 q 413 86 364 86 q 517 101 475 86 q 583 140 558 117 q 619 191 608 163 q 631 246 631 219 q 607 319 631 290 q 545 369 583 349 q 458 402 507 389 q 356 430 408 415 q 255 463 304 444 q 167 509 206 481 q 106 579 129 538 q 82 683 82 621 q 106 788 82 740 q 173 869 131 835 q 274 922 215 903 q 400 940 332 940 q 589 907 507 940 q 729 811 671 874 l 660 726 q 538 811 607 785 q 392 838 468 838 q 255 797 308 838 q 201 690 201 757 q 225 626 201 651 q 287 583 249 601 q 374 552 325 565 q 476 524 424 539 q 577 490 528 510 q 665 440 626 471 q 726 365 703 410 q 750 256 750 321 q 733 158 750 206 q 676 73 715 111 q 576 10 638 35 q 425 -17 514 -14 l 401 -76 q 453 -61 424 -61 q 519 -86 493 -61 q 544 -154 544 -111 q 502 -235 544 -206 q 400 -265 460 -265 z "},"ş":{"ha":646,"x_min":46,"x_max":581,"o":"m 315 -265 q 233 -253 271 -265 q 175 -224 196 -240 l 201 -171 q 256 -201 226 -192 q 313 -211 285 -211 q 372 -196 346 -211 q 397 -153 397 -181 q 385 -117 397 -131 q 346 -104 372 -104 q 293 -128 314 -104 l 247 -101 l 279 -15 q 149 15 208 -10 q 46 89 90 40 l 100 164 q 192 97 133 125 q 321 68 251 68 q 439 101 399 68 q 479 183 479 133 q 449 245 479 224 q 372 281 418 267 q 272 306 325 294 q 172 340 218 318 q 94 397 125 361 q 64 494 64 432 q 81 569 64 533 q 129 631 97 604 q 208 672 161 657 q 314 688 254 688 q 461 659 400 688 q 563 590 522 631 l 514 518 q 431 578 483 554 q 314 603 379 603 q 205 572 244 603 q 165 497 165 542 q 196 442 165 461 q 273 409 226 422 q 373 384 319 396 q 473 350 426 372 q 550 290 519 328 q 581 186 581 251 q 520 47 581 104 q 340 -15 460 -10 l 317 -76 q 368 -61 339 -61 q 434 -86 408 -61 q 460 -154 460 -111 q 417 -235 460 -206 q 315 -265 375 -265 z "},"Š":{"ha":814,"x_min":53,"x_max":750,"o":"m 349 1004 l 213 1204 l 283 1204 l 399 1057 l 510 1204 l 581 1204 l 449 1004 l 349 1004 m 408 -17 q 199 24 286 -17 q 53 131 111 65 l 121 218 q 174 169 143 193 q 241 126 204 144 q 321 97 278 108 q 413 86 364 86 q 517 101 475 86 q 583 140 558 117 q 619 191 608 163 q 631 246 631 219 q 607 319 631 290 q 545 369 583 349 q 458 402 507 389 q 356 430 408 415 q 255 463 304 444 q 167 509 206 481 q 106 579 129 538 q 82 683 82 621 q 106 788 82 740 q 173 869 131 835 q 274 922 215 903 q 400 940 332 940 q 589 907 507 940 q 729 811 671 874 l 660 726 q 538 811 607 785 q 392 838 468 838 q 255 797 308 838 q 201 690 201 757 q 225 626 201 651 q 287 583 249 601 q 374 552 325 565 q 476 524 424 539 q 577 490 528 510 q 665 440 626 471 q 726 365 703 410 q 750 256 750 321 q 732 156 750 206 q 673 69 714 107 q 567 7 632 31 q 408 -17 501 -17 z "},"š":{"ha":646,"x_min":46,"x_max":581,"o":"m 269 772 l 133 972 l 204 972 l 319 825 l 431 972 l 501 972 l 369 772 l 269 772 m 317 -17 q 165 9 233 -17 q 46 89 97 35 l 100 164 q 192 97 133 125 q 321 68 251 68 q 439 101 399 68 q 479 183 479 133 q 449 245 479 224 q 372 281 418 267 q 272 306 325 294 q 172 340 218 318 q 94 397 125 361 q 64 494 64 432 q 81 569 64 533 q 129 631 97 604 q 208 672 161 657 q 314 688 254 688 q 461 659 400 688 q 563 590 522 631 l 514 518 q 431 578 483 554 q 314 603 379 603 q 205 572 244 603 q 165 497 165 542 q 196 442 165 461 q 273 409 226 422 q 373 384 319 396 q 473 350 426 372 q 550 290 519 328 q 581 186 581 251 q 564 107 581 144 q 514 42 547 69 q 431 -1 481 15 q 317 -17 382 -17 z "},"Ţ":{"ha":792,"x_min":44,"x_max":747,"o":"m 474 -192 q 444 -298 474 -249 q 375 -378 415 -347 l 329 -342 q 384 -287 361 -321 q 410 -222 407 -253 q 403 -224 408 -224 q 394 -225 397 -225 q 353 -208 369 -225 q 336 -164 336 -190 q 354 -117 336 -136 q 400 -99 372 -99 q 451 -123 429 -99 q 474 -192 474 -147 m 338 0 l 338 824 l 44 824 l 44 926 l 747 926 l 747 824 l 453 824 l 453 0 l 338 0 z "},"ţ":{"ha":408,"x_min":14,"x_max":399,"o":"m 282 -192 q 253 -298 282 -249 q 183 -378 224 -347 l 138 -342 q 192 -287 169 -321 q 218 -222 215 -253 q 211 -224 217 -224 q 203 -225 206 -225 q 161 -208 178 -225 q 144 -164 144 -190 q 163 -117 144 -136 q 208 -99 181 -99 q 260 -123 238 -99 q 282 -192 282 -147 m 274 -17 q 162 24 199 -17 q 125 140 125 65 l 125 579 l 14 579 l 14 671 l 125 671 l 125 854 l 229 854 l 229 671 l 365 671 l 365 579 l 229 579 l 229 163 q 246 101 229 125 q 297 76 263 76 q 338 85 319 76 q 368 104 357 93 l 399 26 q 349 -5 379 7 q 274 -17 319 -17 z "},"Ť":{"ha":792,"x_min":44,"x_max":747,"o":"m 347 1004 l 211 1204 l 282 1204 l 397 1057 l 508 1204 l 579 1204 l 447 1004 l 347 1004 m 338 0 l 338 824 l 44 824 l 44 926 l 747 926 l 747 824 l 453 824 l 453 0 l 338 0 z "},"ť":{"ha":435,"x_min":14,"x_max":451,"o":"m 451 939 q 422 833 451 882 q 353 753 393 783 l 307 789 q 362 844 339 810 q 388 908 385 878 q 381 906 386 907 q 372 906 375 906 q 331 923 347 906 q 314 967 314 940 q 332 1013 314 994 q 378 1032 350 1032 q 429 1008 407 1032 q 451 939 451 983 m 274 -17 q 162 24 199 -17 q 125 140 125 65 l 125 579 l 14 579 l 14 671 l 125 671 l 125 854 l 229 854 l 229 671 l 365 671 l 365 579 l 229 579 l 229 163 q 246 101 229 125 q 297 76 263 76 q 338 85 319 76 q 368 104 357 93 l 399 26 q 349 -5 379 7 q 274 -17 319 -17 z "},"Ŧ":{"ha":792,"x_min":44,"x_max":747,"o":"m 338 0 l 338 408 l 129 408 l 129 475 l 338 475 l 338 824 l 44 824 l 44 926 l 747 926 l 747 824 l 453 824 l 453 475 l 664 475 l 664 408 l 453 408 l 453 0 l 338 0 z "},"ŧ":{"ha":408,"x_min":14,"x_max":399,"o":"m 274 -17 q 162 24 199 -17 q 125 140 125 65 l 125 314 l 14 314 l 14 381 l 125 381 l 125 579 l 14 579 l 14 671 l 125 671 l 125 854 l 229 854 l 229 671 l 365 671 l 365 579 l 229 579 l 229 381 l 326 381 l 326 314 l 229 314 l 229 163 q 246 101 229 125 q 297 76 263 76 q 338 85 319 76 q 368 104 357 93 l 399 26 q 349 -5 379 7 q 274 -17 319 -17 z "},"Ũ":{"ha":972,"x_min":108,"x_max":864,"o":"m 486 -17 q 321 10 392 -17 q 203 86 250 38 q 132 204 156 135 q 108 360 108 274 l 108 926 l 224 926 l 224 363 q 290 160 224 235 q 486 86 357 86 q 682 160 615 86 q 749 363 749 235 l 749 926 l 864 926 l 864 361 q 840 205 864 275 q 769 85 817 135 q 651 10 722 36 q 486 -17 581 -17 m 572 1001 q 513 1022 535 1001 q 474 1065 490 1042 q 442 1109 457 1089 q 401 1129 426 1129 q 354 1101 374 1129 q 335 1010 335 1072 l 272 1010 q 306 1144 272 1092 q 407 1196 340 1196 q 467 1176 444 1196 q 505 1132 489 1156 q 537 1088 521 1108 q 578 1068 553 1068 q 625 1097 606 1068 q 644 1188 644 1125 l 707 1188 q 673 1053 707 1106 q 572 1001 639 1001 z "},"ũ":{"ha":765,"x_min":104,"x_max":661,"o":"m 557 0 l 557 94 q 456 17 518 50 q 318 -17 393 -17 q 158 35 213 -17 q 104 197 104 88 l 104 671 l 208 671 l 208 229 q 219 156 208 185 q 249 108 229 126 q 297 83 269 90 q 358 76 325 76 q 474 107 419 76 q 557 178 528 138 l 557 671 l 661 671 l 661 0 l 557 0 m 465 769 q 406 790 428 769 q 367 833 383 810 q 335 877 350 857 q 294 897 319 897 q 247 869 267 897 q 228 778 228 840 l 165 778 q 199 912 165 860 q 300 964 233 964 q 360 944 338 964 q 398 900 382 924 q 430 856 414 876 q 471 836 446 836 q 518 865 499 836 q 538 956 538 893 l 600 956 q 566 822 600 874 q 465 769 532 769 z "},"Ū":{"ha":972,"x_min":108,"x_max":864,"o":"m 486 -17 q 321 10 392 -17 q 203 86 250 38 q 132 204 156 135 q 108 360 108 274 l 108 926 l 224 926 l 224 363 q 290 160 224 235 q 486 86 357 86 q 682 160 615 86 q 749 363 749 235 l 749 926 l 864 926 l 864 361 q 840 205 864 275 q 769 85 817 135 q 651 10 722 36 q 486 -17 581 -17 m 235 1026 l 235 1093 l 739 1093 l 739 1026 l 235 1026 z "},"ū":{"ha":765,"x_min":104,"x_max":661,"o":"m 557 0 l 557 94 q 456 17 518 50 q 318 -17 393 -17 q 158 35 213 -17 q 104 197 104 88 l 104 671 l 208 671 l 208 229 q 219 156 208 185 q 249 108 229 126 q 297 83 269 90 q 358 76 325 76 q 474 107 419 76 q 557 178 528 138 l 557 671 l 661 671 l 661 0 l 557 0 m 129 794 l 129 861 l 633 861 l 633 794 l 129 794 z "},"Ŭ":{"ha":972,"x_min":108,"x_max":864,"o":"m 486 -17 q 321 10 392 -17 q 203 86 250 38 q 132 204 156 135 q 108 360 108 274 l 108 926 l 224 926 l 224 363 q 290 160 224 235 q 486 86 357 86 q 682 160 615 86 q 749 363 749 235 l 749 926 l 864 926 l 864 361 q 840 205 864 275 q 769 85 817 135 q 651 10 722 36 q 486 -17 581 -17 m 733 1101 q 628 1012 692 1044 q 490 979 565 979 q 352 1012 415 979 q 246 1101 289 1044 l 297 1146 q 379 1073 331 1100 q 490 1046 428 1046 q 601 1072 551 1046 q 682 1146 650 1099 l 733 1101 l 733 1101 z "},"ŭ":{"ha":765,"x_min":104,"x_max":661,"o":"m 557 0 l 557 94 q 456 17 518 50 q 318 -17 393 -17 q 158 35 213 -17 q 104 197 104 88 l 104 671 l 208 671 l 208 229 q 219 156 208 185 q 249 108 229 126 q 297 83 269 90 q 358 76 325 76 q 474 107 419 76 q 557 178 528 138 l 557 671 l 661 671 l 661 0 l 557 0 m 628 869 q 523 780 586 813 q 385 747 460 747 q 247 780 310 747 q 140 869 183 813 l 192 914 q 274 841 225 868 q 385 814 322 814 q 495 840 446 814 q 576 914 544 867 l 628 869 l 628 869 z "},"Ů":{"ha":972,"x_min":108,"x_max":864,"o":"m 488 986 q 391 1026 431 986 q 351 1122 351 1065 q 362 1175 351 1150 q 391 1219 372 1200 q 435 1249 410 1238 q 488 1260 460 1260 q 540 1249 515 1260 q 584 1219 565 1238 q 613 1175 603 1200 q 624 1122 624 1150 q 584 1026 624 1065 q 488 986 544 986 m 488 1040 q 545 1065 522 1040 q 568 1122 568 1089 q 545 1181 568 1157 q 488 1204 522 1204 q 431 1181 454 1204 q 407 1122 407 1157 q 431 1065 407 1089 q 488 1040 454 1040 m 486 -17 q 321 10 392 -17 q 203 86 250 38 q 132 204 156 135 q 108 360 108 274 l 108 926 l 224 926 l 224 363 q 290 160 224 235 q 486 86 357 86 q 682 160 615 86 q 749 363 749 235 l 749 926 l 864 926 l 864 361 q 840 205 864 275 q 769 85 817 135 q 651 10 722 36 q 486 -17 581 -17 z "},"ů":{"ha":765,"x_min":104,"x_max":661,"o":"m 383 754 q 287 794 326 754 q 247 890 247 833 q 258 943 247 918 q 287 987 268 968 q 331 1017 306 1006 q 383 1028 356 1028 q 436 1017 411 1028 q 480 987 461 1006 q 509 943 499 968 q 519 890 519 918 q 480 794 519 833 q 383 754 440 754 m 383 808 q 441 833 418 808 q 464 890 464 857 q 441 949 464 925 q 383 972 418 972 q 326 949 350 972 q 303 890 303 925 q 326 833 303 857 q 383 808 350 808 m 557 0 l 557 94 q 456 17 518 50 q 318 -17 393 -17 q 158 35 213 -17 q 104 197 104 88 l 104 671 l 208 671 l 208 229 q 219 156 208 185 q 249 108 229 126 q 297 83 269 90 q 358 76 325 76 q 474 107 419 76 q 557 178 528 138 l 557 671 l 661 671 l 661 0 l 557 0 z "},"Ű":{"ha":972,"x_min":108,"x_max":864,"o":"m 486 -17 q 321 10 392 -17 q 203 86 250 38 q 132 204 156 135 q 108 360 108 274 l 108 926 l 224 926 l 224 363 q 290 160 224 235 q 486 86 357 86 q 682 160 615 86 q 749 363 749 235 l 749 926 l 864 926 l 864 361 q 840 205 864 275 q 769 85 817 135 q 651 10 722 36 q 486 -17 581 -17 m 401 1004 l 335 1004 l 465 1204 l 561 1204 l 401 1004 m 599 1004 l 532 1004 l 663 1204 l 758 1204 l 599 1004 z "},"ű":{"ha":765,"x_min":104,"x_max":661,"o":"m 557 0 l 557 94 q 456 17 518 50 q 318 -17 393 -17 q 158 35 213 -17 q 104 197 104 88 l 104 671 l 208 671 l 208 229 q 219 156 208 185 q 249 108 229 126 q 297 83 269 90 q 358 76 325 76 q 474 107 419 76 q 557 178 528 138 l 557 671 l 661 671 l 661 0 l 557 0 m 297 772 l 231 772 l 361 972 l 457 972 l 297 772 m 494 772 l 428 772 l 558 972 l 654 972 l 494 772 z "},"Ų":{"ha":972,"x_min":108,"x_max":864,"o":"m 486 -17 q 321 10 392 -17 q 203 86 250 38 q 132 204 156 135 q 108 360 108 274 l 108 926 l 224 926 l 224 363 q 290 160 224 235 q 486 86 357 86 q 682 160 615 86 q 749 363 749 235 l 749 926 l 864 926 l 864 361 q 803 128 864 222 q 621 0 743 33 q 543 -58 571 -25 q 515 -135 515 -90 q 532 -187 515 -171 q 576 -204 549 -204 q 622 -189 606 -204 q 649 -146 639 -174 l 700 -175 q 656 -233 685 -208 q 576 -258 626 -258 q 490 -230 528 -258 q 453 -137 453 -201 q 467 -72 453 -103 q 507 -17 482 -42 l 486 -17 l 486 -17 z "},"ų":{"ha":765,"x_min":104,"x_max":740,"o":"m 661 0 q 583 -58 611 -25 q 556 -135 556 -90 q 572 -187 556 -171 q 617 -204 589 -204 q 663 -189 646 -204 q 689 -146 679 -174 l 740 -175 q 696 -233 725 -208 q 617 -258 667 -258 q 531 -230 568 -258 q 493 -137 493 -201 q 513 -62 493 -97 q 567 0 532 -28 l 557 0 l 557 94 q 456 17 518 50 q 318 -17 393 -17 q 158 35 213 -17 q 104 197 104 88 l 104 671 l 208 671 l 208 229 q 219 156 208 185 q 249 108 229 126 q 297 83 269 90 q 358 76 325 76 q 474 107 419 76 q 557 178 528 138 l 557 671 l 661 671 l 661 0 l 661 0 z "},"Ŵ":{"ha":1226,"x_min":19,"x_max":1206,"o":"m 726 1004 l 611 1151 l 500 1004 l 429 1004 l 561 1204 l 661 1204 l 797 1004 l 726 1004 m 817 0 l 613 747 l 408 0 l 283 0 l 19 926 l 147 926 l 353 154 l 565 926 l 661 926 l 874 154 l 1078 926 l 1206 926 l 942 0 l 817 0 z "},"ŵ":{"ha":1019,"x_min":17,"x_max":1003,"o":"m 624 772 l 508 919 l 397 772 l 326 772 l 458 972 l 558 972 l 694 772 l 624 772 m 685 0 l 510 539 l 335 0 l 231 0 l 17 671 l 125 671 l 289 136 l 465 671 l 554 671 l 731 136 l 894 671 l 1003 671 l 789 0 l 685 0 z "},"Ŷ":{"ha":869,"x_min":13,"x_max":857,"o":"m 550 1004 l 435 1151 l 324 1004 l 253 1004 l 385 1204 l 485 1204 l 621 1004 l 550 1004 m 378 0 l 378 392 l 13 926 l 147 926 l 435 496 l 722 926 l 857 926 l 493 392 l 493 0 l 378 0 z "},"ŷ":{"ha":681,"x_min":4,"x_max":676,"o":"m 83 -168 q 111 -176 94 -174 q 140 -179 128 -179 q 199 -165 175 -179 q 240 -108 222 -150 l 285 -7 l 4 671 l 117 671 l 340 121 l 563 671 l 676 671 l 340 -136 q 260 -240 310 -210 q 143 -272 210 -271 q 104 -269 126 -272 q 67 -262 82 -267 l 83 -168 m 454 772 l 339 919 l 228 772 l 157 772 l 289 972 l 389 972 l 525 772 l 454 772 z "},"Ÿ":{"ha":869,"x_min":13,"x_max":857,"o":"m 646 1071 q 626 1024 646 1043 q 581 1006 607 1006 q 535 1024 554 1006 q 515 1071 515 1043 q 535 1116 515 1097 q 581 1135 554 1135 q 626 1116 607 1135 q 646 1071 646 1097 m 358 1071 q 340 1024 358 1043 q 294 1006 321 1006 q 248 1024 267 1006 q 229 1071 229 1043 q 248 1116 229 1097 q 294 1135 267 1135 q 340 1116 321 1135 q 358 1071 358 1097 m 378 0 l 378 392 l 13 926 l 147 926 l 435 496 l 722 926 l 857 926 l 493 392 l 493 0 l 378 0 z "},"Ź":{"ha":813,"x_min":67,"x_max":744,"o":"m 406 1004 l 326 1004 l 532 1204 l 640 1204 l 406 1004 m 67 0 l 67 96 l 588 824 l 67 824 l 67 926 l 735 926 l 735 831 l 214 103 l 744 103 l 744 0 l 67 0 z "},"ź":{"ha":656,"x_min":72,"x_max":583,"o":"m 326 772 l 247 772 l 453 972 l 561 972 l 326 772 m 72 0 l 72 81 l 442 579 l 72 579 l 72 671 l 578 671 l 578 592 l 206 90 l 583 90 l 583 0 l 72 0 z "},"Ż":{"ha":813,"x_min":67,"x_max":744,"o":"m 67 0 l 67 96 l 588 824 l 67 824 l 67 926 l 735 926 l 735 831 l 214 103 l 744 103 l 744 0 l 67 0 m 403 1003 q 357 1022 376 1003 q 338 1068 338 1040 q 357 1115 338 1096 q 403 1133 376 1133 q 449 1115 431 1133 q 467 1068 467 1096 q 449 1022 467 1040 q 403 1003 431 1003 z "},"ż":{"ha":656,"x_min":72,"x_max":583,"o":"m 72 0 l 72 81 l 442 579 l 72 579 l 72 671 l 578 671 l 578 592 l 206 90 l 583 90 l 583 0 l 72 0 m 326 771 q 281 790 300 771 q 261 836 261 808 q 281 883 261 864 q 326 901 300 901 q 372 883 354 901 q 390 836 390 864 q 372 790 390 808 q 326 771 354 771 z "},"Ž":{"ha":813,"x_min":67,"x_max":744,"o":"m 354 1004 l 218 1204 l 289 1204 l 404 1057 l 515 1204 l 586 1204 l 454 1004 l 354 1004 m 67 0 l 67 96 l 588 824 l 67 824 l 67 926 l 735 926 l 735 831 l 214 103 l 744 103 l 744 0 l 67 0 z "},"ž":{"ha":656,"x_min":72,"x_max":583,"o":"m 272 772 l 136 972 l 207 972 l 322 825 l 433 972 l 504 972 l 372 772 l 272 772 m 72 0 l 72 81 l 442 579 l 72 579 l 72 671 l 578 671 l 578 592 l 206 90 l 583 90 l 583 0 l 72 0 z "},"ſ":{"ha":393,"x_min":22,"x_max":469,"o":"m 133 0 l 133 579 l 22 579 l 22 671 l 133 671 l 133 722 q 185 883 133 826 q 328 940 238 940 q 403 929 368 940 q 469 889 438 918 l 426 815 q 390 839 410 831 q 343 847 369 847 q 265 814 292 847 q 238 722 238 781 l 238 0 l 133 0 z "},"ƒ":{"ha":599,"x_min":35,"x_max":618,"o":"m 35 -224 l 163 353 l 68 353 l 68 447 l 182 447 l 246 731 q 332 884 267 828 q 488 940 397 940 q 559 929 528 940 q 618 890 590 918 l 567 806 q 497 838 542 838 q 410 804 447 838 q 358 710 372 771 l 300 447 l 493 447 l 493 353 l 279 353 l 151 -224 l 35 -224 z "},"Ơ":{"ha":1063,"x_min":71,"x_max":999,"o":"m 531 -17 q 343 19 428 -17 q 198 120 258 56 q 104 272 138 185 q 71 463 71 360 q 104 653 71 565 q 198 805 138 740 q 343 906 258 869 q 531 942 428 942 q 726 901 639 942 q 876 789 814 860 q 919 838 901 810 q 940 894 938 867 q 934 892 939 893 q 925 892 929 892 q 886 908 901 892 q 871 949 871 925 q 888 992 871 974 q 929 1010 904 1010 q 978 987 957 1010 q 999 922 999 964 q 972 822 999 869 q 908 747 946 775 q 969 616 947 688 q 990 463 990 544 q 957 272 990 360 q 863 120 924 185 q 718 19 803 56 q 531 -17 633 -17 m 531 86 q 671 115 608 86 q 778 194 733 143 q 847 313 822 244 q 871 463 871 382 q 847 613 871 543 q 778 732 822 682 q 671 810 733 782 q 531 839 608 839 q 390 810 453 839 q 282 732 326 782 q 214 613 238 682 q 190 463 190 543 q 214 313 190 382 q 282 194 238 244 q 390 115 326 143 q 531 86 453 86 z "},"ơ":{"ha":794,"x_min":65,"x_max":732,"o":"m 732 736 q 709 643 732 688 q 651 569 686 599 q 709 463 689 524 q 729 336 729 403 q 706 199 729 263 q 640 87 683 135 q 535 11 597 39 q 397 -17 474 -17 q 259 11 321 -17 q 154 87 197 39 q 88 199 111 135 q 65 336 65 263 q 88 473 65 408 q 154 585 111 538 q 259 660 197 632 q 397 688 321 688 q 519 666 464 688 q 615 608 574 644 q 655 656 639 628 q 674 708 671 683 q 666 708 671 708 q 658 707 661 707 q 619 723 635 707 q 603 764 603 739 q 620 806 603 788 q 663 824 638 824 q 711 801 690 824 q 732 736 732 778 m 397 76 q 492 98 451 76 q 562 155 533 119 q 605 238 590 190 q 619 336 619 285 q 605 434 619 388 q 562 516 590 481 q 492 573 533 551 q 397 594 451 594 q 301 573 343 594 q 231 516 260 551 q 188 434 203 481 q 174 336 174 388 q 188 238 174 285 q 231 155 203 190 q 301 98 260 119 q 397 76 343 76 z "},"Ư":{"ha":972,"x_min":108,"x_max":1025,"o":"m 1025 1011 q 982 886 1025 944 q 864 797 939 828 l 864 361 q 840 205 864 275 q 769 85 817 135 q 651 10 722 36 q 486 -17 581 -17 q 321 10 392 -17 q 203 86 250 38 q 132 204 156 135 q 108 360 108 274 l 108 926 l 224 926 l 224 363 q 290 160 224 235 q 486 86 357 86 q 682 160 615 86 q 749 363 749 235 l 749 926 l 864 926 l 864 851 q 933 908 904 871 q 965 983 963 944 q 959 983 964 983 q 950 982 954 982 q 911 998 926 982 q 896 1039 896 1014 q 913 1081 896 1063 q 956 1099 929 1099 q 1004 1076 983 1099 q 1025 1011 1025 1053 z "},"ư":{"ha":765,"x_min":104,"x_max":792,"o":"m 557 0 l 557 94 q 456 17 518 50 q 318 -17 393 -17 q 158 35 213 -17 q 104 197 104 88 l 104 671 l 208 671 l 208 229 q 219 156 208 185 q 249 108 229 126 q 297 83 269 90 q 358 76 325 76 q 474 107 419 76 q 557 178 528 138 l 557 671 l 661 671 l 661 604 q 710 656 690 626 q 732 717 729 686 q 725 716 731 717 q 717 715 719 715 q 677 731 693 715 q 661 772 661 747 q 678 814 661 796 q 721 832 696 832 q 770 809 749 832 q 792 744 792 786 q 757 631 792 685 q 661 544 722 576 l 661 0 l 557 0 z "},"Ǽ":{"ha":1315,"x_min":10,"x_max":1240,"o":"m 693 1004 l 614 1004 l 819 1204 l 928 1204 l 693 1004 m 633 0 l 633 206 l 268 206 l 142 0 l 10 0 l 588 926 l 1240 926 l 1240 824 l 749 824 l 749 525 l 1231 525 l 1231 422 l 749 422 l 749 103 l 1240 103 l 1240 0 l 633 0 m 633 807 l 325 308 l 633 308 l 633 807 z "},"ǽ":{"ha":1235,"x_min":67,"x_max":1171,"o":"m 579 772 l 500 772 l 706 972 l 814 972 l 579 772 m 661 301 q 682 213 665 254 q 727 140 699 171 q 795 90 756 108 q 885 72 835 72 q 990 94 939 72 q 1078 157 1040 115 l 1128 86 q 1015 10 1079 36 q 881 -17 951 -17 q 722 22 792 -17 q 613 144 653 61 q 503 28 576 72 q 336 -17 429 -17 q 233 -3 282 -17 q 147 40 185 11 q 88 110 110 68 q 67 206 67 151 q 87 301 67 260 q 141 370 107 342 q 220 413 175 399 q 314 426 265 426 q 451 405 389 426 q 557 338 513 383 l 557 457 q 506 560 557 524 q 372 597 456 597 q 251 575 306 597 q 149 504 197 553 l 100 576 q 385 688 210 688 q 465 679 426 688 q 535 653 503 671 q 590 608 567 635 q 622 542 613 581 q 718 645 657 603 q 871 688 779 688 q 999 660 943 688 q 1092 583 1054 632 q 1151 469 1131 535 q 1171 328 1171 403 l 1171 301 l 661 301 m 1068 378 q 1056 455 1068 415 q 1019 527 1044 494 q 956 581 994 560 q 864 601 918 601 q 777 581 814 601 q 715 528 740 560 q 676 456 689 496 q 661 378 663 417 l 1068 378 m 557 267 q 469 329 522 307 q 356 351 415 351 q 224 313 274 351 q 174 211 174 275 q 224 110 174 147 q 356 72 274 72 q 437 88 400 72 q 501 128 474 103 q 542 185 528 153 q 557 250 557 217 l 557 267 z "},"Ǿ":{"ha":1063,"x_min":71,"x_max":990,"o":"m 532 1004 l 453 1004 l 658 1204 l 767 1204 l 532 1004 m 531 -17 q 401 -1 461 -17 q 290 46 342 15 l 260 0 l 168 0 l 229 90 q 113 251 154 156 q 71 463 71 346 q 104 653 71 565 q 198 805 138 740 q 343 906 258 869 q 531 942 428 942 q 655 926 597 942 q 763 883 713 911 l 792 926 l 883 926 l 825 840 q 947 678 904 775 q 990 463 990 581 q 957 272 990 360 q 863 120 924 185 q 718 19 803 56 q 531 -17 633 -17 m 531 86 q 671 115 608 86 q 778 194 733 143 q 847 313 822 244 q 871 463 871 382 q 843 624 871 550 q 763 747 815 697 l 350 135 q 531 86 426 86 m 190 463 q 217 305 190 376 q 292 183 243 233 l 703 794 q 623 827 667 815 q 531 839 579 839 q 390 810 453 839 q 282 732 326 782 q 214 613 238 682 q 190 463 190 543 z "},"ǿ":{"ha":794,"x_min":65,"x_max":729,"o":"m 397 772 l 318 772 l 524 972 l 632 972 l 397 772 m 89 0 l 156 85 q 88 197 111 133 q 65 336 65 261 q 88 473 65 408 q 154 585 111 538 q 259 660 197 632 q 397 688 321 688 q 501 673 453 688 q 588 631 549 658 l 619 671 l 694 671 l 632 592 q 704 478 679 543 q 729 336 729 413 q 706 199 729 263 q 640 87 683 135 q 535 11 597 39 q 397 -17 474 -17 q 200 46 282 -17 l 164 0 l 89 0 m 397 76 q 492 98 451 76 q 562 155 533 119 q 605 238 590 190 q 619 336 619 285 q 567 510 619 438 l 261 124 q 322 89 289 101 q 397 76 356 76 m 174 336 q 221 168 174 239 l 525 553 q 397 594 472 594 q 301 573 343 594 q 231 516 260 551 q 188 434 203 481 q 174 336 174 388 z "},"Ș":{"ha":814,"x_min":53,"x_max":750,"o":"m 479 -192 q 450 -298 479 -249 q 381 -378 421 -347 l 335 -342 q 390 -287 367 -321 q 415 -222 413 -253 q 408 -224 414 -224 q 400 -225 403 -225 q 358 -208 375 -225 q 342 -164 342 -190 q 360 -117 342 -136 q 406 -99 378 -99 q 457 -123 435 -99 q 479 -192 479 -147 m 408 -17 q 199 24 286 -17 q 53 131 111 65 l 121 218 q 174 169 143 193 q 241 126 204 144 q 321 97 278 108 q 413 86 364 86 q 517 101 475 86 q 583 140 558 117 q 619 191 608 163 q 631 246 631 219 q 607 319 631 290 q 545 369 583 349 q 458 402 507 389 q 356 430 408 415 q 255 463 304 444 q 167 509 206 481 q 106 579 129 538 q 82 683 82 621 q 106 788 82 740 q 173 869 131 835 q 274 922 215 903 q 400 940 332 940 q 589 907 507 940 q 729 811 671 874 l 660 726 q 538 811 607 785 q 392 838 468 838 q 255 797 308 838 q 201 690 201 757 q 225 626 201 651 q 287 583 249 601 q 374 552 325 565 q 476 524 424 539 q 577 490 528 510 q 665 440 626 471 q 726 365 703 410 q 750 256 750 321 q 732 156 750 206 q 673 69 714 107 q 567 7 632 31 q 408 -17 501 -17 z "},"ș":{"ha":646,"x_min":46,"x_max":581,"o":"m 404 -192 q 375 -298 404 -249 q 306 -378 346 -347 l 260 -342 q 315 -287 292 -321 q 340 -222 338 -253 q 333 -224 339 -224 q 325 -225 328 -225 q 283 -208 300 -225 q 267 -164 267 -190 q 285 -117 267 -136 q 331 -99 303 -99 q 382 -123 360 -99 q 404 -192 404 -147 m 317 -17 q 165 9 233 -17 q 46 89 97 35 l 100 164 q 192 97 133 125 q 321 68 251 68 q 439 101 399 68 q 479 183 479 133 q 449 245 479 224 q 372 281 418 267 q 272 306 325 294 q 172 340 218 318 q 94 397 125 361 q 64 494 64 432 q 81 569 64 533 q 129 631 97 604 q 208 672 161 657 q 314 688 254 688 q 461 659 400 688 q 563 590 522 631 l 514 518 q 431 578 483 554 q 314 603 379 603 q 205 572 244 603 q 165 497 165 542 q 196 442 165 461 q 273 409 226 422 q 373 384 319 396 q 473 350 426 372 q 550 290 519 328 q 581 186 581 251 q 564 107 581 144 q 514 42 547 69 q 431 -1 481 15 q 317 -17 382 -17 z "},"Ț":{"ha":792,"x_min":44,"x_max":747,"o":"m 474 -192 q 444 -298 474 -249 q 375 -378 415 -347 l 329 -342 q 384 -287 361 -321 q 410 -222 407 -253 q 403 -224 408 -224 q 394 -225 397 -225 q 353 -208 369 -225 q 336 -164 336 -190 q 354 -117 336 -136 q 400 -99 372 -99 q 451 -123 429 -99 q 474 -192 474 -147 m 338 0 l 338 824 l 44 824 l 44 926 l 747 926 l 747 824 l 453 824 l 453 0 l 338 0 z "},"ț":{"ha":408,"x_min":14,"x_max":399,"o":"m 282 -192 q 253 -298 282 -249 q 183 -378 224 -347 l 138 -342 q 192 -287 169 -321 q 218 -222 215 -253 q 211 -224 217 -224 q 203 -225 206 -225 q 161 -208 178 -225 q 144 -164 144 -190 q 163 -117 144 -136 q 208 -99 181 -99 q 260 -123 238 -99 q 282 -192 282 -147 m 274 -17 q 162 24 199 -17 q 125 140 125 65 l 125 579 l 14 579 l 14 671 l 125 671 l 125 854 l 229 854 l 229 671 l 365 671 l 365 579 l 229 579 l 229 163 q 246 101 229 125 q 297 76 263 76 q 338 85 319 76 q 368 104 357 93 l 399 26 q 349 -5 379 7 q 274 -17 319 -17 z "},"ȷ":{"ha":313,"x_min":-137,"x_max":208,"o":"m 10 -272 q -74 -260 -42 -272 q -137 -222 -106 -247 l -100 -143 q -59 -174 -82 -161 q -4 -186 -36 -186 q 74 -158 43 -186 q 104 -65 104 -129 l 104 671 l 208 671 l 208 -65 q 157 -219 208 -165 q 10 -272 106 -272 z "},"ʰ":{"ha":553,"x_min":83,"x_max":469,"o":"m 389 453 l 389 733 q 362 813 389 792 q 290 833 335 833 q 216 813 250 833 q 163 769 182 793 l 163 453 l 83 453 l 83 1056 l 163 1056 l 163 826 q 228 877 186 854 q 324 900 271 900 q 469 751 469 900 l 469 453 l 389 453 z "},"ʼ":{"ha":319,"x_min":79,"x_max":244,"o":"m 244 835 q 212 715 244 771 q 131 625 179 660 l 79 668 q 139 727 113 690 q 169 797 165 764 q 150 794 164 794 q 102 814 121 794 q 83 865 83 833 q 104 918 83 896 q 157 940 125 940 q 218 913 192 940 q 244 835 244 886 z "},"ˆ":{"ha":368,"x_min":0,"x_max":368,"o":"m 297 772 l 182 919 l 71 772 l 0 772 l 132 972 l 232 972 l 368 772 l 297 772 z "},"ˇ":{"ha":368,"x_min":0,"x_max":368,"o":"m 136 772 l 0 972 l 71 972 l 186 825 l 297 972 l 368 972 l 236 772 l 136 772 z "},"ˉ":{"ha":504,"x_min":0,"x_max":504,"o":"m 0 821 l 0 888 l 504 888 l 504 821 l 0 821 z "},"ˋ":{"ha":314,"x_min":0,"x_max":314,"o":"m 235 772 l 0 972 l 108 972 l 314 772 l 235 772 z "},"˘":{"ha":488,"x_min":0,"x_max":488,"o":"m 488 869 q 383 780 446 813 q 244 747 319 747 q 106 780 169 747 q 0 869 43 813 l 51 914 q 133 841 85 868 q 244 814 182 814 q 355 840 306 814 q 436 914 404 867 l 488 869 l 488 869 z "},"˙":{"ha":154,"x_min":13,"x_max":142,"o":"m 78 771 q 32 790 51 771 q 13 836 13 808 q 32 883 13 864 q 78 901 51 901 q 124 883 106 901 q 142 836 142 864 q 124 790 142 808 q 78 771 106 771 z "},"˚":{"ha":272,"x_min":0,"x_max":272,"o":"m 136 754 q 40 794 79 754 q 0 890 0 833 q 10 943 0 918 q 40 987 21 968 q 83 1017 58 1006 q 136 1028 108 1028 q 189 1017 164 1028 q 233 987 214 1006 q 262 943 251 968 q 272 890 272 918 q 233 794 272 833 q 136 754 193 754 m 136 808 q 194 833 171 808 q 217 890 217 857 q 194 949 217 925 q 136 972 171 972 q 79 949 103 972 q 56 890 56 925 q 79 833 56 857 q 136 808 103 808 z "},"˛":{"ha":247,"x_min":0,"x_max":247,"o":"m 247 -175 q 203 -233 232 -208 q 124 -258 174 -258 q 38 -230 75 -258 q 0 -137 0 -201 q 34 -40 0 -85 q 122 32 68 4 l 168 0 q 90 -58 118 -25 q 63 -135 63 -90 q 79 -187 63 -171 q 124 -204 96 -204 q 169 -189 153 -204 q 196 -146 186 -174 l 247 -175 z "},"˜":{"ha":435,"x_min":0,"x_max":435,"o":"m 300 769 q 240 790 263 769 q 201 833 218 810 q 169 877 185 857 q 129 897 154 897 q 82 869 101 897 q 63 778 63 840 l 0 778 q 34 912 0 860 q 135 964 68 964 q 194 944 172 964 q 233 900 217 924 q 265 856 249 876 q 306 836 281 836 q 353 865 333 836 q 372 956 372 893 l 435 956 q 401 822 435 874 q 300 769 367 769 z "},"˝":{"ha":424,"x_min":0,"x_max":424,"o":"m 67 772 l 0 772 l 131 972 l 226 972 l 67 772 m 264 772 l 197 772 l 328 972 l 424 972 l 264 772 z "},"̉":{"ha":247,"x_min":21,"x_max":222,"o":"m 21 1021 q 57 1075 32 1053 q 122 1097 82 1097 q 192 1074 163 1097 q 222 1001 222 1051 q 216 962 222 978 q 196 926 210 946 l 140 926 q 165 963 158 944 q 172 999 172 981 q 159 1040 172 1026 q 122 1053 146 1053 q 67 1008 82 1053 l 21 1021 z "},";":{"ha":319,"x_min":79,"x_max":244,"o":"m 160 528 q 106 551 128 528 q 83 604 83 574 q 106 658 83 636 q 160 681 128 681 q 214 658 192 681 q 236 604 236 636 q 214 551 236 574 q 160 528 192 528 m 244 36 q 212 -85 244 -29 q 131 -174 179 -140 l 79 -132 q 139 -73 113 -110 q 169 -1 165 -36 q 161 -4 167 -3 q 150 -6 156 -6 q 102 15 121 -6 q 83 65 83 35 q 104 119 83 97 q 157 142 125 142 q 218 114 192 142 q 244 36 244 86 z "},"΄":{"ha":276,"x_min":139,"x_max":271,"o":"m 139 785 l 165 1063 l 271 1063 l 190 785 l 139 785 z "},"΅":{"ha":765,"x_min":132,"x_max":633,"o":"m 338 785 l 364 1063 l 469 1063 l 390 785 l 338 785 m 633 839 q 615 792 633 811 q 569 774 596 774 q 524 792 542 774 q 506 839 506 811 q 524 884 506 865 q 569 903 542 903 q 615 884 596 903 q 633 839 633 865 m 260 839 q 241 792 260 811 q 196 774 222 774 q 150 792 168 774 q 132 839 132 811 q 150 884 132 865 q 196 903 168 903 q 241 884 222 903 q 260 839 260 865 z "},"Ά":{"ha":914,"x_min":13,"x_max":901,"o":"m 201 785 l 228 1063 l 333 1063 l 253 785 l 201 785 m 769 0 l 688 206 l 226 206 l 144 0 l 13 0 l 385 926 l 528 926 l 901 0 l 769 0 m 457 807 l 260 308 l 653 308 l 457 807 z "},"Έ":{"ha":814,"x_min":-17,"x_max":739,"o":"m -17 785 l 10 1063 l 115 1063 l 35 785 l -17 785 m 132 0 l 132 926 l 739 926 l 739 824 l 247 824 l 247 525 l 729 525 l 729 422 l 247 422 l 247 103 l 739 103 l 739 0 l 132 0 z "},"Ή":{"ha":1013,"x_min":-17,"x_max":904,"o":"m -17 785 l 10 1063 l 115 1063 l 35 785 l -17 785 m 789 0 l 789 425 l 247 425 l 247 0 l 132 0 l 132 926 l 247 926 l 247 528 l 789 528 l 789 926 l 904 926 l 904 0 l 789 0 z "},"Ί":{"ha":354,"x_min":-17,"x_max":247,"o":"m -17 785 l 10 1063 l 115 1063 l 35 785 l -17 785 m 132 0 l 132 926 l 247 926 l 247 0 l 132 0 z "},"Ό":{"ha":1063,"x_min":32,"x_max":990,"o":"m 32 785 l 58 1063 l 164 1063 l 83 785 l 32 785 m 531 -17 q 343 19 428 -17 q 198 120 258 56 q 104 272 138 185 q 71 463 71 360 q 104 653 71 565 q 198 805 138 740 q 343 906 258 869 q 531 942 428 942 q 718 906 633 942 q 863 805 803 869 q 957 653 924 740 q 990 463 990 565 q 957 272 990 360 q 863 120 924 185 q 718 19 803 56 q 531 -17 633 -17 m 531 86 q 671 115 608 86 q 778 194 733 143 q 847 313 822 244 q 871 463 871 382 q 847 613 871 543 q 778 732 822 682 q 671 810 733 782 q 531 839 608 839 q 390 810 453 839 q 282 732 326 782 q 214 613 238 682 q 190 463 190 543 q 214 313 190 382 q 282 194 238 244 q 390 115 326 143 q 531 86 453 86 z "},"Ύ":{"ha":950,"x_min":-17,"x_max":938,"o":"m -17 785 l 10 1063 l 115 1063 l 35 785 l -17 785 m 458 0 l 458 392 l 93 926 l 228 926 l 515 496 l 803 926 l 938 926 l 574 392 l 574 0 l 458 0 z "},"Ώ":{"ha":1068,"x_min":32,"x_max":996,"o":"m 32 785 l 58 1063 l 164 1063 l 83 785 l 32 785 m 289 103 q 137 253 197 158 q 76 483 76 347 q 110 667 76 583 q 203 813 143 751 q 349 908 264 874 q 536 942 433 942 q 724 908 639 942 q 869 813 808 874 q 963 667 929 751 q 996 483 996 583 q 980 358 996 415 q 936 253 964 300 q 870 168 908 206 q 786 103 832 131 l 972 103 l 972 0 l 639 0 l 639 103 q 727 143 685 114 q 803 218 769 172 q 856 326 836 264 q 876 464 876 388 q 854 608 876 540 q 789 727 832 676 q 683 808 746 778 q 536 838 619 838 q 390 808 453 838 q 283 727 326 778 q 218 608 240 676 q 196 464 196 540 q 216 326 196 388 q 269 218 236 264 q 346 143 303 172 q 435 103 389 114 l 435 0 l 101 0 l 101 103 l 289 103 z "},"ΐ":{"ha":332,"x_min":-83,"x_max":418,"o":"m 122 785 l 149 1063 l 254 1063 l 175 785 l 122 785 m 418 839 q 399 792 418 811 q 354 774 381 774 q 308 792 326 774 q 290 839 290 811 q 308 884 290 865 q 354 903 326 903 q 399 884 381 903 q 418 839 418 865 m 44 839 q 26 792 44 811 q -19 774 7 774 q -65 792 -47 774 q -83 839 -83 811 q -65 884 -83 865 q -19 903 -47 903 q 26 884 7 903 q 44 839 44 865 m 253 -17 q 141 24 178 -17 q 104 140 104 65 l 104 671 l 208 671 l 208 157 q 225 99 208 121 q 274 76 242 76 q 300 79 289 76 l 308 -11 q 283 -15 297 -14 q 253 -17 268 -17 z "},"Α":{"ha":914,"x_min":13,"x_max":901,"o":"m 769 0 l 688 206 l 226 206 l 144 0 l 13 0 l 385 926 l 528 926 l 901 0 l 769 0 m 457 807 l 260 308 l 653 308 l 457 807 z "},"Β":{"ha":874,"x_min":108,"x_max":799,"o":"m 108 0 l 108 926 l 521 926 q 629 909 581 926 q 711 860 678 892 q 763 785 744 829 q 781 690 781 742 q 767 610 781 646 q 731 547 754 574 q 679 502 708 519 q 618 478 650 485 q 688 451 656 472 q 745 400 721 431 q 784 331 769 369 q 799 250 799 292 q 781 149 799 194 q 728 69 763 103 q 644 18 693 36 q 531 0 594 0 l 108 0 m 501 525 q 621 567 581 525 q 661 674 661 610 q 621 780 661 736 q 501 824 581 824 l 224 824 l 224 525 l 501 525 m 507 103 q 634 145 589 103 q 679 263 679 188 q 668 324 679 294 q 635 374 657 353 q 582 409 614 396 q 507 422 550 422 l 224 422 l 224 103 l 507 103 z "},"Γ":{"ha":764,"x_min":108,"x_max":715,"o":"m 108 0 l 108 926 l 715 926 l 715 824 l 224 824 l 224 0 l 108 0 z "},"Δ":{"ha":914,"x_min":13,"x_max":901,"o":"m 13 0 l 385 926 l 528 926 l 901 0 l 13 0 m 457 807 l 178 103 l 736 103 l 457 807 z "},"Ε":{"ha":790,"x_min":108,"x_max":715,"o":"m 108 0 l 108 926 l 715 926 l 715 824 l 224 824 l 224 525 l 706 525 l 706 422 l 224 422 l 224 103 l 715 103 l 715 0 l 108 0 z "},"Ζ":{"ha":813,"x_min":67,"x_max":744,"o":"m 67 0 l 67 96 l 588 824 l 67 824 l 67 926 l 735 926 l 735 831 l 214 103 l 744 103 l 744 0 l 67 0 z "},"Η":{"ha":989,"x_min":108,"x_max":881,"o":"m 765 0 l 765 425 l 224 425 l 224 0 l 108 0 l 108 926 l 224 926 l 224 528 l 765 528 l 765 926 l 881 926 l 881 0 l 765 0 z "},"Θ":{"ha":1063,"x_min":71,"x_max":990,"o":"m 272 422 l 272 525 l 790 525 l 790 422 l 272 422 m 531 -17 q 343 19 428 -17 q 198 120 258 56 q 104 272 138 185 q 71 463 71 360 q 104 653 71 565 q 198 805 138 740 q 343 906 258 869 q 531 942 428 942 q 718 906 633 942 q 863 805 803 869 q 957 653 924 740 q 990 463 990 565 q 957 272 990 360 q 863 120 924 185 q 718 19 803 56 q 531 -17 633 -17 m 531 86 q 671 115 608 86 q 778 194 733 143 q 847 313 822 244 q 871 463 871 382 q 847 613 871 543 q 778 732 822 682 q 671 810 733 782 q 531 839 608 839 q 390 810 453 839 q 282 732 326 782 q 214 613 238 682 q 190 463 190 543 q 214 313 190 382 q 282 194 238 244 q 390 115 326 143 q 531 86 453 86 z "},"Ι":{"ha":332,"x_min":108,"x_max":224,"o":"m 108 0 l 108 926 l 224 926 l 224 0 l 108 0 z "},"Κ":{"ha":835,"x_min":108,"x_max":811,"o":"m 668 0 l 317 417 l 224 311 l 224 0 l 108 0 l 108 926 l 224 926 l 224 447 l 633 926 l 778 926 l 392 486 l 811 0 l 668 0 z "},"Λ":{"ha":914,"x_min":13,"x_max":901,"o":"m 769 0 l 457 807 l 144 0 l 13 0 l 385 926 l 528 926 l 901 0 l 769 0 z "},"Μ":{"ha":1124,"x_min":108,"x_max":1015,"o":"m 900 0 l 900 763 l 585 0 l 538 0 l 224 763 l 224 0 l 108 0 l 108 926 l 274 926 l 561 229 l 850 926 l 1015 926 l 1015 0 l 900 0 z "},"Ν":{"ha":983,"x_min":108,"x_max":875,"o":"m 764 0 l 224 739 l 224 0 l 108 0 l 108 926 l 226 926 l 760 203 l 760 926 l 875 926 l 875 0 l 764 0 z "},"Ξ":{"ha":854,"x_min":75,"x_max":778,"o":"m 76 824 l 76 926 l 778 926 l 778 824 l 76 824 m 75 0 l 75 103 l 778 103 l 778 0 l 75 0 m 86 422 l 86 525 l 769 525 l 769 422 l 86 422 z "},"Ο":{"ha":1063,"x_min":71,"x_max":990,"o":"m 531 -17 q 343 19 428 -17 q 198 120 258 56 q 104 272 138 185 q 71 463 71 360 q 104 653 71 565 q 198 805 138 740 q 343 906 258 869 q 531 942 428 942 q 718 906 633 942 q 863 805 803 869 q 957 653 924 740 q 990 463 990 565 q 957 272 990 360 q 863 120 924 185 q 718 19 803 56 q 531 -17 633 -17 m 531 86 q 671 115 608 86 q 778 194 733 143 q 847 313 822 244 q 871 463 871 382 q 847 613 871 543 q 778 732 822 682 q 671 810 733 782 q 531 839 608 839 q 390 810 453 839 q 282 732 326 782 q 214 613 238 682 q 190 463 190 543 q 214 313 190 382 q 282 194 238 244 q 390 115 326 143 q 531 86 453 86 z "},"Π":{"ha":989,"x_min":108,"x_max":881,"o":"m 765 0 l 765 824 l 224 824 l 224 0 l 108 0 l 108 926 l 881 926 l 881 0 l 765 0 z "},"Ρ":{"ha":815,"x_min":108,"x_max":771,"o":"m 108 0 l 108 926 l 481 926 q 604 904 550 926 q 695 844 658 882 q 751 755 732 806 q 771 647 771 704 q 751 540 771 590 q 694 451 732 489 q 603 390 657 413 q 481 368 549 368 l 224 368 l 224 0 l 108 0 m 467 471 q 601 519 550 471 q 651 647 651 568 q 601 775 651 726 q 467 824 550 824 l 224 824 l 224 471 l 467 471 z "},"Σ":{"ha":799,"x_min":75,"x_max":724,"o":"m 536 476 l 214 103 l 724 103 l 724 0 l 75 0 l 75 103 l 396 475 l 76 824 l 76 926 l 724 926 l 724 824 l 218 824 l 536 476 z "},"Τ":{"ha":792,"x_min":44,"x_max":747,"o":"m 338 0 l 338 824 l 44 824 l 44 926 l 747 926 l 747 824 l 453 824 l 453 0 l 338 0 z "},"Υ":{"ha":869,"x_min":13,"x_max":857,"o":"m 378 0 l 378 392 l 13 926 l 147 926 l 435 496 l 722 926 l 857 926 l 493 392 l 493 0 l 378 0 z "},"Φ":{"ha":1119,"x_min":71,"x_max":1049,"o":"m 501 0 l 501 90 q 322 126 401 97 q 186 204 242 156 q 101 318 131 253 q 71 463 71 383 q 101 606 71 540 q 186 719 131 671 q 322 797 242 767 q 501 833 401 826 l 501 926 l 617 926 l 617 833 q 797 797 717 826 q 933 719 876 767 q 1019 606 989 671 q 1049 463 1049 540 q 1019 318 1049 383 q 933 204 989 253 q 797 126 876 156 q 617 90 717 97 l 617 0 l 501 0 m 929 463 q 847 646 929 574 q 617 731 764 718 l 617 194 q 847 279 764 207 q 929 463 929 351 m 190 463 q 272 279 190 351 q 501 194 353 207 l 501 731 q 272 646 353 718 q 190 463 190 574 z "},"Χ":{"ha":906,"x_min":17,"x_max":888,"o":"m 749 0 l 453 394 l 157 0 l 17 0 l 378 475 l 38 926 l 178 926 l 453 556 l 726 926 l 867 926 l 528 476 l 888 0 l 749 0 z "},"Ψ":{"ha":1106,"x_min":108,"x_max":997,"o":"m 496 0 l 496 174 q 205 288 301 188 q 108 549 108 389 l 108 926 l 224 926 l 224 551 q 292 361 224 432 q 496 276 361 290 l 496 926 l 611 926 l 611 278 q 813 362 744 290 q 881 551 881 433 l 881 926 l 997 926 l 997 550 q 901 288 997 388 q 611 174 806 189 l 611 0 l 496 0 z "},"Ω":{"ha":1063,"x_min":71,"x_max":990,"o":"m 283 103 q 131 253 192 158 q 71 483 71 347 q 104 667 71 583 q 198 813 138 751 q 343 908 258 874 q 531 942 428 942 q 718 908 633 942 q 863 813 803 874 q 957 667 924 751 q 990 483 990 583 q 974 358 990 415 q 931 253 958 300 q 865 168 903 206 q 781 103 826 131 l 967 103 l 967 0 l 633 0 l 633 103 q 722 143 679 114 q 797 218 764 172 q 851 326 831 264 q 871 464 871 388 q 849 608 871 540 q 783 727 826 676 q 677 808 740 778 q 531 838 614 838 q 384 808 447 838 q 278 727 321 778 q 213 608 235 676 q 190 464 190 540 q 210 326 190 388 q 264 218 231 264 q 340 143 297 172 q 429 103 383 114 l 429 0 l 96 0 l 96 103 l 283 103 z "},"Ϊ":{"ha":332,"x_min":-42,"x_max":375,"o":"m 108 0 l 108 926 l 224 926 l 224 0 l 108 0 m 375 1094 q 356 1048 375 1067 q 310 1029 336 1029 q 264 1048 283 1029 q 244 1094 244 1067 q 264 1140 244 1121 q 310 1158 283 1158 q 356 1140 336 1158 q 375 1094 375 1121 m 88 1094 q 69 1048 88 1067 q 24 1029 50 1029 q -23 1048 -4 1029 q -42 1094 -42 1067 q -23 1140 -42 1121 q 24 1158 -4 1158 q 69 1140 50 1158 q 88 1094 88 1121 z "},"Ϋ":{"ha":869,"x_min":13,"x_max":857,"o":"m 378 0 l 378 392 l 13 926 l 147 926 l 435 496 l 722 926 l 857 926 l 493 392 l 493 0 l 378 0 m 643 1094 q 624 1048 643 1067 q 578 1029 604 1029 q 532 1048 551 1029 q 513 1094 513 1067 q 532 1140 513 1121 q 578 1158 551 1158 q 624 1140 604 1158 q 643 1094 643 1121 m 356 1094 q 337 1048 356 1067 q 292 1029 318 1029 q 245 1048 264 1029 q 226 1094 226 1067 q 245 1140 226 1121 q 292 1158 264 1158 q 337 1140 318 1158 q 356 1094 356 1121 z "},"ά":{"ha":818,"x_min":65,"x_max":793,"o":"m 369 785 l 396 1063 l 501 1063 l 421 785 l 369 785 m 793 -11 q 768 -15 782 -14 q 739 -17 754 -17 q 638 16 674 -17 q 594 107 603 49 q 499 19 560 54 q 364 -17 439 -17 q 244 8 299 -17 q 149 77 189 32 q 88 188 110 122 q 65 335 65 253 q 87 481 65 415 q 148 592 108 546 q 242 663 188 638 q 364 688 297 688 q 490 656 432 688 q 589 569 549 625 l 589 671 l 694 671 l 694 157 q 710 99 694 121 q 758 76 726 76 q 786 79 772 76 l 793 -11 m 389 76 q 507 107 451 76 q 590 182 563 138 l 590 486 q 507 563 563 531 q 389 594 451 594 q 299 575 339 594 q 231 521 258 556 q 188 438 203 486 q 174 335 174 390 q 188 232 174 279 q 231 150 203 185 q 299 96 258 115 q 389 76 339 76 z "},"έ":{"ha":714,"x_min":65,"x_max":675,"o":"m 317 785 l 343 1063 l 449 1063 l 368 785 l 317 785 m 372 -17 q 243 -2 300 -17 q 147 39 186 13 q 86 101 107 65 q 65 179 65 138 q 85 251 65 221 q 133 301 104 281 q 197 331 163 321 q 260 343 231 340 q 199 359 231 347 q 140 391 167 371 q 97 440 114 411 q 79 507 79 469 q 102 583 79 550 q 166 640 125 617 q 263 674 207 663 q 388 686 319 686 q 547 657 479 686 q 663 579 615 628 l 608 515 q 383 601 524 601 q 306 594 342 601 q 244 572 269 586 q 203 538 218 558 q 188 494 188 518 q 203 444 188 465 q 245 410 218 424 q 308 389 272 396 q 386 382 344 382 l 536 382 l 536 297 l 386 297 q 303 292 342 297 q 237 273 265 286 q 192 238 208 260 q 175 186 175 217 q 228 101 175 133 q 372 69 282 69 q 512 92 447 69 q 624 160 576 115 l 675 93 q 549 13 625 43 q 372 -17 474 -17 z "},"ή":{"ha":765,"x_min":104,"x_max":661,"o":"m 343 785 l 369 1063 l 475 1063 l 394 785 l 343 785 m 557 -256 l 557 439 q 516 561 557 528 q 407 594 475 594 q 347 586 376 594 q 292 563 318 578 q 244 530 265 549 q 208 490 222 511 l 208 0 l 104 0 l 104 671 l 208 671 l 208 574 q 251 615 226 594 q 308 651 276 635 q 374 678 339 668 q 447 688 410 688 q 661 471 661 688 l 661 -256 l 557 -256 z "},"ί":{"ha":332,"x_min":104,"x_max":308,"o":"m 129 785 l 156 1063 l 261 1063 l 181 785 l 129 785 m 253 -17 q 141 24 178 -17 q 104 140 104 65 l 104 671 l 208 671 l 208 157 q 225 99 208 121 q 274 76 242 76 q 300 79 289 76 l 308 -11 q 283 -15 297 -14 q 253 -17 268 -17 z "},"ΰ":{"ha":781,"x_min":104,"x_max":715,"o":"m 344 785 l 371 1063 l 476 1063 l 397 785 l 344 785 m 640 839 q 622 792 640 811 q 576 774 603 774 q 531 792 549 774 q 513 839 513 811 q 531 884 513 865 q 576 903 549 903 q 622 884 603 903 q 640 839 640 865 m 267 839 q 248 792 267 811 q 203 774 229 774 q 157 792 175 774 q 139 839 139 811 q 157 884 139 865 q 203 903 175 903 q 248 884 229 903 q 267 839 267 865 m 382 -17 q 260 6 313 -17 q 174 69 208 28 q 122 167 139 110 q 104 294 104 224 l 104 671 l 208 671 l 208 296 q 253 135 208 194 q 382 76 299 76 q 478 98 436 76 q 548 156 519 119 q 591 242 576 193 q 606 347 606 292 q 581 505 606 431 q 504 640 557 579 l 597 688 q 685 530 654 617 q 715 347 715 443 q 692 203 715 269 q 626 88 669 136 q 520 11 582 39 q 382 -17 458 -17 z "},"α":{"ha":818,"x_min":65,"x_max":793,"o":"m 793 -11 q 768 -15 782 -14 q 739 -17 754 -17 q 638 16 674 -17 q 594 107 603 49 q 499 19 560 54 q 364 -17 439 -17 q 244 8 299 -17 q 149 77 189 32 q 88 188 110 122 q 65 335 65 253 q 87 481 65 415 q 148 592 108 546 q 242 663 188 638 q 364 688 297 688 q 490 656 432 688 q 589 569 549 625 l 589 671 l 694 671 l 694 157 q 710 99 694 121 q 758 76 726 76 q 786 79 772 76 l 793 -11 m 389 76 q 507 107 451 76 q 590 182 563 138 l 590 486 q 507 563 563 531 q 389 594 451 594 q 299 575 339 594 q 231 521 258 556 q 188 438 203 486 q 174 335 174 390 q 188 232 174 279 q 231 150 203 185 q 299 96 258 115 q 389 76 339 76 z "},"β":{"ha":799,"x_min":104,"x_max":733,"o":"m 208 182 q 293 107 238 138 q 415 76 349 76 q 571 125 517 76 q 625 256 625 174 q 608 333 625 300 q 560 386 590 365 q 491 417 531 407 q 407 428 451 428 l 358 428 l 358 521 l 404 521 q 482 531 446 521 q 545 560 518 540 q 588 611 572 581 q 603 683 603 642 q 588 753 603 722 q 549 804 574 783 q 492 836 525 825 q 421 847 458 847 q 340 834 378 847 q 272 794 301 821 q 226 726 243 767 q 208 632 208 686 l 208 182 m 208 -256 l 104 -256 l 104 632 q 131 771 104 713 q 203 867 158 829 q 306 922 249 904 q 421 940 363 940 q 537 924 483 940 q 629 876 590 907 q 690 798 668 844 q 713 693 713 751 q 694 606 713 643 q 648 542 676 568 q 585 499 619 515 q 519 478 551 483 q 589 460 551 475 q 658 415 626 444 q 712 343 690 386 q 733 240 733 300 q 711 136 733 183 q 651 55 689 89 q 560 2 613 21 q 446 -17 507 -17 q 306 16 367 -17 q 208 100 246 49 l 208 -256 z "},"γ":{"ha":681,"x_min":-10,"x_max":642,"o":"m 289 -256 l 289 -68 q 266 146 289 40 q 202 347 243 251 q 107 526 161 443 q -10 671 53 608 l 113 671 q 200 560 158 625 q 275 422 242 494 q 331 273 308 349 q 361 129 354 197 q 429 244 397 181 q 485 379 461 308 q 524 525 510 450 q 538 671 538 600 l 642 671 q 624 501 642 589 q 573 328 606 414 q 494 160 540 242 q 393 7 449 78 l 393 -256 l 289 -256 z "},"δ":{"ha":794,"x_min":65,"x_max":729,"o":"m 401 -17 q 261 10 324 -17 q 155 83 199 38 q 88 188 111 129 q 65 310 65 247 q 120 490 65 417 q 261 600 175 564 q 179 656 211 622 q 147 750 147 690 q 164 824 147 789 q 212 886 181 860 q 290 928 243 913 q 396 943 336 943 q 544 915 483 943 q 644 846 604 886 l 596 774 q 514 834 565 810 q 396 858 463 858 q 287 828 326 858 q 247 753 247 797 q 268 706 247 724 q 323 674 289 688 q 400 647 357 660 q 488 618 443 635 q 576 578 533 601 q 653 518 619 554 q 708 431 688 482 q 729 306 729 379 q 707 186 729 244 q 642 83 685 128 q 539 10 600 38 q 401 -17 478 -17 m 628 306 q 606 410 628 368 q 548 479 583 451 q 467 525 513 507 q 375 558 421 543 q 224 463 275 528 q 174 310 174 397 q 189 226 174 268 q 233 151 204 185 q 303 97 261 118 q 399 76 344 76 q 496 97 453 76 q 568 151 539 118 q 613 224 597 183 q 628 306 628 265 z "},"ε":{"ha":714,"x_min":65,"x_max":675,"o":"m 372 -17 q 243 -2 300 -17 q 147 39 186 13 q 86 101 107 65 q 65 179 65 138 q 85 251 65 221 q 133 301 104 281 q 197 331 163 321 q 260 343 231 340 q 199 359 231 347 q 140 391 167 371 q 97 440 114 411 q 79 507 79 469 q 102 583 79 550 q 166 640 125 617 q 263 674 207 663 q 388 686 319 686 q 547 657 479 686 q 663 579 615 628 l 608 515 q 383 601 524 601 q 306 594 342 601 q 244 572 269 586 q 203 538 218 558 q 188 494 188 518 q 203 444 188 465 q 245 410 218 424 q 308 389 272 396 q 386 382 344 382 l 536 382 l 536 297 l 386 297 q 303 292 342 297 q 237 273 265 286 q 192 238 208 260 q 175 186 175 217 q 228 101 175 133 q 372 69 282 69 q 512 92 447 69 q 624 160 576 115 l 675 93 q 549 13 625 43 q 372 -17 474 -17 z "},"ζ":{"ha":679,"x_min":65,"x_max":625,"o":"m 515 -67 q 497 -27 515 -37 q 436 -17 478 -17 q 285 5 353 -17 q 168 67 217 26 q 92 164 119 107 q 65 293 65 221 q 95 452 65 376 q 179 596 125 528 q 310 724 233 664 q 482 835 388 783 l 88 835 l 88 926 l 618 926 l 618 847 q 436 726 518 789 q 296 596 354 664 q 206 454 238 528 q 174 300 174 381 q 193 204 174 246 q 249 134 213 163 q 335 91 285 106 q 449 76 386 76 q 583 48 542 76 q 625 -47 625 19 q 609 -125 625 -83 q 564 -218 593 -167 l 451 -218 q 495 -140 475 -182 q 515 -67 515 -99 z "},"η":{"ha":765,"x_min":104,"x_max":661,"o":"m 557 -256 l 557 439 q 516 561 557 528 q 407 594 475 594 q 347 586 376 594 q 292 563 318 578 q 244 530 265 549 q 208 490 222 511 l 208 0 l 104 0 l 104 671 l 208 671 l 208 574 q 251 615 226 594 q 308 651 276 635 q 374 678 339 668 q 447 688 410 688 q 661 471 661 688 l 661 -256 l 557 -256 z "},"θ":{"ha":794,"x_min":65,"x_max":729,"o":"m 397 -17 q 251 21 314 -17 q 147 124 189 58 q 85 276 106 189 q 65 464 65 364 q 85 651 65 564 q 147 803 106 738 q 251 906 189 868 q 397 943 314 943 q 543 906 481 943 q 647 803 606 868 q 709 651 689 738 q 729 464 729 564 q 709 276 729 364 q 647 124 689 189 q 543 21 606 58 q 397 -17 481 -17 m 397 76 q 495 103 454 76 q 563 175 536 129 q 602 283 589 221 q 618 419 615 346 l 175 419 q 192 283 178 346 q 233 174 206 219 q 300 102 260 128 q 397 76 340 76 m 397 850 q 300 824 340 850 q 233 753 260 799 q 192 645 206 707 q 175 511 178 583 l 618 511 q 601 645 615 583 q 561 753 588 707 q 494 824 535 799 q 397 850 454 850 z "},"ι":{"ha":332,"x_min":104,"x_max":308,"o":"m 253 -17 q 141 24 178 -17 q 104 140 104 65 l 104 671 l 208 671 l 208 157 q 225 99 208 121 q 274 76 242 76 q 300 79 289 76 l 308 -11 q 283 -15 297 -14 q 253 -17 268 -17 z "},"κ":{"ha":714,"x_min":104,"x_max":694,"o":"m 561 0 l 319 301 l 208 192 l 208 0 l 104 0 l 104 671 l 208 671 l 208 314 l 561 671 l 693 671 l 396 367 l 694 0 l 561 0 z "},"λ":{"ha":681,"x_min":4,"x_max":676,"o":"m 67 932 q 104 940 82 938 q 143 943 126 943 q 260 911 210 942 q 340 807 310 881 l 676 0 l 563 0 l 340 550 l 117 0 l 4 0 l 285 676 l 240 778 q 199 835 222 821 q 140 850 175 850 q 111 847 128 850 q 83 839 94 844 l 67 932 z "},"μ":{"ha":785,"x_min":104,"x_max":761,"o":"m 208 -256 l 104 -256 l 104 671 l 208 671 l 208 229 q 249 110 208 146 q 361 74 290 74 q 419 82 390 74 q 474 105 449 90 q 521 138 500 119 q 557 178 542 157 l 557 671 l 661 671 l 661 157 q 678 99 661 121 q 726 76 694 76 q 753 79 742 76 l 761 -11 q 735 -15 750 -14 q 706 -17 721 -17 q 606 15 639 -17 q 561 103 572 47 q 469 19 525 54 q 349 -17 414 -17 q 256 3 289 -17 q 208 50 224 22 l 208 -256 z "},"ν":{"ha":681,"x_min":4,"x_max":642,"o":"m 283 0 l 4 671 l 117 671 l 344 106 q 424 235 389 167 q 485 377 460 304 q 524 525 510 450 q 538 671 538 600 l 642 671 q 623 501 642 589 q 571 325 604 413 q 491 154 538 238 q 388 0 444 71 l 283 0 z "},"ξ":{"ha":679,"x_min":65,"x_max":625,"o":"m 436 -17 q 160 51 256 -17 q 65 239 65 118 q 84 331 65 292 q 131 398 103 371 q 193 441 160 425 q 256 463 226 457 q 197 479 228 467 q 140 514 167 492 q 97 568 114 536 q 79 643 79 600 q 122 758 79 706 q 229 835 165 811 l 90 835 l 90 926 l 606 926 l 606 835 l 346 835 q 283 810 313 826 q 233 771 254 793 q 201 722 213 749 q 189 668 189 696 q 206 603 189 631 q 251 558 222 576 q 319 530 281 539 q 400 521 357 521 l 599 521 l 599 431 l 400 431 q 311 420 353 431 q 239 389 269 410 q 191 335 208 368 q 174 256 174 301 q 245 123 174 169 q 449 76 317 76 q 583 48 542 76 q 625 -47 625 19 q 609 -125 625 -83 q 564 -218 593 -167 l 451 -218 q 495 -140 475 -182 q 515 -67 515 -99 q 497 -27 515 -37 q 436 -17 478 -17 z "},"ο":{"ha":794,"x_min":65,"x_max":729,"o":"m 397 -17 q 259 11 321 -17 q 154 87 197 39 q 88 199 111 135 q 65 336 65 263 q 88 473 65 408 q 154 585 111 538 q 259 660 197 632 q 397 688 321 688 q 535 660 474 688 q 640 585 597 632 q 706 473 683 538 q 729 336 729 408 q 706 199 729 263 q 640 87 683 135 q 535 11 597 39 q 397 -17 474 -17 m 397 76 q 492 98 451 76 q 562 155 533 119 q 605 238 590 190 q 619 336 619 285 q 605 434 619 388 q 562 516 590 481 q 492 573 533 551 q 397 594 451 594 q 301 573 343 594 q 231 516 260 551 q 188 434 203 481 q 174 336 174 388 q 188 238 174 285 q 231 155 203 190 q 301 98 260 119 q 397 76 343 76 z "},"π":{"ha":808,"x_min":14,"x_max":794,"o":"m 579 0 l 579 579 l 229 579 l 229 0 l 125 0 l 125 579 l 14 579 l 14 671 l 794 671 l 794 579 l 683 579 l 683 0 l 579 0 z "},"ρ":{"ha":794,"x_min":104,"x_max":733,"o":"m 435 -17 q 307 14 365 -17 q 208 101 249 44 l 208 -256 l 104 -256 l 104 336 q 126 473 104 408 q 188 585 147 538 q 287 660 229 632 q 417 688 344 688 q 549 660 490 688 q 648 585 607 632 q 711 473 689 538 q 733 336 733 408 q 712 189 733 254 q 651 78 690 124 q 556 8 611 32 q 435 -17 501 -17 m 408 76 q 499 96 458 76 q 567 150 539 115 q 609 233 594 185 q 624 336 624 281 q 610 434 624 388 q 569 516 596 481 q 504 573 543 551 q 415 594 465 594 q 326 573 365 594 q 262 516 288 551 q 222 434 236 481 q 208 336 208 388 l 208 185 q 291 108 236 140 q 408 76 346 76 z "},"ς":{"ha":671,"x_min":65,"x_max":646,"o":"m 439 -17 q 285 8 354 -17 q 167 78 217 32 q 92 189 118 124 q 65 336 65 254 q 90 475 65 411 q 158 586 114 539 q 263 660 201 633 q 400 688 325 688 q 549 654 492 688 q 646 571 607 621 l 576 507 q 501 574 543 553 q 406 594 458 594 q 309 575 351 594 q 236 521 267 556 q 190 439 206 486 q 174 336 174 392 q 194 222 174 271 q 250 141 214 174 q 335 92 286 108 q 444 76 385 76 q 581 48 536 76 q 625 -47 625 19 q 609 -125 625 -83 q 565 -218 593 -167 l 457 -218 q 501 -140 481 -182 q 521 -67 521 -99 q 500 -27 521 -37 q 439 -17 479 -17 z "},"σ":{"ha":794,"x_min":65,"x_max":760,"o":"m 722 313 q 700 185 722 246 q 636 81 678 125 q 534 10 594 36 q 397 -17 474 -17 q 259 11 321 -17 q 154 87 197 39 q 88 199 111 135 q 65 336 65 263 q 89 467 65 406 q 157 573 113 528 q 267 644 201 618 q 415 671 332 671 l 760 671 l 760 578 l 600 578 q 688 472 654 535 q 722 313 722 408 m 619 328 q 581 482 619 418 q 481 578 542 546 l 415 578 q 309 557 354 578 q 234 503 264 536 q 189 426 204 469 q 174 336 174 382 q 188 238 174 285 q 231 155 203 190 q 301 98 260 119 q 397 76 343 76 q 492 97 451 76 q 562 153 533 118 q 605 234 590 189 q 619 328 619 279 z "},"τ":{"ha":650,"x_min":36,"x_max":614,"o":"m 421 -17 q 309 24 346 -17 q 272 140 272 65 l 272 579 l 36 579 l 36 671 l 614 671 l 614 579 l 376 579 l 376 163 q 393 101 376 125 q 444 76 410 76 q 485 85 467 76 q 515 104 504 93 l 546 26 q 497 -5 526 7 q 421 -17 467 -17 z "},"υ":{"ha":781,"x_min":104,"x_max":715,"o":"m 382 -17 q 260 6 313 -17 q 174 69 208 28 q 122 167 139 110 q 104 294 104 224 l 104 671 l 208 671 l 208 296 q 253 135 208 194 q 382 76 299 76 q 478 98 436 76 q 548 156 519 119 q 591 242 576 193 q 606 347 606 292 q 581 505 606 431 q 504 640 557 579 l 597 688 q 685 530 654 617 q 715 347 715 443 q 692 203 715 269 q 626 88 669 136 q 520 11 582 39 q 382 -17 458 -17 z "},"φ":{"ha":1033,"x_min":65,"x_max":967,"o":"m 967 336 q 942 201 967 263 q 869 93 918 139 q 744 19 819 47 q 568 -15 669 -10 l 568 -256 l 464 -256 l 464 -14 q 288 20 363 -8 q 163 96 213 49 q 90 208 114 143 q 65 353 65 274 q 85 465 65 414 q 140 558 106 517 q 219 632 174 600 q 314 688 264 664 l 358 607 q 223 502 272 565 q 174 353 174 439 q 190 250 174 297 q 240 167 206 203 q 331 107 275 131 q 464 78 386 83 l 464 688 l 517 688 q 715 662 631 688 q 856 589 800 636 q 940 477 913 542 q 967 336 967 413 m 858 336 q 841 433 858 388 q 788 513 824 479 q 697 568 751 547 q 568 593 642 589 l 568 78 q 702 106 647 83 q 792 163 757 129 q 842 242 826 197 q 858 336 858 286 z "},"χ":{"ha":675,"x_min":17,"x_max":660,"o":"m 543 -256 l 338 124 l 132 -256 l 17 -256 l 274 221 l 31 671 l 147 671 l 338 318 l 528 671 l 644 671 l 401 221 l 660 -256 l 543 -256 z "},"ψ":{"ha":1033,"x_min":104,"x_max":929,"o":"m 464 -256 l 464 -15 q 194 82 283 -4 q 104 308 104 168 l 104 671 l 208 671 l 208 308 q 275 149 208 208 q 464 79 342 90 l 464 926 l 568 926 l 568 78 q 758 149 690 89 q 825 308 825 208 l 825 671 l 929 671 l 929 308 q 839 81 929 167 q 568 -15 749 -4 l 568 -256 l 464 -256 z "},"ω":{"ha":1122,"x_min":65,"x_max":1056,"o":"m 1056 336 q 1038 199 1056 263 q 985 87 1019 135 q 901 11 950 39 q 793 -17 853 -17 q 705 1 743 -17 q 638 49 667 19 q 590 114 610 78 q 561 188 571 150 q 531 114 550 150 q 484 49 513 78 q 417 1 456 19 q 329 -17 379 -17 q 219 11 268 -17 q 136 87 171 39 q 83 199 101 135 q 65 336 65 263 q 100 540 65 449 q 201 688 135 632 l 276 624 q 195 494 217 568 q 174 336 174 419 q 185 238 174 285 q 217 155 196 190 q 270 98 239 119 q 342 76 301 76 q 413 98 382 76 q 465 155 444 119 q 497 238 486 190 q 508 336 508 285 l 508 507 l 613 507 l 613 336 q 624 238 613 285 q 656 155 635 190 q 708 98 676 119 q 779 76 739 76 q 851 98 819 76 q 903 155 882 119 q 936 238 925 190 q 947 336 947 285 q 926 494 947 419 q 844 624 906 568 l 921 688 q 1022 540 988 632 q 1056 336 1056 449 z "},"ϊ":{"ha":332,"x_min":-40,"x_max":376,"o":"m 376 839 q 357 792 376 811 q 311 774 338 774 q 265 792 285 774 q 246 839 246 811 q 265 884 246 865 q 311 903 285 903 q 357 884 338 903 q 376 839 376 865 m 89 839 q 70 792 89 811 q 25 774 51 774 q -22 792 -3 774 q -40 839 -40 811 q -22 884 -40 865 q 25 903 -3 903 q 70 884 51 903 q 89 839 89 865 m 253 -17 q 141 24 178 -17 q 104 140 104 65 l 104 671 l 208 671 l 208 157 q 225 99 208 121 q 274 76 242 76 q 300 79 289 76 l 308 -11 q 283 -15 297 -14 q 253 -17 268 -17 z "},"ϋ":{"ha":781,"x_min":104,"x_max":715,"o":"m 597 839 q 578 792 597 811 q 532 774 558 774 q 486 792 506 774 q 467 839 467 811 q 486 884 467 865 q 532 903 506 903 q 578 884 558 903 q 597 839 597 865 m 310 839 q 291 792 310 811 q 246 774 272 774 q 199 792 218 774 q 181 839 181 811 q 199 884 181 865 q 246 903 218 903 q 291 884 272 903 q 310 839 310 865 m 382 -17 q 260 6 313 -17 q 174 69 208 28 q 122 167 139 110 q 104 294 104 224 l 104 671 l 208 671 l 208 296 q 253 135 208 194 q 382 76 299 76 q 478 98 436 76 q 548 156 519 119 q 591 242 576 193 q 606 347 606 292 q 581 505 606 431 q 504 640 557 579 l 597 688 q 685 530 654 617 q 715 347 715 443 q 692 203 715 269 q 626 88 669 136 q 520 11 582 39 q 382 -17 458 -17 z "},"ό":{"ha":794,"x_min":65,"x_max":729,"o":"m 357 785 l 383 1063 l 489 1063 l 408 785 l 357 785 m 397 -17 q 259 11 321 -17 q 154 87 197 39 q 88 199 111 135 q 65 336 65 263 q 88 473 65 408 q 154 585 111 538 q 259 660 197 632 q 397 688 321 688 q 535 660 474 688 q 640 585 597 632 q 706 473 683 538 q 729 336 729 408 q 706 199 729 263 q 640 87 683 135 q 535 11 597 39 q 397 -17 474 -17 m 397 76 q 492 98 451 76 q 562 155 533 119 q 605 238 590 190 q 619 336 619 285 q 605 434 619 388 q 562 516 590 481 q 492 573 533 551 q 397 594 451 594 q 301 573 343 594 q 231 516 260 551 q 188 434 203 481 q 174 336 174 388 q 188 238 174 285 q 231 155 203 190 q 301 98 260 119 q 397 76 343 76 z "},"ύ":{"ha":781,"x_min":104,"x_max":715,"o":"m 351 785 l 378 1063 l 483 1063 l 403 785 l 351 785 m 382 -17 q 260 6 313 -17 q 174 69 208 28 q 122 167 139 110 q 104 294 104 224 l 104 671 l 208 671 l 208 296 q 253 135 208 194 q 382 76 299 76 q 478 98 436 76 q 548 156 519 119 q 591 242 576 193 q 606 347 606 292 q 581 505 606 431 q 504 640 557 579 l 597 688 q 685 530 654 617 q 715 347 715 443 q 692 203 715 269 q 626 88 669 136 q 520 11 582 39 q 382 -17 458 -17 z "},"ώ":{"ha":1122,"x_min":65,"x_max":1056,"o":"m 521 785 l 547 1063 l 653 1063 l 572 785 l 521 785 m 1056 336 q 1038 199 1056 263 q 985 87 1019 135 q 901 11 950 39 q 793 -17 853 -17 q 705 1 743 -17 q 638 49 667 19 q 590 114 610 78 q 561 188 571 150 q 531 114 550 150 q 484 49 513 78 q 417 1 456 19 q 329 -17 379 -17 q 219 11 268 -17 q 136 87 171 39 q 83 199 101 135 q 65 336 65 263 q 100 540 65 449 q 201 688 135 632 l 276 624 q 195 494 217 568 q 174 336 174 419 q 185 238 174 285 q 217 155 196 190 q 270 98 239 119 q 342 76 301 76 q 413 98 382 76 q 465 155 444 119 q 497 238 486 190 q 508 336 508 285 l 508 507 l 613 507 l 613 336 q 624 238 613 285 q 656 155 635 190 q 708 98 676 119 q 779 76 739 76 q 851 98 819 76 q 903 155 882 119 q 936 238 925 190 q 947 336 947 285 q 926 494 947 419 q 844 624 906 568 l 921 688 q 1022 540 988 632 q 1056 336 1056 449 z "},"Ё":{"ha":790,"x_min":108,"x_max":715,"o":"m 619 1071 q 600 1024 619 1043 q 554 1006 581 1006 q 508 1024 528 1006 q 489 1071 489 1043 q 508 1116 489 1097 q 554 1135 528 1135 q 600 1116 581 1135 q 619 1071 619 1097 m 332 1071 q 313 1024 332 1043 q 268 1006 294 1006 q 222 1024 240 1006 q 203 1071 203 1043 q 222 1116 203 1097 q 268 1135 240 1135 q 313 1116 294 1135 q 332 1071 332 1097 m 108 0 l 108 926 l 715 926 l 715 824 l 224 824 l 224 525 l 706 525 l 706 422 l 224 422 l 224 103 l 715 103 l 715 0 l 108 0 z "},"Ђ":{"ha":1068,"x_min":44,"x_max":997,"o":"m 696 86 q 833 138 783 86 q 882 278 882 189 l 882 289 q 827 441 882 389 q 667 493 772 493 q 553 485 608 493 q 453 461 497 476 l 453 0 l 338 0 l 338 824 l 44 824 l 44 926 l 747 926 l 747 824 l 453 824 l 453 564 q 554 586 499 576 q 676 596 610 596 q 819 572 758 596 q 919 508 879 549 q 978 410 958 467 q 997 289 997 354 l 997 278 q 974 147 997 203 q 909 55 950 92 q 813 1 868 18 q 696 -17 758 -17 l 696 86 z "},"Ѓ":{"ha":764,"x_min":108,"x_max":715,"o":"m 396 1004 l 317 1004 l 522 1204 l 631 1204 l 396 1004 m 108 0 l 108 926 l 715 926 l 715 824 l 224 824 l 224 0 l 108 0 z "},"Є":{"ha":939,"x_min":71,"x_max":900,"o":"m 547 -17 q 360 18 447 -17 q 209 116 274 53 q 108 267 144 179 q 71 463 71 356 q 108 658 71 569 q 209 809 144 746 q 360 907 274 872 q 547 942 447 942 q 660 928 608 942 q 756 889 713 914 q 835 831 800 864 q 899 758 871 797 l 801 704 q 694 801 761 763 q 547 839 626 839 q 418 816 478 839 q 312 751 358 793 q 235 652 265 710 q 194 525 204 594 l 701 525 l 701 422 l 192 422 q 228 285 199 347 q 305 179 258 224 q 414 110 351 135 q 547 86 476 86 q 694 124 626 86 q 801 221 761 161 l 900 167 q 756 35 842 88 q 547 -17 671 -17 z "},"Ѕ":{"ha":814,"x_min":53,"x_max":750,"o":"m 408 -17 q 199 24 286 -17 q 53 131 111 65 l 121 218 q 174 169 143 193 q 241 126 204 144 q 321 97 278 108 q 413 86 364 86 q 517 101 475 86 q 583 140 558 117 q 619 191 608 163 q 631 246 631 219 q 607 319 631 290 q 545 369 583 349 q 458 402 507 389 q 356 430 408 415 q 255 463 304 444 q 167 509 206 481 q 106 579 129 538 q 82 683 82 621 q 106 788 82 740 q 173 869 131 835 q 274 922 215 903 q 400 940 332 940 q 589 907 507 940 q 729 811 671 874 l 660 726 q 538 811 607 785 q 392 838 468 838 q 255 797 308 838 q 201 690 201 757 q 225 626 201 651 q 287 583 249 601 q 374 552 325 565 q 476 524 424 539 q 577 490 528 510 q 665 440 626 471 q 726 365 703 410 q 750 256 750 321 q 732 156 750 206 q 673 69 714 107 q 567 7 632 31 q 408 -17 501 -17 z "},"І":{"ha":332,"x_min":108,"x_max":224,"o":"m 108 0 l 108 926 l 224 926 l 224 0 l 108 0 z "},"Ї":{"ha":332,"x_min":-42,"x_max":375,"o":"m 108 0 l 108 926 l 224 926 l 224 0 l 108 0 m 375 1071 q 356 1024 375 1043 q 310 1006 336 1006 q 264 1024 283 1006 q 244 1071 244 1043 q 264 1116 244 1097 q 310 1135 283 1135 q 356 1116 336 1135 q 375 1071 375 1097 m 88 1071 q 69 1024 88 1043 q 24 1006 50 1006 q -23 1024 -4 1006 q -42 1071 -42 1043 q -23 1116 -42 1097 q 24 1135 -4 1135 q 69 1116 50 1135 q 88 1071 88 1097 z "},"Ј":{"ha":660,"x_min":15,"x_max":551,"o":"m 257 -17 q 123 8 182 -17 q 15 90 64 33 l 75 178 q 147 114 106 142 q 250 86 189 86 q 386 140 336 86 q 436 281 436 193 l 436 926 l 551 926 l 551 279 q 528 148 551 204 q 466 56 506 92 q 373 1 426 19 q 257 -17 319 -17 z "},"Љ":{"ha":1472,"x_min":44,"x_max":1428,"o":"m 44 86 q 119 101 86 86 q 178 156 151 115 q 223 270 204 197 q 257 461 242 343 l 314 926 l 881 926 l 881 558 l 1138 558 q 1260 536 1206 558 q 1351 476 1314 514 q 1408 387 1389 438 q 1428 279 1428 336 q 1408 172 1428 222 q 1352 83 1389 121 q 1261 22 1315 44 q 1138 0 1207 0 l 765 0 l 765 824 l 417 824 l 371 453 q 322 208 351 300 q 251 65 292 115 q 158 -1 210 15 q 44 -17 107 -17 l 44 86 m 881 456 l 881 103 l 1124 103 q 1258 151 1207 103 q 1308 279 1308 200 q 1258 407 1308 358 q 1124 456 1207 456 l 881 456 z "},"Њ":{"ha":1472,"x_min":108,"x_max":1428,"o":"m 108 926 l 224 926 l 224 528 l 765 528 l 765 926 l 881 926 l 881 528 l 1154 528 q 1270 507 1219 528 q 1356 450 1321 486 q 1410 366 1392 414 q 1428 264 1428 318 q 1410 162 1428 210 q 1357 78 1392 114 q 1271 21 1322 42 q 1154 0 1219 0 l 765 0 l 765 425 l 224 425 l 224 0 l 108 0 l 108 926 m 1140 103 q 1262 147 1215 103 q 1308 264 1308 192 q 1262 380 1308 335 q 1140 425 1215 425 l 881 425 l 881 103 l 1140 103 z "},"Ћ":{"ha":1090,"x_min":44,"x_max":997,"o":"m 882 279 q 827 440 882 386 q 667 493 772 493 q 553 485 608 493 q 453 461 497 476 l 453 0 l 338 0 l 338 824 l 44 824 l 44 926 l 747 926 l 747 824 l 453 824 l 453 564 q 554 586 499 576 q 676 596 610 596 q 819 573 758 596 q 919 508 879 550 q 978 407 958 465 q 997 278 997 349 l 997 0 l 882 0 l 882 279 z "},"Ќ":{"ha":835,"x_min":108,"x_max":811,"o":"m 422 1004 l 343 1004 l 549 1204 l 657 1204 l 422 1004 m 668 0 l 317 417 l 224 311 l 224 0 l 108 0 l 108 926 l 224 926 l 224 447 l 633 926 l 778 926 l 392 486 l 811 0 l 668 0 z "},"Ў":{"ha":869,"x_min":13,"x_max":857,"o":"m 201 -17 q 94 4 143 -17 q 21 57 46 25 l 69 149 q 126 104 94 122 q 196 86 157 86 q 244 93 224 86 q 282 116 264 100 q 316 157 300 132 q 351 218 332 182 l 368 250 l 13 926 l 144 926 l 435 353 l 725 926 l 857 926 l 453 164 q 407 89 431 122 q 354 32 383 56 q 288 -4 325 8 q 201 -17 251 -17 m 679 1101 q 574 1012 638 1044 q 436 979 511 979 q 298 1012 361 979 q 192 1101 235 1044 l 243 1146 q 325 1073 276 1100 q 436 1046 374 1046 q 547 1072 497 1046 q 628 1146 596 1099 l 679 1101 l 679 1101 z "},"Џ":{"ha":989,"x_min":108,"x_max":881,"o":"m 108 926 l 224 926 l 224 103 l 765 103 l 765 926 l 881 926 l 881 0 l 553 0 l 553 -176 l 438 -176 l 438 0 l 108 0 l 108 926 z "},"А":{"ha":914,"x_min":13,"x_max":901,"o":"m 769 0 l 688 206 l 226 206 l 144 0 l 13 0 l 385 926 l 528 926 l 901 0 l 769 0 m 457 807 l 260 308 l 653 308 l 457 807 z "},"Б":{"ha":815,"x_min":108,"x_max":771,"o":"m 710 926 l 710 824 l 224 824 l 224 558 l 481 558 q 603 536 549 558 q 694 476 657 514 q 751 387 732 438 q 771 279 771 336 q 751 172 771 222 q 695 83 732 121 q 604 22 658 44 q 481 0 550 0 l 108 0 l 108 926 l 710 926 m 224 456 l 224 103 l 467 103 q 601 151 550 103 q 651 279 651 200 q 601 407 651 358 q 467 456 550 456 l 224 456 z "},"В":{"ha":874,"x_min":108,"x_max":799,"o":"m 108 0 l 108 926 l 521 926 q 629 909 581 926 q 711 860 678 892 q 763 785 744 829 q 781 690 781 742 q 767 610 781 646 q 731 547 754 574 q 679 502 708 519 q 618 478 650 485 q 688 451 656 472 q 745 400 721 431 q 784 331 769 369 q 799 250 799 292 q 781 149 799 194 q 728 69 763 103 q 644 18 693 36 q 531 0 594 0 l 108 0 m 501 525 q 621 567 581 525 q 661 674 661 610 q 621 780 661 736 q 501 824 581 824 l 224 824 l 224 525 l 501 525 m 507 103 q 634 145 589 103 q 679 263 679 188 q 668 324 679 294 q 635 374 657 353 q 582 409 614 396 q 507 422 550 422 l 224 422 l 224 103 l 507 103 z "},"Г":{"ha":764,"x_min":108,"x_max":715,"o":"m 108 0 l 108 926 l 715 926 l 715 824 l 224 824 l 224 0 l 108 0 z "},"Д":{"ha":1004,"x_min":44,"x_max":965,"o":"m 44 93 q 119 110 86 96 q 178 163 151 124 q 223 272 204 201 q 257 461 242 343 l 314 926 l 881 926 l 881 103 l 965 103 l 965 -171 l 850 -171 l 850 0 l 160 0 l 160 -171 l 44 -171 l 44 93 m 371 453 q 317 224 353 306 q 229 103 281 142 l 765 103 l 765 824 l 417 824 l 371 453 z "},"Е":{"ha":790,"x_min":108,"x_max":715,"o":"m 108 0 l 108 926 l 715 926 l 715 824 l 224 824 l 224 525 l 706 525 l 706 422 l 224 422 l 224 103 l 715 103 l 715 0 l 108 0 z "},"Ж":{"ha":1263,"x_min":24,"x_max":1240,"o":"m 24 0 l 443 486 l 57 926 l 201 926 l 574 490 l 574 926 l 689 926 l 689 490 l 1063 926 l 1207 926 l 819 486 l 1240 0 l 1096 0 l 744 417 l 689 353 l 689 0 l 574 0 l 574 353 l 518 417 l 167 0 l 24 0 z "},"З":{"ha":811,"x_min":40,"x_max":736,"o":"m 389 -17 q 274 -5 328 -17 q 176 28 221 7 q 97 76 131 49 q 40 136 63 104 l 108 210 q 225 121 150 156 q 386 86 300 86 q 558 133 496 86 q 619 260 619 179 q 602 334 619 303 q 553 385 585 365 q 476 414 521 404 q 379 424 432 424 l 190 424 l 190 526 l 379 526 q 466 535 425 526 q 538 563 507 544 q 586 610 568 582 q 604 679 604 639 q 587 747 604 718 q 539 797 569 776 q 468 827 508 817 q 382 838 428 838 q 119 725 225 838 l 56 797 q 194 899 108 858 q 390 940 279 940 q 519 924 458 940 q 624 876 579 907 q 696 798 669 844 q 722 693 722 751 q 703 606 722 643 q 654 542 683 568 q 590 499 625 515 q 522 478 554 483 q 592 460 554 475 q 661 417 629 444 q 715 347 693 389 q 736 250 736 306 q 711 143 736 192 q 640 59 686 94 q 531 3 594 24 q 389 -17 467 -17 z "},"И":{"ha":983,"x_min":108,"x_max":875,"o":"m 108 0 l 108 926 l 224 926 l 224 203 l 757 926 l 875 926 l 875 0 l 760 0 l 760 739 l 219 0 l 108 0 z "},"Й":{"ha":983,"x_min":108,"x_max":875,"o":"m 108 0 l 108 926 l 224 926 l 224 203 l 757 926 l 875 926 l 875 0 l 760 0 l 760 739 l 219 0 l 108 0 m 735 1101 q 630 1012 693 1044 q 492 979 567 979 q 353 1012 417 979 q 247 1101 290 1044 l 299 1146 q 381 1073 332 1100 q 492 1046 429 1046 q 602 1072 553 1046 q 683 1146 651 1099 l 735 1101 l 735 1101 z "},"К":{"ha":835,"x_min":108,"x_max":811,"o":"m 668 0 l 317 417 l 224 311 l 224 0 l 108 0 l 108 926 l 224 926 l 224 447 l 633 926 l 778 926 l 392 486 l 811 0 l 668 0 z "},"Л":{"ha":989,"x_min":44,"x_max":881,"o":"m 44 86 q 119 101 86 86 q 178 156 151 115 q 223 270 204 197 q 257 461 242 343 l 314 926 l 881 926 l 881 0 l 765 0 l 765 824 l 417 824 l 371 453 q 322 208 351 300 q 251 65 292 115 q 158 -1 210 15 q 44 -17 107 -17 l 44 86 z "},"М":{"ha":1124,"x_min":108,"x_max":1015,"o":"m 900 0 l 900 763 l 585 0 l 538 0 l 224 763 l 224 0 l 108 0 l 108 926 l 274 926 l 561 229 l 850 926 l 1015 926 l 1015 0 l 900 0 z "},"Н":{"ha":989,"x_min":108,"x_max":881,"o":"m 765 0 l 765 425 l 224 425 l 224 0 l 108 0 l 108 926 l 224 926 l 224 528 l 765 528 l 765 926 l 881 926 l 881 0 l 765 0 z "}}}
